<?xml version="1.0" encoding="UTF-8" standalone="no"?>
<!DOCTYPE svg PUBLIC "-//W3C//DTD SVG 1.1//EN"
 "http://www.w3.org/Graphics/SVG/1.1/DTD/svg11.dtd">
<!-- Generated by graphviz version 2.43.0 (0)
 -->
<!-- Title: snakemake_dag Pages: 1 -->
<svg width="746pt" height="1124pt"
 viewBox="0.00 0.00 745.50 1124.00" xmlns="http://www.w3.org/2000/svg" xmlns:xlink="http://www.w3.org/1999/xlink">
<g id="graph0" class="graph" transform="scale(1 1) rotate(0) translate(4 1120)">
<title>snakemake_dag</title>
<polygon fill="white" stroke="transparent" points="-4,4 -4,-1120 741.5,-1120 741.5,4 -4,4"/>
<!-- 0 -->
<g id="node1" class="node">
<title>0</title>
<path fill="none" stroke="#ced856" stroke-width="2" d="M288.5,-36C288.5,-36 258.5,-36 258.5,-36 252.5,-36 246.5,-30 246.5,-24 246.5,-24 246.5,-12 246.5,-12 246.5,-6 252.5,0 258.5,0 258.5,0 288.5,0 288.5,0 294.5,0 300.5,-6 300.5,-12 300.5,-12 300.5,-24 300.5,-24 300.5,-30 294.5,-36 288.5,-36"/>
<text text-anchor="middle" x="273.5" y="-15.5" font-family="sans" font-size="10.00">all</text>
</g>
<!-- 1 -->
<g id="node2" class="node">
<title>1</title>
<path fill="none" stroke="#d8b456" stroke-width="2" d="M616.5,-108C616.5,-108 536.5,-108 536.5,-108 530.5,-108 524.5,-102 524.5,-96 524.5,-96 524.5,-84 524.5,-84 524.5,-78 530.5,-72 536.5,-72 536.5,-72 616.5,-72 616.5,-72 622.5,-72 628.5,-78 628.5,-84 628.5,-84 628.5,-96 628.5,-96 628.5,-102 622.5,-108 616.5,-108"/>
<text text-anchor="middle" x="576.5" y="-87.5" font-family="sans" font-size="10.00">popoolation_plots</text>
</g>
<!-- 1&#45;&gt;0 -->
<g id="edge5" class="edge">
<title>1&#45;&gt;0</title>
<path fill="none" stroke="grey" stroke-width="2" d="M524.41,-76.97C463.37,-62.86 363.78,-39.86 310.27,-27.5"/>
<polygon fill="grey" stroke="grey" stroke-width="2" points="311.05,-24.08 300.52,-25.24 309.48,-30.9 311.05,-24.08"/>
</g>
<!-- 2 -->
<g id="node3" class="node">
<title>2</title>
<path fill="none" stroke="#5692d8" stroke-width="2" d="M725.5,-252C725.5,-252 553.5,-252 553.5,-252 547.5,-252 541.5,-246 541.5,-240 541.5,-240 541.5,-228 541.5,-228 541.5,-222 547.5,-216 553.5,-216 553.5,-216 725.5,-216 725.5,-216 731.5,-216 737.5,-222 737.5,-228 737.5,-228 737.5,-240 737.5,-240 737.5,-246 731.5,-252 725.5,-252"/>
<text text-anchor="middle" x="639.5" y="-231.5" font-family="sans" font-size="10.00">popoolation_merge_variance_sliding</text>
</g>
<!-- 2&#45;&gt;1 -->
<g id="edge7" class="edge">
<title>2&#45;&gt;1</title>
<path fill="none" stroke="grey" stroke-width="2" d="M631.9,-215.87C621.07,-191.46 601.09,-146.43 588.32,-117.64"/>
<polygon fill="grey" stroke="grey" stroke-width="2" points="591.38,-115.91 584.13,-108.19 584.98,-118.75 591.38,-115.91"/>
</g>
<!-- 3 -->
<g id="node4" class="node">
<title>3</title>
<path fill="none" stroke="#56c1d8" stroke-width="2" d="M672,-324C672,-324 537,-324 537,-324 531,-324 525,-318 525,-312 525,-312 525,-300 525,-300 525,-294 531,-288 537,-288 537,-288 672,-288 672,-288 678,-288 684,-294 684,-300 684,-300 684,-312 684,-312 684,-318 678,-324 672,-324"/>
<text text-anchor="middle" x="604.5" y="-303.5" font-family="sans" font-size="10.00">popoolation_variance_sliding</text>
</g>
<!-- 3&#45;&gt;2 -->
<g id="edge8" class="edge">
<title>3&#45;&gt;2</title>
<path fill="none" stroke="grey" stroke-width="2" d="M613.15,-287.7C617.14,-279.73 621.95,-270.1 626.37,-261.26"/>
<polygon fill="grey" stroke="grey" stroke-width="2" points="629.61,-262.61 630.95,-252.1 623.35,-259.48 629.61,-262.61"/>
</g>
<!-- 19 -->
<g id="node20" class="node">
<title>19</title>
<path fill="none" stroke="#59d856" stroke-width="2" d="M511,-252C511,-252 396,-252 396,-252 390,-252 384,-246 384,-240 384,-240 384,-228 384,-228 384,-222 390,-216 396,-216 396,-216 511,-216 511,-216 517,-216 523,-222 523,-228 523,-228 523,-240 523,-240 523,-246 517,-252 511,-252"/>
<text text-anchor="middle" x="453.5" y="-231.5" font-family="sans" font-size="10.00">popoolation_merge_snps</text>
</g>
<!-- 3&#45;&gt;19 -->
<g id="edge31" class="edge">
<title>3&#45;&gt;19</title>
<path fill="none" stroke="grey" stroke-width="2" d="M567.56,-287.88C547.01,-278.35 521.25,-266.41 499.41,-256.28"/>
<polygon fill="grey" stroke="grey" stroke-width="2" points="500.86,-253.1 490.32,-252.07 497.92,-259.45 500.86,-253.1"/>
</g>
<!-- 4 -->
<g id="node5" class="node">
<title>4</title>
<path fill="none" stroke="#56d8a2" stroke-width="2" d="M681.5,-468C681.5,-468 527.5,-468 527.5,-468 521.5,-468 515.5,-462 515.5,-456 515.5,-456 515.5,-444 515.5,-444 515.5,-438 521.5,-432 527.5,-432 527.5,-432 681.5,-432 681.5,-432 687.5,-432 693.5,-438 693.5,-444 693.5,-444 693.5,-456 693.5,-456 693.5,-462 687.5,-468 681.5,-468"/>
<text text-anchor="middle" x="604.5" y="-447.5" font-family="sans" font-size="10.00">mpileup_popoolation_subsample</text>
</g>
<!-- 4&#45;&gt;3 -->
<g id="edge9" class="edge">
<title>4&#45;&gt;3</title>
<path fill="none" stroke="grey" stroke-width="2" d="M604.5,-431.87C604.5,-407.67 604.5,-363.21 604.5,-334.39"/>
<polygon fill="grey" stroke="grey" stroke-width="2" points="608,-334.19 604.5,-324.19 601,-334.19 608,-334.19"/>
</g>
<!-- 5 -->
<g id="node6" class="node">
<title>5</title>
<path fill="none" stroke="#d88556" stroke-width="2" d="M683.5,-540C683.5,-540 525.5,-540 525.5,-540 519.5,-540 513.5,-534 513.5,-528 513.5,-528 513.5,-516 513.5,-516 513.5,-510 519.5,-504 525.5,-504 525.5,-504 683.5,-504 683.5,-504 689.5,-504 695.5,-510 695.5,-516 695.5,-516 695.5,-528 695.5,-528 695.5,-534 689.5,-540 683.5,-540"/>
<text text-anchor="middle" x="604.5" y="-519.5" font-family="sans" font-size="10.00">mpileup_popoolation_filter_indels</text>
</g>
<!-- 5&#45;&gt;4 -->
<g id="edge10" class="edge">
<title>5&#45;&gt;4</title>
<path fill="none" stroke="grey" stroke-width="2" d="M604.5,-503.7C604.5,-495.98 604.5,-486.71 604.5,-478.11"/>
<polygon fill="grey" stroke="grey" stroke-width="2" points="608,-478.1 604.5,-468.1 601,-478.1 608,-478.1"/>
</g>
<!-- 6 -->
<g id="node7" class="node">
<title>6</title>
<path fill="none" stroke="#56d8c1" stroke-width="2" d="M506.5,-684C506.5,-684 432.5,-684 432.5,-684 426.5,-684 420.5,-678 420.5,-672 420.5,-672 420.5,-660 420.5,-660 420.5,-654 426.5,-648 432.5,-648 432.5,-648 506.5,-648 506.5,-648 512.5,-648 518.5,-654 518.5,-660 518.5,-660 518.5,-672 518.5,-672 518.5,-678 512.5,-684 506.5,-684"/>
<text text-anchor="middle" x="469.5" y="-663.5" font-family="sans" font-size="10.00">mpileup_convert</text>
</g>
<!-- 6&#45;&gt;5 -->
<g id="edge11" class="edge">
<title>6&#45;&gt;5</title>
<path fill="none" stroke="grey" stroke-width="2" d="M518.82,-659.17C573.22,-651.61 655.59,-636.41 674.5,-612 684.3,-599.35 681.62,-590.33 674.5,-576 668.5,-563.93 658.29,-553.87 647.49,-545.88"/>
<polygon fill="grey" stroke="grey" stroke-width="2" points="649.41,-542.95 639.18,-540.17 645.44,-548.71 649.41,-542.95"/>
</g>
<!-- 16 -->
<g id="node17" class="node">
<title>16</title>
<path fill="none" stroke="#9fd856" stroke-width="2" d="M653.5,-612C653.5,-612 481.5,-612 481.5,-612 475.5,-612 469.5,-606 469.5,-600 469.5,-600 469.5,-588 469.5,-588 469.5,-582 475.5,-576 481.5,-576 481.5,-576 653.5,-576 653.5,-576 659.5,-576 665.5,-582 665.5,-588 665.5,-588 665.5,-600 665.5,-600 665.5,-606 659.5,-612 653.5,-612"/>
<text text-anchor="middle" x="567.5" y="-591.5" font-family="sans" font-size="10.00">mpileup_popoolation_identify_indels</text>
</g>
<!-- 6&#45;&gt;16 -->
<g id="edge28" class="edge">
<title>6&#45;&gt;16</title>
<path fill="none" stroke="grey" stroke-width="2" d="M493.47,-647.88C506.05,-638.89 521.63,-627.76 535.25,-618.03"/>
<polygon fill="grey" stroke="grey" stroke-width="2" points="537.33,-620.85 543.43,-612.19 533.26,-615.15 537.33,-620.85"/>
</g>
<!-- 26 -->
<g id="node27" class="node">
<title>26</title>
<path fill="none" stroke="#567bd8" stroke-width="2" d="M370,-540C370,-540 293,-540 293,-540 287,-540 281,-534 281,-528 281,-528 281,-516 281,-516 281,-510 287,-504 293,-504 293,-504 370,-504 370,-504 376,-504 382,-510 382,-516 382,-516 382,-528 382,-528 382,-534 376,-540 370,-540"/>
<text text-anchor="middle" x="331.5" y="-519.5" font-family="sans" font-size="10.00">sync_filter_indels</text>
</g>
<!-- 6&#45;&gt;26 -->
<g id="edge39" class="edge">
<title>6&#45;&gt;26</title>
<path fill="none" stroke="grey" stroke-width="2" d="M420.37,-660.84C387.87,-655.24 347.52,-642.21 326.5,-612 314.04,-594.1 316.82,-568.94 321.82,-549.94"/>
<polygon fill="grey" stroke="grey" stroke-width="2" points="325.25,-550.68 324.75,-540.1 318.55,-548.68 325.25,-550.68"/>
</g>
<!-- 27 -->
<g id="node28" class="node">
<title>27</title>
<path fill="none" stroke="#b6d856" stroke-width="2" d="M439.5,-612C439.5,-612 347.5,-612 347.5,-612 341.5,-612 335.5,-606 335.5,-600 335.5,-600 335.5,-588 335.5,-588 335.5,-582 341.5,-576 347.5,-576 347.5,-576 439.5,-576 439.5,-576 445.5,-576 451.5,-582 451.5,-588 451.5,-588 451.5,-600 451.5,-600 451.5,-606 445.5,-612 439.5,-612"/>
<text text-anchor="middle" x="393.5" y="-591.5" font-family="sans" font-size="10.00">sync_identify_indels</text>
</g>
<!-- 6&#45;&gt;27 -->
<g id="edge40" class="edge">
<title>6&#45;&gt;27</title>
<path fill="none" stroke="grey" stroke-width="2" d="M450.71,-647.7C441.33,-639.05 429.82,-628.45 419.59,-619.03"/>
<polygon fill="grey" stroke="grey" stroke-width="2" points="421.8,-616.3 412.07,-612.1 417.05,-621.45 421.8,-616.3"/>
</g>
<!-- 7 -->
<g id="node8" class="node">
<title>7</title>
<path fill="none" stroke="#68d856" stroke-width="2" d="M429.5,-756C429.5,-756 387.5,-756 387.5,-756 381.5,-756 375.5,-750 375.5,-744 375.5,-744 375.5,-732 375.5,-732 375.5,-726 381.5,-720 387.5,-720 387.5,-720 429.5,-720 429.5,-720 435.5,-720 441.5,-726 441.5,-732 441.5,-732 441.5,-744 441.5,-744 441.5,-750 435.5,-756 429.5,-756"/>
<text text-anchor="middle" x="408.5" y="-735.5" font-family="sans" font-size="10.00">map_filter</text>
</g>
<!-- 7&#45;&gt;6 -->
<g id="edge15" class="edge">
<title>7&#45;&gt;6</title>
<path fill="none" stroke="grey" stroke-width="2" d="M423.58,-719.7C430.89,-711.3 439.81,-701.07 447.84,-691.86"/>
<polygon fill="grey" stroke="grey" stroke-width="2" points="450.66,-693.94 454.59,-684.1 445.39,-689.34 450.66,-693.94"/>
</g>
<!-- 8 -->
<g id="node9" class="node">
<title>8</title>
<path fill="none" stroke="#d86e56" stroke-width="2" d="M391,-828C391,-828 350,-828 350,-828 344,-828 338,-822 338,-816 338,-816 338,-804 338,-804 338,-798 344,-792 350,-792 350,-792 391,-792 391,-792 397,-792 403,-798 403,-804 403,-804 403,-816 403,-816 403,-822 397,-828 391,-828"/>
<text text-anchor="middle" x="370.5" y="-807.5" font-family="sans" font-size="10.00">map_split</text>
</g>
<!-- 8&#45;&gt;7 -->
<g id="edge16" class="edge">
<title>8&#45;&gt;7</title>
<path fill="none" stroke="grey" stroke-width="2" d="M379.89,-791.7C384.26,-783.64 389.56,-773.89 394.4,-764.98"/>
<polygon fill="grey" stroke="grey" stroke-width="2" points="397.52,-766.56 399.21,-756.1 391.37,-763.22 397.52,-766.56"/>
</g>
<!-- 9 -->
<g id="node10" class="node">
<title>9</title>
<path fill="none" stroke="#d8a456" stroke-width="2" d="M286,-972C286,-972 219,-972 219,-972 213,-972 207,-966 207,-960 207,-960 207,-948 207,-948 207,-942 213,-936 219,-936 219,-936 286,-936 286,-936 292,-936 298,-942 298,-948 298,-948 298,-960 298,-960 298,-966 292,-972 286,-972"/>
<text text-anchor="middle" x="252.5" y="-951.5" font-family="sans" font-size="10.00">map_bwa_map</text>
</g>
<!-- 9&#45;&gt;8 -->
<g id="edge19" class="edge">
<title>9&#45;&gt;8</title>
<path fill="none" stroke="grey" stroke-width="2" d="M290.29,-935.97C306.34,-927.16 324.15,-915.07 336.5,-900 351.27,-881.97 360.08,-856.83 365.02,-837.86"/>
<polygon fill="grey" stroke="grey" stroke-width="2" points="368.44,-838.58 367.38,-828.04 361.64,-836.95 368.44,-838.58"/>
</g>
<!-- 14 -->
<g id="node15" class="node">
<title>14</title>
<path fill="none" stroke="#d89c56" stroke-width="2" d="M315.5,-900C315.5,-900 265.5,-900 265.5,-900 259.5,-900 253.5,-894 253.5,-888 253.5,-888 253.5,-876 253.5,-876 253.5,-870 259.5,-864 265.5,-864 265.5,-864 315.5,-864 315.5,-864 321.5,-864 327.5,-870 327.5,-876 327.5,-876 327.5,-888 327.5,-888 327.5,-894 321.5,-900 315.5,-900"/>
<text text-anchor="middle" x="290.5" y="-879.5" font-family="sans" font-size="10.00">index_cram</text>
</g>
<!-- 9&#45;&gt;14 -->
<g id="edge26" class="edge">
<title>9&#45;&gt;14</title>
<path fill="none" stroke="grey" stroke-width="2" d="M261.89,-935.7C266.26,-927.64 271.56,-917.89 276.4,-908.98"/>
<polygon fill="grey" stroke="grey" stroke-width="2" points="279.52,-910.56 281.21,-900.1 273.37,-907.22 279.52,-910.56"/>
</g>
<!-- 28 -->
<g id="node29" class="node">
<title>28</title>
<path fill="none" stroke="#d88d56" stroke-width="2" d="M206,-756C206,-756 99,-756 99,-756 93,-756 87,-750 87,-744 87,-744 87,-732 87,-732 87,-726 93,-720 99,-720 99,-720 206,-720 206,-720 212,-720 218,-726 218,-732 218,-732 218,-744 218,-744 218,-750 212,-756 206,-756"/>
<text text-anchor="middle" x="152.5" y="-735.5" font-family="sans" font-size="10.00">reports_samtools_stats</text>
</g>
<!-- 9&#45;&gt;28 -->
<g id="edge41" class="edge">
<title>9&#45;&gt;28</title>
<path fill="none" stroke="grey" stroke-width="2" d="M236.39,-935.97C215.95,-913.29 181.36,-870.99 164.5,-828 156.78,-808.31 153.87,-784.51 152.84,-766.47"/>
<polygon fill="grey" stroke="grey" stroke-width="2" points="156.34,-766.18 152.43,-756.34 149.34,-766.47 156.34,-766.18"/>
</g>
<!-- 29 -->
<g id="node30" class="node">
<title>29</title>
<path fill="none" stroke="#56c9d8" stroke-width="2" d="M131,-684C131,-684 12,-684 12,-684 6,-684 0,-678 0,-672 0,-672 0,-660 0,-660 0,-654 6,-648 12,-648 12,-648 131,-648 131,-648 137,-648 143,-654 143,-660 143,-660 143,-672 143,-672 143,-678 137,-684 131,-684"/>
<text text-anchor="middle" x="71.5" y="-663.5" font-family="sans" font-size="10.00">reports_samtools_flagstat</text>
</g>
<!-- 9&#45;&gt;29 -->
<g id="edge42" class="edge">
<title>9&#45;&gt;29</title>
<path fill="none" stroke="grey" stroke-width="2" d="M224.48,-935.81C210.14,-926.26 192.93,-913.59 179.5,-900 124.37,-844.22 103.79,-829.89 77.5,-756 70.46,-736.21 69.2,-712.41 69.56,-694.4"/>
<polygon fill="grey" stroke="grey" stroke-width="2" points="73.06,-694.41 69.95,-684.29 66.07,-694.15 73.06,-694.41"/>
</g>
<!-- 30 -->
<g id="node31" class="node">
<title>30</title>
<path fill="none" stroke="#56b1d8" stroke-width="2" d="M307.5,-828C307.5,-828 185.5,-828 185.5,-828 179.5,-828 173.5,-822 173.5,-816 173.5,-816 173.5,-804 173.5,-804 173.5,-798 179.5,-792 185.5,-792 185.5,-792 307.5,-792 307.5,-792 313.5,-792 319.5,-798 319.5,-804 319.5,-804 319.5,-816 319.5,-816 319.5,-822 313.5,-828 307.5,-828"/>
<text text-anchor="middle" x="246.5" y="-807.5" font-family="sans" font-size="10.00">reports_samtools_idxstats</text>
</g>
<!-- 9&#45;&gt;30 -->
<g id="edge43" class="edge">
<title>9&#45;&gt;30</title>
<path fill="none" stroke="grey" stroke-width="2" d="M249.25,-935.89C247.45,-925.54 245.41,-912.06 244.5,-900 242.95,-879.32 243.57,-855.88 244.52,-838.24"/>
<polygon fill="grey" stroke="grey" stroke-width="2" points="248.02,-838.28 245.13,-828.09 241.03,-837.86 248.02,-838.28"/>
</g>
<!-- 10 -->
<g id="node11" class="node">
<title>10</title>
<path fill="none" stroke="#569ad8" stroke-width="2" d="M201,-1044C201,-1044 128,-1044 128,-1044 122,-1044 116,-1038 116,-1032 116,-1032 116,-1020 116,-1020 116,-1014 122,-1008 128,-1008 128,-1008 201,-1008 201,-1008 207,-1008 213,-1014 213,-1020 213,-1020 213,-1032 213,-1032 213,-1038 207,-1044 201,-1044"/>
<text text-anchor="middle" x="164.5" y="-1023.5" font-family="sans" font-size="10.00">qc_trimmomatic</text>
</g>
<!-- 10&#45;&gt;9 -->
<g id="edge22" class="edge">
<title>10&#45;&gt;9</title>
<path fill="none" stroke="grey" stroke-width="2" d="M186.25,-1007.7C197.34,-998.88 210.97,-988.03 222.99,-978.47"/>
<polygon fill="grey" stroke="grey" stroke-width="2" points="225.35,-981.07 231,-972.1 220.99,-975.59 225.35,-981.07"/>
</g>
<!-- 11 -->
<g id="node12" class="node">
<title>11</title>
<path fill="none" stroke="#56d85b" stroke-width="2" d="M209,-1116C209,-1116 120,-1116 120,-1116 114,-1116 108,-1110 108,-1104 108,-1104 108,-1092 108,-1092 108,-1086 114,-1080 120,-1080 120,-1080 209,-1080 209,-1080 215,-1080 221,-1086 221,-1092 221,-1092 221,-1104 221,-1104 221,-1110 215,-1116 209,-1116"/>
<text text-anchor="middle" x="164.5" y="-1095.5" font-family="sans" font-size="10.00">raw_make_links_pe</text>
</g>
<!-- 11&#45;&gt;10 -->
<g id="edge24" class="edge">
<title>11&#45;&gt;10</title>
<path fill="none" stroke="grey" stroke-width="2" d="M164.5,-1079.7C164.5,-1071.98 164.5,-1062.71 164.5,-1054.11"/>
<polygon fill="grey" stroke="grey" stroke-width="2" points="168,-1054.1 164.5,-1044.1 161,-1054.1 168,-1054.1"/>
</g>
<!-- 12 -->
<g id="node13" class="node">
<title>12</title>
<path fill="none" stroke="#70d856" stroke-width="2" d="M315.5,-1044C315.5,-1044 243.5,-1044 243.5,-1044 237.5,-1044 231.5,-1038 231.5,-1032 231.5,-1032 231.5,-1020 231.5,-1020 231.5,-1014 237.5,-1008 243.5,-1008 243.5,-1008 315.5,-1008 315.5,-1008 321.5,-1008 327.5,-1014 327.5,-1020 327.5,-1020 327.5,-1032 327.5,-1032 327.5,-1038 321.5,-1044 315.5,-1044"/>
<text text-anchor="middle" x="279.5" y="-1023.5" font-family="sans" font-size="10.00">map_bwa_index</text>
</g>
<!-- 12&#45;&gt;9 -->
<g id="edge23" class="edge">
<title>12&#45;&gt;9</title>
<path fill="none" stroke="grey" stroke-width="2" d="M272.83,-1007.7C269.79,-999.81 266.12,-990.3 262.74,-981.55"/>
<polygon fill="grey" stroke="grey" stroke-width="2" points="265.96,-980.17 259.1,-972.1 259.43,-982.69 265.96,-980.17"/>
</g>
<!-- 13 -->
<g id="node14" class="node">
<title>13</title>
<path fill="none" stroke="#56a9d8" stroke-width="2" d="M460,-1116C460,-1116 365,-1116 365,-1116 359,-1116 353,-1110 353,-1104 353,-1104 353,-1092 353,-1092 353,-1086 359,-1080 365,-1080 365,-1080 460,-1080 460,-1080 466,-1080 472,-1086 472,-1092 472,-1092 472,-1104 472,-1104 472,-1110 466,-1116 460,-1116"/>
<text text-anchor="middle" x="412.5" y="-1095.5" font-family="sans" font-size="10.00">raw_extract_genome</text>
</g>
<!-- 13&#45;&gt;6 -->
<g id="edge14" class="edge">
<title>13&#45;&gt;6</title>
<path fill="none" stroke="grey" stroke-width="2" d="M424.31,-1079.96C441.01,-1054.16 469.5,-1003.08 469.5,-955 469.5,-955 469.5,-955 469.5,-809 469.5,-769 469.5,-722.65 469.5,-694.08"/>
<polygon fill="grey" stroke="grey" stroke-width="2" points="473,-694.05 469.5,-684.05 466,-694.05 473,-694.05"/>
</g>
<!-- 13&#45;&gt;7 -->
<g id="edge17" class="edge">
<title>13&#45;&gt;7</title>
<path fill="none" stroke="grey" stroke-width="2" d="M416.34,-1079.61C421.9,-1052.94 431.5,-1000.27 431.5,-955 431.5,-955 431.5,-955 431.5,-881 431.5,-840.7 422.36,-794.78 415.6,-766.34"/>
<polygon fill="grey" stroke="grey" stroke-width="2" points="418.93,-765.22 413.15,-756.34 412.13,-766.89 418.93,-765.22"/>
</g>
<!-- 13&#45;&gt;8 -->
<g id="edge18" class="edge">
<title>13&#45;&gt;8</title>
<path fill="none" stroke="grey" stroke-width="2" d="M410,-1079.97C402.98,-1032.19 383.07,-896.62 374.5,-838.27"/>
<polygon fill="grey" stroke="grey" stroke-width="2" points="377.96,-837.69 373.04,-828.31 371.03,-838.71 377.96,-837.69"/>
</g>
<!-- 13&#45;&gt;9 -->
<g id="edge21" class="edge">
<title>13&#45;&gt;9</title>
<path fill="none" stroke="grey" stroke-width="2" d="M400.38,-1079.92C386.39,-1060.94 362,-1030.07 336.5,-1008 323.33,-996.6 307.47,-985.94 293.1,-977.22"/>
<polygon fill="grey" stroke="grey" stroke-width="2" points="294.76,-974.14 284.38,-972.05 291.19,-980.16 294.76,-974.14"/>
</g>
<!-- 13&#45;&gt;12 -->
<g id="edge25" class="edge">
<title>13&#45;&gt;12</title>
<path fill="none" stroke="grey" stroke-width="2" d="M379.96,-1079.88C362.25,-1070.55 340.15,-1058.92 321.18,-1048.94"/>
<polygon fill="grey" stroke="grey" stroke-width="2" points="322.64,-1045.75 312.16,-1044.19 319.38,-1051.94 322.64,-1045.75"/>
</g>
<!-- 15 -->
<g id="node16" class="node">
<title>15</title>
<path fill="none" stroke="#56d873" stroke-width="2" d="M559.5,-972C559.5,-972 509.5,-972 509.5,-972 503.5,-972 497.5,-966 497.5,-960 497.5,-960 497.5,-948 497.5,-948 497.5,-942 503.5,-936 509.5,-936 509.5,-936 559.5,-936 559.5,-936 565.5,-936 571.5,-942 571.5,-948 571.5,-948 571.5,-960 571.5,-960 571.5,-966 565.5,-972 559.5,-972"/>
<text text-anchor="middle" x="534.5" y="-951.5" font-family="sans" font-size="10.00">index_fasta</text>
</g>
<!-- 13&#45;&gt;15 -->
<g id="edge27" class="edge">
<title>13&#45;&gt;15</title>
<path fill="none" stroke="grey" stroke-width="2" d="M440.61,-1079.95C454.62,-1070.53 471.16,-1057.93 483.5,-1044 500.19,-1025.16 514,-999.99 523.02,-981.22"/>
<polygon fill="grey" stroke="grey" stroke-width="2" points="526.24,-982.6 527.29,-972.06 519.89,-979.65 526.24,-982.6"/>
</g>
<!-- 14&#45;&gt;8 -->
<g id="edge20" class="edge">
<title>14&#45;&gt;8</title>
<path fill="none" stroke="grey" stroke-width="2" d="M310.28,-863.7C320.25,-854.97 332.51,-844.24 343.36,-834.75"/>
<polygon fill="grey" stroke="grey" stroke-width="2" points="345.73,-837.32 350.95,-828.1 341.12,-832.06 345.73,-837.32"/>
</g>
<!-- 14&#45;&gt;30 -->
<g id="edge44" class="edge">
<title>14&#45;&gt;30</title>
<path fill="none" stroke="grey" stroke-width="2" d="M279.62,-863.7C274.51,-855.56 268.3,-845.69 262.66,-836.7"/>
<polygon fill="grey" stroke="grey" stroke-width="2" points="265.54,-834.71 257.25,-828.1 259.61,-838.43 265.54,-834.71"/>
</g>
<!-- 15&#45;&gt;6 -->
<g id="edge13" class="edge">
<title>15&#45;&gt;6</title>
<path fill="none" stroke="grey" stroke-width="2" d="M531.04,-935.99C523.13,-897.43 502.93,-800.51 483.5,-720 481.46,-711.54 479.09,-702.37 476.89,-694.07"/>
<polygon fill="grey" stroke="grey" stroke-width="2" points="480.2,-692.89 474.23,-684.14 473.44,-694.7 480.2,-692.89"/>
</g>
<!-- 16&#45;&gt;5 -->
<g id="edge12" class="edge">
<title>16&#45;&gt;5</title>
<path fill="none" stroke="grey" stroke-width="2" d="M576.65,-575.7C580.9,-567.64 586.06,-557.89 590.77,-548.98"/>
<polygon fill="grey" stroke="grey" stroke-width="2" points="593.88,-550.58 595.46,-540.1 587.69,-547.31 593.88,-550.58"/>
</g>
<!-- 17 -->
<g id="node18" class="node">
<title>17</title>
<path fill="none" stroke="#d85656" stroke-width="2" d="M480.5,-108C480.5,-108 394.5,-108 394.5,-108 388.5,-108 382.5,-102 382.5,-96 382.5,-96 382.5,-84 382.5,-84 382.5,-78 388.5,-72 394.5,-72 394.5,-72 480.5,-72 480.5,-72 486.5,-72 492.5,-78 492.5,-84 492.5,-84 492.5,-96 492.5,-96 492.5,-102 486.5,-108 480.5,-108"/>
<text text-anchor="middle" x="437.5" y="-87.5" font-family="sans" font-size="10.00">hp_plot_population</text>
</g>
<!-- 17&#45;&gt;0 -->
<g id="edge1" class="edge">
<title>17&#45;&gt;0</title>
<path fill="none" stroke="grey" stroke-width="2" d="M397.38,-71.88C370.81,-60.53 336.22,-45.77 310.34,-34.73"/>
<polygon fill="grey" stroke="grey" stroke-width="2" points="311.46,-31.4 300.89,-30.69 308.71,-37.84 311.46,-31.4"/>
</g>
<!-- 18 -->
<g id="node19" class="node">
<title>18</title>
<path fill="none" stroke="#d8bc56" stroke-width="2" d="M552,-180C552,-180 391,-180 391,-180 385,-180 379,-174 379,-168 379,-168 379,-156 379,-156 379,-150 385,-144 391,-144 391,-144 552,-144 552,-144 558,-144 564,-150 564,-156 564,-156 564,-168 564,-168 564,-174 558,-180 552,-180"/>
<text text-anchor="middle" x="471.5" y="-159.5" font-family="sans" font-size="10.00">hp_table_population_chromosome</text>
</g>
<!-- 18&#45;&gt;17 -->
<g id="edge29" class="edge">
<title>18&#45;&gt;17</title>
<path fill="none" stroke="grey" stroke-width="2" d="M463.1,-143.7C459.23,-135.73 454.55,-126.1 450.26,-117.26"/>
<polygon fill="grey" stroke="grey" stroke-width="2" points="453.33,-115.57 445.81,-108.1 447.03,-118.63 453.33,-115.57"/>
</g>
<!-- 19&#45;&gt;18 -->
<g id="edge30" class="edge">
<title>19&#45;&gt;18</title>
<path fill="none" stroke="grey" stroke-width="2" d="M457.95,-215.7C459.95,-207.9 462.37,-198.51 464.6,-189.83"/>
<polygon fill="grey" stroke="grey" stroke-width="2" points="468,-190.66 467.1,-180.1 461.22,-188.92 468,-190.66"/>
</g>
<!-- 20 -->
<g id="node21" class="node">
<title>20</title>
<path fill="none" stroke="#d8d356" stroke-width="2" d="M324.5,-108C324.5,-108 294.5,-108 294.5,-108 288.5,-108 282.5,-102 282.5,-96 282.5,-96 282.5,-84 282.5,-84 282.5,-78 288.5,-72 294.5,-72 294.5,-72 324.5,-72 324.5,-72 330.5,-72 336.5,-78 336.5,-84 336.5,-84 336.5,-96 336.5,-96 336.5,-102 330.5,-108 324.5,-108"/>
<text text-anchor="middle" x="309.5" y="-87.5" font-family="sans" font-size="10.00">fst_plot</text>
</g>
<!-- 20&#45;&gt;0 -->
<g id="edge2" class="edge">
<title>20&#45;&gt;0</title>
<path fill="none" stroke="grey" stroke-width="2" d="M300.6,-71.7C296.5,-63.73 291.55,-54.1 287.01,-45.26"/>
<polygon fill="grey" stroke="grey" stroke-width="2" points="289.98,-43.4 282.3,-36.1 283.76,-46.6 289.98,-43.4"/>
</g>
<!-- 21 -->
<g id="node22" class="node">
<title>21</title>
<path fill="none" stroke="#56d86b" stroke-width="2" d="M348.5,-180C348.5,-180 286.5,-180 286.5,-180 280.5,-180 274.5,-174 274.5,-168 274.5,-168 274.5,-156 274.5,-156 274.5,-150 280.5,-144 286.5,-144 286.5,-144 348.5,-144 348.5,-144 354.5,-144 360.5,-150 360.5,-156 360.5,-156 360.5,-168 360.5,-168 360.5,-174 354.5,-180 348.5,-180"/>
<text text-anchor="middle" x="317.5" y="-159.5" font-family="sans" font-size="10.00">fst_split_table</text>
</g>
<!-- 21&#45;&gt;20 -->
<g id="edge32" class="edge">
<title>21&#45;&gt;20</title>
<path fill="none" stroke="grey" stroke-width="2" d="M315.52,-143.7C314.64,-135.98 313.58,-126.71 312.6,-118.11"/>
<polygon fill="grey" stroke="grey" stroke-width="2" points="316.07,-117.64 311.45,-108.1 309.11,-118.44 316.07,-117.64"/>
</g>
<!-- 22 -->
<g id="node23" class="node">
<title>22</title>
<path fill="none" stroke="#56d8a9" stroke-width="2" d="M340.5,-252C340.5,-252 298.5,-252 298.5,-252 292.5,-252 286.5,-246 286.5,-240 286.5,-240 286.5,-228 286.5,-228 286.5,-222 292.5,-216 298.5,-216 298.5,-216 340.5,-216 340.5,-216 346.5,-216 352.5,-222 352.5,-228 352.5,-228 352.5,-240 352.5,-240 352.5,-246 346.5,-252 340.5,-252"/>
<text text-anchor="middle" x="319.5" y="-231.5" font-family="sans" font-size="10.00">fst_merge</text>
</g>
<!-- 22&#45;&gt;21 -->
<g id="edge33" class="edge">
<title>22&#45;&gt;21</title>
<path fill="none" stroke="grey" stroke-width="2" d="M319.01,-215.7C318.79,-207.98 318.52,-198.71 318.27,-190.11"/>
<polygon fill="grey" stroke="grey" stroke-width="2" points="321.77,-190 317.99,-180.1 314.78,-190.2 321.77,-190"/>
</g>
<!-- 23 -->
<g id="node24" class="node">
<title>23</title>
<path fill="none" stroke="#56d88a" stroke-width="2" d="M348,-324C348,-324 305,-324 305,-324 299,-324 293,-318 293,-312 293,-312 293,-300 293,-300 293,-294 299,-288 305,-288 305,-288 348,-288 348,-288 354,-288 360,-294 360,-300 360,-300 360,-312 360,-312 360,-318 354,-324 348,-324"/>
<text text-anchor="middle" x="326.5" y="-303.5" font-family="sans" font-size="10.00">fst_sliding</text>
</g>
<!-- 23&#45;&gt;22 -->
<g id="edge34" class="edge">
<title>23&#45;&gt;22</title>
<path fill="none" stroke="grey" stroke-width="2" d="M324.77,-287.7C324,-279.98 323.07,-270.71 322.21,-262.11"/>
<polygon fill="grey" stroke="grey" stroke-width="2" points="325.69,-261.71 321.21,-252.1 318.72,-262.4 325.69,-261.71"/>
</g>
<!-- 24 -->
<g id="node25" class="node">
<title>24</title>
<path fill="none" stroke="#97d856" stroke-width="2" d="M365.5,-396C365.5,-396 291.5,-396 291.5,-396 285.5,-396 279.5,-390 279.5,-384 279.5,-384 279.5,-372 279.5,-372 279.5,-366 285.5,-360 291.5,-360 291.5,-360 365.5,-360 365.5,-360 371.5,-360 377.5,-366 377.5,-372 377.5,-372 377.5,-384 377.5,-384 377.5,-390 371.5,-396 365.5,-396"/>
<text text-anchor="middle" x="328.5" y="-375.5" font-family="sans" font-size="10.00">sync_subsample</text>
</g>
<!-- 24&#45;&gt;23 -->
<g id="edge35" class="edge">
<title>24&#45;&gt;23</title>
<path fill="none" stroke="grey" stroke-width="2" d="M328.01,-359.7C327.79,-351.98 327.52,-342.71 327.27,-334.11"/>
<polygon fill="grey" stroke="grey" stroke-width="2" points="330.77,-334 326.99,-324.1 323.78,-334.2 330.77,-334"/>
</g>
<!-- 25 -->
<g id="node26" class="node">
<title>25</title>
<path fill="none" stroke="#56d892" stroke-width="2" d="M376,-468C376,-468 287,-468 287,-468 281,-468 275,-462 275,-456 275,-456 275,-444 275,-444 275,-438 281,-432 287,-432 287,-432 376,-432 376,-432 382,-432 388,-438 388,-444 388,-444 388,-456 388,-456 388,-462 382,-468 376,-468"/>
<text text-anchor="middle" x="331.5" y="-447.5" font-family="sans" font-size="10.00">sync_mpileup2sync</text>
</g>
<!-- 25&#45;&gt;24 -->
<g id="edge36" class="edge">
<title>25&#45;&gt;24</title>
<path fill="none" stroke="grey" stroke-width="2" d="M330.76,-431.7C330.43,-423.98 330.03,-414.71 329.66,-406.11"/>
<polygon fill="grey" stroke="grey" stroke-width="2" points="333.16,-405.95 329.23,-396.1 326.16,-406.25 333.16,-405.95"/>
</g>
<!-- 26&#45;&gt;25 -->
<g id="edge37" class="edge">
<title>26&#45;&gt;25</title>
<path fill="none" stroke="grey" stroke-width="2" d="M331.5,-503.7C331.5,-495.98 331.5,-486.71 331.5,-478.11"/>
<polygon fill="grey" stroke="grey" stroke-width="2" points="335,-478.1 331.5,-468.1 328,-478.1 335,-478.1"/>
</g>
<!-- 27&#45;&gt;26 -->
<g id="edge38" class="edge">
<title>27&#45;&gt;26</title>
<path fill="none" stroke="grey" stroke-width="2" d="M378.17,-575.7C370.74,-567.3 361.68,-557.07 353.52,-547.86"/>
<polygon fill="grey" stroke="grey" stroke-width="2" points="355.9,-545.27 346.65,-540.1 350.66,-549.91 355.9,-545.27"/>
</g>
<!-- 28&#45;&gt;0 -->
<g id="edge3" class="edge">
<title>28&#45;&gt;0</title>
<path fill="none" stroke="grey" stroke-width="2" d="M161.62,-719.61C174.5,-693.36 196.5,-641.71 196.5,-595 196.5,-595 196.5,-595 196.5,-161 196.5,-115.51 227.42,-70.65 250.07,-43.89"/>
<polygon fill="grey" stroke="grey" stroke-width="2" points="252.86,-46.02 256.79,-36.19 247.58,-41.42 252.86,-46.02"/>
</g>
<!-- 29&#45;&gt;0 -->
<g id="edge4" class="edge">
<title>29&#45;&gt;0</title>
<path fill="none" stroke="grey" stroke-width="2" d="M83.1,-647.93C99.51,-622.09 127.5,-570.97 127.5,-523 127.5,-523 127.5,-523 127.5,-161 127.5,-99.89 194.04,-56.58 237.27,-34.88"/>
<polygon fill="grey" stroke="grey" stroke-width="2" points="238.92,-37.97 246.38,-30.45 235.86,-31.68 238.92,-37.97"/>
</g>
<!-- 30&#45;&gt;0 -->
<g id="edge6" class="edge">
<title>30&#45;&gt;0</title>
<path fill="none" stroke="grey" stroke-width="2" d="M246.5,-791.95C246.5,-765.29 246.5,-712.11 246.5,-667 246.5,-667 246.5,-667 246.5,-161 246.5,-120.5 257.23,-74.63 265.16,-46.26"/>
<polygon fill="grey" stroke="grey" stroke-width="2" points="268.63,-46.87 268.04,-36.29 261.9,-44.93 268.63,-46.87"/>
</g>
</g>
</svg>
