<?xml version="1.0" encoding="UTF-8" standalone="no"?>
<!DOCTYPE svg PUBLIC "-//W3C//DTD SVG 1.1//EN"
 "http://www.w3.org/Graphics/SVG/1.1/DTD/svg11.dtd">
<!-- Generated by graphviz version 2.43.0 (0)
 -->
<!-- Title: snakemake_dag Pages: 1 -->
<svg width="1248pt" height="230pt"
 viewBox="0.00 0.00 1248.00 230.00" xmlns="http://www.w3.org/2000/svg" xmlns:xlink="http://www.w3.org/1999/xlink">
<g id="graph0" class="graph" transform="scale(1 1) rotate(0) translate(4 226)">
<title>snakemake_dag</title>
<polygon fill="white" stroke="transparent" points="-4,4 -4,-226 1244,-226 1244,4 -4,4"/>
<g id="clust1" class="cluster">
<title>cluster_0</title>
<path fill="white" stroke="black" stroke-width="2" d="M20,-8C20,-8 82,-8 82,-8 88,-8 94,-14 94,-20 94,-20 94,-125 94,-125 94,-131 88,-137 82,-137 82,-137 20,-137 20,-137 14,-137 8,-131 8,-125 8,-125 8,-20 8,-20 8,-14 14,-8 20,-8"/>
<text text-anchor="middle" x="51" y="-125" font-family="sans" font-size="10.00">Input</text>
</g>
<g id="clust2" class="cluster">
<title>cluster_1</title>
<path fill="white" stroke="black" stroke-width="2" d="M122,-11C122,-11 552,-11 552,-11 558,-11 564,-17 564,-23 564,-23 564,-74 564,-74 564,-80 558,-86 552,-86 552,-86 122,-86 122,-86 116,-86 110,-80 110,-74 110,-74 110,-23 110,-23 110,-17 116,-11 122,-11"/>
<text text-anchor="middle" x="337" y="-74" font-family="sans" font-size="10.00">Preprocess</text>
</g>
<g id="clust3" class="cluster">
<title>cluster_2</title>
<path fill="white" stroke="black" stroke-width="2" d="M592,-85C592,-85 1040,-85 1040,-85 1046,-85 1052,-91 1052,-97 1052,-97 1052,-202 1052,-202 1052,-208 1046,-214 1040,-214 1040,-214 592,-214 592,-214 586,-214 580,-208 580,-202 580,-202 580,-97 580,-97 580,-91 586,-85 592,-85"/>
<text text-anchor="middle" x="816" y="-202" font-family="sans" font-size="10.00">popoolation</text>
</g>
<g id="clust4" class="cluster">
<title>cluster_3</title>
<path fill="white" stroke="black" stroke-width="2" d="M592,-10C592,-10 1220,-10 1220,-10 1226,-10 1232,-16 1232,-22 1232,-22 1232,-73 1232,-73 1232,-79 1226,-85 1220,-85 1220,-85 592,-85 592,-85 586,-85 580,-79 580,-73 580,-73 580,-22 580,-22 580,-16 586,-10 592,-10"/>
<text text-anchor="middle" x="906" y="-73" font-family="sans" font-size="10.00">popoolation2</text>
</g>
<!-- reads -->
<g id="node1" class="node">
<title>reads</title>
<path fill="none" stroke="#5692d8" stroke-width="2" d="M66,-108C66,-108 36,-108 36,-108 30,-108 24,-102 24,-96 24,-96 24,-84 24,-84 24,-78 30,-72 36,-72 36,-72 66,-72 66,-72 72,-72 78,-78 78,-84 78,-84 78,-96 78,-96 78,-102 72,-108 66,-108"/>
<text text-anchor="middle" x="51" y="-93" font-family="sans" font-size="10.00">FASTQ</text>
<text text-anchor="middle" x="51" y="-82" font-family="sans" font-size="10.00">reads</text>
</g>
<!-- bwa -->
<g id="node4" class="node">
<title>bwa</title>
<path fill="none" stroke="#566bd8" stroke-width="2" d="M270,-57C270,-57 222,-57 222,-57 216,-57 210,-51 210,-45 210,-45 210,-33 210,-33 210,-27 216,-21 222,-21 222,-21 270,-21 270,-21 276,-21 282,-27 282,-33 282,-33 282,-45 282,-45 282,-51 276,-57 270,-57"/>
<text text-anchor="middle" x="246" y="-36.5" font-family="sans" font-size="10.00">bwa&#45;mem2</text>
</g>
<!-- reads&#45;&gt;bwa -->
<g id="edge1" class="edge">
<title>reads&#45;&gt;bwa</title>
<path fill="none" stroke="grey" stroke-width="2" d="M78.01,-86.19C102.91,-82.24 141.42,-75.33 174,-66 182.57,-63.55 191.56,-60.51 200.15,-57.36"/>
<polygon fill="grey" stroke="grey" stroke-width="2" points="201.52,-60.59 209.64,-53.79 199.05,-54.04 201.52,-60.59"/>
</g>
<!-- reference -->
<g id="node2" class="node">
<title>reference</title>
<path fill="none" stroke="#d8cb56" stroke-width="2" d="M72,-54C72,-54 30,-54 30,-54 24,-54 18,-48 18,-42 18,-42 18,-30 18,-30 18,-24 24,-18 30,-18 30,-18 72,-18 72,-18 78,-18 84,-24 84,-30 84,-30 84,-42 84,-42 84,-48 78,-54 72,-54"/>
<text text-anchor="middle" x="51" y="-39" font-family="sans" font-size="10.00">Reference</text>
<text text-anchor="middle" x="51" y="-28" font-family="sans" font-size="10.00">Genome</text>
</g>
<!-- index -->
<g id="node3" class="node">
<title>index</title>
<path fill="none" stroke="#d8cb56" stroke-width="2" d="M162,-57C162,-57 132,-57 132,-57 126,-57 120,-51 120,-45 120,-45 120,-33 120,-33 120,-27 126,-21 132,-21 132,-21 162,-21 162,-21 168,-21 174,-27 174,-33 174,-33 174,-45 174,-45 174,-51 168,-57 162,-57"/>
<text text-anchor="middle" x="147" y="-36.5" font-family="sans" font-size="10.00">index</text>
</g>
<!-- reference&#45;&gt;index -->
<g id="edge2" class="edge">
<title>reference&#45;&gt;index</title>
<path fill="none" stroke="grey" stroke-width="2" d="M84.09,-37.02C92.41,-37.29 101.42,-37.58 109.93,-37.85"/>
<polygon fill="grey" stroke="grey" stroke-width="2" points="109.87,-41.35 119.97,-38.17 110.09,-34.35 109.87,-41.35"/>
</g>
<!-- index&#45;&gt;bwa -->
<g id="edge3" class="edge">
<title>index&#45;&gt;bwa</title>
<path fill="none" stroke="grey" stroke-width="2" d="M174.25,-39C182.15,-39 191.06,-39 199.83,-39"/>
<polygon fill="grey" stroke="grey" stroke-width="2" points="199.98,-42.5 209.98,-39 199.98,-35.5 199.98,-42.5"/>
</g>
<!-- split -->
<g id="node5" class="node">
<title>split</title>
<path fill="none" stroke="#566bd8" stroke-width="2" d="M360,-57C360,-57 330,-57 330,-57 324,-57 318,-51 318,-45 318,-45 318,-33 318,-33 318,-27 324,-21 330,-21 330,-21 360,-21 360,-21 366,-21 372,-27 372,-33 372,-33 372,-45 372,-45 372,-51 366,-57 360,-57"/>
<text text-anchor="middle" x="345" y="-36.5" font-family="sans" font-size="10.00">split</text>
</g>
<!-- bwa&#45;&gt;split -->
<g id="edge4" class="edge">
<title>bwa&#45;&gt;split</title>
<path fill="none" stroke="grey" stroke-width="2" d="M282.02,-39C290.34,-39 299.23,-39 307.61,-39"/>
<polygon fill="grey" stroke="grey" stroke-width="2" points="307.86,-42.5 317.86,-39 307.86,-35.5 307.86,-42.5"/>
</g>
<!-- filter -->
<g id="node6" class="node">
<title>filter</title>
<path fill="none" stroke="#566bd8" stroke-width="2" d="M450,-57C450,-57 420,-57 420,-57 414,-57 408,-51 408,-45 408,-45 408,-33 408,-33 408,-27 414,-21 420,-21 420,-21 450,-21 450,-21 456,-21 462,-27 462,-33 462,-33 462,-45 462,-45 462,-51 456,-57 450,-57"/>
<text text-anchor="middle" x="435" y="-36.5" font-family="sans" font-size="10.00">filter</text>
</g>
<!-- split&#45;&gt;filter -->
<g id="edge5" class="edge">
<title>split&#45;&gt;filter</title>
<path fill="none" stroke="grey" stroke-width="2" d="M372.4,-39C380.39,-39 389.31,-39 397.82,-39"/>
<polygon fill="grey" stroke="grey" stroke-width="2" points="397.92,-42.5 407.92,-39 397.92,-35.5 397.92,-42.5"/>
</g>
<!-- mpileup -->
<g id="node7" class="node">
<title>mpileup</title>
<path fill="none" stroke="#566bd8" stroke-width="2" d="M542,-57C542,-57 510,-57 510,-57 504,-57 498,-51 498,-45 498,-45 498,-33 498,-33 498,-27 504,-21 510,-21 510,-21 542,-21 542,-21 548,-21 554,-27 554,-33 554,-33 554,-45 554,-45 554,-51 548,-57 542,-57"/>
<text text-anchor="middle" x="526" y="-36.5" font-family="sans" font-size="10.00">mpileup</text>
</g>
<!-- filter&#45;&gt;mpileup -->
<g id="edge6" class="edge">
<title>filter&#45;&gt;mpileup</title>
<path fill="none" stroke="grey" stroke-width="2" d="M462.22,-39C470.17,-39 479.06,-39 487.59,-39"/>
<polygon fill="grey" stroke="grey" stroke-width="2" points="487.73,-42.5 497.73,-39 487.73,-35.5 487.73,-42.5"/>
</g>
<!-- filter_indels -->
<g id="node8" class="node">
<title>filter_indels</title>
<path fill="none" stroke="#d86656" stroke-width="2" d="M632,-131C632,-131 602,-131 602,-131 596,-131 590,-125 590,-119 590,-119 590,-107 590,-107 590,-101 596,-95 602,-95 602,-95 632,-95 632,-95 638,-95 644,-101 644,-107 644,-107 644,-119 644,-119 644,-125 638,-131 632,-131"/>
<text text-anchor="middle" x="617" y="-116" font-family="sans" font-size="10.00">filter</text>
<text text-anchor="middle" x="617" y="-105" font-family="sans" font-size="10.00">indels</text>
</g>
<!-- mpileup&#45;&gt;filter_indels -->
<g id="edge7" class="edge">
<title>mpileup&#45;&gt;filter_indels</title>
<path fill="none" stroke="grey" stroke-width="2" d="M544.95,-57.38C554.91,-67.2 567.73,-79.23 580,-89 580.48,-89.38 580.96,-89.76 581.45,-90.14"/>
<polygon fill="grey" stroke="grey" stroke-width="2" points="579.55,-93.09 589.68,-96.2 583.7,-87.45 579.55,-93.09"/>
</g>
<!-- join_populations -->
<g id="node14" class="node">
<title>join_populations</title>
<path fill="none" stroke="#d86656" stroke-width="2" d="M632,-56C632,-56 602,-56 602,-56 596,-56 590,-50 590,-44 590,-44 590,-32 590,-32 590,-26 596,-20 602,-20 602,-20 632,-20 632,-20 638,-20 644,-26 644,-32 644,-32 644,-44 644,-44 644,-50 638,-56 632,-56"/>
<text text-anchor="middle" x="617" y="-35.5" font-family="sans" font-size="10.00">join</text>
</g>
<!-- mpileup&#45;&gt;join_populations -->
<g id="edge14" class="edge">
<title>mpileup&#45;&gt;join_populations</title>
<path fill="none" stroke="grey" stroke-width="2" d="M554.19,-38.69C562.25,-38.6 571.22,-38.5 579.77,-38.41"/>
<polygon fill="grey" stroke="grey" stroke-width="2" points="579.93,-41.91 589.89,-38.29 579.86,-34.91 579.93,-41.91"/>
</g>
<!-- subsample -->
<g id="node9" class="node">
<title>subsample</title>
<path fill="none" stroke="#88d856" stroke-width="2" d="M738.5,-131C738.5,-131 692.5,-131 692.5,-131 686.5,-131 680.5,-125 680.5,-119 680.5,-119 680.5,-107 680.5,-107 680.5,-101 686.5,-95 692.5,-95 692.5,-95 738.5,-95 738.5,-95 744.5,-95 750.5,-101 750.5,-107 750.5,-107 750.5,-119 750.5,-119 750.5,-125 744.5,-131 738.5,-131"/>
<text text-anchor="middle" x="715.5" y="-110.5" font-family="sans" font-size="10.00">subsample</text>
</g>
<!-- filter_indels&#45;&gt;subsample -->
<g id="edge8" class="edge">
<title>filter_indels&#45;&gt;subsample</title>
<path fill="none" stroke="grey" stroke-width="2" d="M644.11,-113C652.14,-113 661.2,-113 670.1,-113"/>
<polygon fill="grey" stroke="grey" stroke-width="2" points="670.38,-116.5 680.38,-113 670.38,-109.5 670.38,-116.5"/>
</g>
<!-- variance_sliding -->
<g id="node10" class="node">
<title>variance_sliding</title>
<path fill="none" stroke="#88d856" stroke-width="2" d="M834,-131C834,-131 799,-131 799,-131 793,-131 787,-125 787,-119 787,-119 787,-107 787,-107 787,-101 793,-95 799,-95 799,-95 834,-95 834,-95 840,-95 846,-101 846,-107 846,-107 846,-119 846,-119 846,-125 840,-131 834,-131"/>
<text text-anchor="middle" x="816.5" y="-116" font-family="sans" font-size="10.00">variance</text>
<text text-anchor="middle" x="816.5" y="-105" font-family="sans" font-size="10.00">sliding</text>
</g>
<!-- subsample&#45;&gt;variance_sliding -->
<g id="edge9" class="edge">
<title>subsample&#45;&gt;variance_sliding</title>
<path fill="none" stroke="grey" stroke-width="2" d="M750.57,-113C759,-113 768.09,-113 776.73,-113"/>
<polygon fill="grey" stroke="grey" stroke-width="2" points="776.96,-116.5 786.96,-113 776.96,-109.5 776.96,-116.5"/>
</g>
<!-- merge -->
<g id="node11" class="node">
<title>merge</title>
<path fill="none" stroke="#88d856" stroke-width="2" d="M932,-131C932,-131 902,-131 902,-131 896,-131 890,-125 890,-119 890,-119 890,-107 890,-107 890,-101 896,-95 902,-95 902,-95 932,-95 932,-95 938,-95 944,-101 944,-107 944,-107 944,-119 944,-119 944,-125 938,-131 932,-131"/>
<text text-anchor="middle" x="917" y="-110.5" font-family="sans" font-size="10.00">merge</text>
</g>
<!-- variance_sliding&#45;&gt;merge -->
<g id="edge10" class="edge">
<title>variance_sliding&#45;&gt;merge</title>
<path fill="none" stroke="grey" stroke-width="2" d="M846.26,-113C856.67,-113 868.57,-113 879.56,-113"/>
<polygon fill="grey" stroke="grey" stroke-width="2" points="879.73,-116.5 889.73,-113 879.73,-109.5 879.73,-116.5"/>
</g>
<!-- hp -->
<g id="node13" class="node">
<title>hp</title>
<path fill="none" stroke="#88d856" stroke-width="2" d="M932,-185C932,-185 902,-185 902,-185 896,-185 890,-179 890,-173 890,-173 890,-161 890,-161 890,-155 896,-149 902,-149 902,-149 932,-149 932,-149 938,-149 944,-155 944,-161 944,-161 944,-173 944,-173 944,-179 938,-185 932,-185"/>
<text text-anchor="middle" x="917" y="-164.5" font-family="sans" font-size="10.00">hp</text>
</g>
<!-- variance_sliding&#45;&gt;hp -->
<g id="edge12" class="edge">
<title>variance_sliding&#45;&gt;hp</title>
<path fill="none" stroke="grey" stroke-width="2" d="M846.26,-128.76C857.1,-134.71 869.55,-141.54 880.91,-147.76"/>
<polygon fill="grey" stroke="grey" stroke-width="2" points="879.28,-150.86 889.73,-152.6 882.65,-144.72 879.28,-150.86"/>
</g>
<!-- plot -->
<g id="node12" class="node">
<title>plot</title>
<path fill="none" stroke="#88d856" stroke-width="2" d="M1030,-158C1030,-158 1000,-158 1000,-158 994,-158 988,-152 988,-146 988,-146 988,-134 988,-134 988,-128 994,-122 1000,-122 1000,-122 1030,-122 1030,-122 1036,-122 1042,-128 1042,-134 1042,-134 1042,-146 1042,-146 1042,-152 1036,-158 1030,-158"/>
<text text-anchor="middle" x="1015" y="-137.5" font-family="sans" font-size="10.00">plot</text>
</g>
<!-- merge&#45;&gt;plot -->
<g id="edge11" class="edge">
<title>merge&#45;&gt;plot</title>
<path fill="none" stroke="grey" stroke-width="2" d="M944.23,-120.38C954.6,-123.29 966.69,-126.7 977.87,-129.84"/>
<polygon fill="grey" stroke="grey" stroke-width="2" points="977.23,-133.29 987.8,-132.63 979.12,-126.55 977.23,-133.29"/>
</g>
<!-- hp&#45;&gt;plot -->
<g id="edge13" class="edge">
<title>hp&#45;&gt;plot</title>
<path fill="none" stroke="grey" stroke-width="2" d="M944.23,-159.62C954.6,-156.71 966.69,-153.3 977.87,-150.16"/>
<polygon fill="grey" stroke="grey" stroke-width="2" points="979.12,-153.45 987.8,-147.37 977.23,-146.71 979.12,-153.45"/>
</g>
<!-- sync_filter_indels -->
<g id="node15" class="node">
<title>sync_filter_indels</title>
<path fill="none" stroke="#d86656" stroke-width="2" d="M739,-56C739,-56 692,-56 692,-56 686,-56 680,-50 680,-44 680,-44 680,-32 680,-32 680,-26 686,-20 692,-20 692,-20 739,-20 739,-20 745,-20 751,-26 751,-32 751,-32 751,-44 751,-44 751,-50 745,-56 739,-56"/>
<text text-anchor="middle" x="715.5" y="-41" font-family="sans" font-size="10.00">sync</text>
<text text-anchor="middle" x="715.5" y="-30" font-family="sans" font-size="10.00">filter indels</text>
</g>
<!-- join_populations&#45;&gt;sync_filter_indels -->
<g id="edge15" class="edge">
<title>join_populations&#45;&gt;sync_filter_indels</title>
<path fill="none" stroke="grey" stroke-width="2" d="M644.11,-38C651.98,-38 660.84,-38 669.56,-38"/>
<polygon fill="grey" stroke="grey" stroke-width="2" points="669.66,-41.5 679.66,-38 669.66,-34.5 669.66,-41.5"/>
</g>
<!-- sync_convert -->
<g id="node16" class="node">
<title>sync_convert</title>
<path fill="none" stroke="#d86656" stroke-width="2" d="M831.5,-56C831.5,-56 801.5,-56 801.5,-56 795.5,-56 789.5,-50 789.5,-44 789.5,-44 789.5,-32 789.5,-32 789.5,-26 795.5,-20 801.5,-20 801.5,-20 831.5,-20 831.5,-20 837.5,-20 843.5,-26 843.5,-32 843.5,-32 843.5,-44 843.5,-44 843.5,-50 837.5,-56 831.5,-56"/>
<text text-anchor="middle" x="816.5" y="-41" font-family="sans" font-size="10.00">sync</text>
<text text-anchor="middle" x="816.5" y="-30" font-family="sans" font-size="10.00">convert</text>
</g>
<!-- sync_filter_indels&#45;&gt;sync_convert -->
<g id="edge16" class="edge">
<title>sync_filter_indels&#45;&gt;sync_convert</title>
<path fill="none" stroke="grey" stroke-width="2" d="M751.13,-38C760.28,-38 770.19,-38 779.42,-38"/>
<polygon fill="grey" stroke="grey" stroke-width="2" points="779.48,-41.5 789.48,-38 779.48,-34.5 779.48,-41.5"/>
</g>
<!-- sync_subsample -->
<g id="node17" class="node">
<title>sync_subsample</title>
<path fill="none" stroke="#d86656" stroke-width="2" d="M940,-56C940,-56 894,-56 894,-56 888,-56 882,-50 882,-44 882,-44 882,-32 882,-32 882,-26 888,-20 894,-20 894,-20 940,-20 940,-20 946,-20 952,-26 952,-32 952,-32 952,-44 952,-44 952,-50 946,-56 940,-56"/>
<text text-anchor="middle" x="917" y="-41" font-family="sans" font-size="10.00">sync</text>
<text text-anchor="middle" x="917" y="-30" font-family="sans" font-size="10.00">subsample</text>
</g>
<!-- sync_convert&#45;&gt;sync_subsample -->
<g id="edge17" class="edge">
<title>sync_convert&#45;&gt;sync_subsample</title>
<path fill="none" stroke="grey" stroke-width="2" d="M843.64,-38C852.26,-38 862.1,-38 871.7,-38"/>
<polygon fill="grey" stroke="grey" stroke-width="2" points="871.93,-41.5 881.93,-38 871.93,-34.5 871.93,-41.5"/>
</g>
<!-- fst_sliding -->
<g id="node18" class="node">
<title>fst_sliding</title>
<path fill="none" stroke="#d86656" stroke-width="2" d="M1030,-56C1030,-56 1000,-56 1000,-56 994,-56 988,-50 988,-44 988,-44 988,-32 988,-32 988,-26 994,-20 1000,-20 1000,-20 1030,-20 1030,-20 1036,-20 1042,-26 1042,-32 1042,-32 1042,-44 1042,-44 1042,-50 1036,-56 1030,-56"/>
<text text-anchor="middle" x="1015" y="-41" font-family="sans" font-size="10.00">fst</text>
<text text-anchor="middle" x="1015" y="-30" font-family="sans" font-size="10.00">sliding</text>
</g>
<!-- sync_subsample&#45;&gt;fst_sliding -->
<g id="edge18" class="edge">
<title>sync_subsample&#45;&gt;fst_sliding</title>
<path fill="none" stroke="grey" stroke-width="2" d="M952.12,-38C960.38,-38 969.24,-38 977.6,-38"/>
<polygon fill="grey" stroke="grey" stroke-width="2" points="977.84,-41.5 987.84,-38 977.84,-34.5 977.84,-41.5"/>
</g>
<!-- merge_fst_sliding -->
<g id="node19" class="node">
<title>merge_fst_sliding</title>
<path fill="none" stroke="#d86656" stroke-width="2" d="M1120,-56C1120,-56 1090,-56 1090,-56 1084,-56 1078,-50 1078,-44 1078,-44 1078,-32 1078,-32 1078,-26 1084,-20 1090,-20 1090,-20 1120,-20 1120,-20 1126,-20 1132,-26 1132,-32 1132,-32 1132,-44 1132,-44 1132,-50 1126,-56 1120,-56"/>
<text text-anchor="middle" x="1105" y="-41" font-family="sans" font-size="10.00">merge</text>
<text text-anchor="middle" x="1105" y="-30" font-family="sans" font-size="10.00">fsts</text>
</g>
<!-- fst_sliding&#45;&gt;merge_fst_sliding -->
<g id="edge19" class="edge">
<title>fst_sliding&#45;&gt;merge_fst_sliding</title>
<path fill="none" stroke="grey" stroke-width="2" d="M1042.4,-38C1050.39,-38 1059.31,-38 1067.82,-38"/>
<polygon fill="grey" stroke="grey" stroke-width="2" points="1067.92,-41.5 1077.92,-38 1067.92,-34.5 1067.92,-41.5"/>
</g>
<!-- plot_fst -->
<g id="node20" class="node">
<title>plot_fst</title>
<path fill="none" stroke="#d86656" stroke-width="2" d="M1210,-56C1210,-56 1180,-56 1180,-56 1174,-56 1168,-50 1168,-44 1168,-44 1168,-32 1168,-32 1168,-26 1174,-20 1180,-20 1180,-20 1210,-20 1210,-20 1216,-20 1222,-26 1222,-32 1222,-32 1222,-44 1222,-44 1222,-50 1216,-56 1210,-56"/>
<text text-anchor="middle" x="1195" y="-41" font-family="sans" font-size="10.00">plot</text>
<text text-anchor="middle" x="1195" y="-30" font-family="sans" font-size="10.00">fst</text>
</g>
<!-- merge_fst_sliding&#45;&gt;plot_fst -->
<g id="edge20" class="edge">
<title>merge_fst_sliding&#45;&gt;plot_fst</title>
<path fill="none" stroke="grey" stroke-width="2" d="M1132.4,-38C1140.39,-38 1149.31,-38 1157.82,-38"/>
<polygon fill="grey" stroke="grey" stroke-width="2" points="1157.92,-41.5 1167.92,-38 1157.92,-34.5 1157.92,-41.5"/>
</g>
</g>
</svg>
