<?xml version="1.0" encoding="UTF-8" standalone="no"?>
<!DOCTYPE svg PUBLIC "-//W3C//DTD SVG 1.1//EN"
 "http://www.w3.org/Graphics/SVG/1.1/DTD/svg11.dtd">
<!-- Generated by graphviz version 2.38.0 (20140413.2041)
 -->
<!-- Title: snakemake_dag Pages: 1 -->
<svg width="935pt" height="1124pt"
 viewBox="0.00 0.00 934.50 1124.00" xmlns="http://www.w3.org/2000/svg" xmlns:xlink="http://www.w3.org/1999/xlink">
<g id="graph0" class="graph" transform="scale(1 1) rotate(0) translate(4 1120)">
<title>snakemake_dag</title>
<polygon fill="white" stroke="none" points="-4,4 -4,-1120 930.5,-1120 930.5,4 -4,4"/>
<!-- 0 -->
<g id="node1" class="node"><title>0</title>
<path fill="none" stroke="#d86e56" stroke-width="2" d="M345,-36C345,-36 315,-36 315,-36 309,-36 303,-30 303,-24 303,-24 303,-12 303,-12 303,-6 309,-0 315,-0 315,-0 345,-0 345,-0 351,-0 357,-6 357,-12 357,-12 357,-24 357,-24 357,-30 351,-36 345,-36"/>
<text text-anchor="middle" x="330" y="-15.5" font-family="sans" font-size="10.00">all</text>
</g>
<!-- 1 -->
<g id="node2" class="node"><title>1</title>
<path fill="none" stroke="#56b1d8" stroke-width="2" d="M434.5,-108C434.5,-108 377.5,-108 377.5,-108 371.5,-108 365.5,-102 365.5,-96 365.5,-96 365.5,-84 365.5,-84 365.5,-78 371.5,-72 377.5,-72 377.5,-72 434.5,-72 434.5,-72 440.5,-72 446.5,-78 446.5,-84 446.5,-84 446.5,-96 446.5,-96 446.5,-102 440.5,-108 434.5,-108"/>
<text text-anchor="middle" x="406" y="-87.5" font-family="sans" font-size="10.00">tajimapi_plot</text>
</g>
<!-- 1&#45;&gt;0 -->
<g id="edge2" class="edge"><title>1&#45;&gt;0</title>
<path fill="none" stroke="grey" stroke-width="2" d="M387.213,-71.6966C377.826,-63.0503 366.316,-52.4486 356.087,-43.027"/>
<polygon fill="grey" stroke="grey" stroke-width="2" points="358.297,-40.3047 348.57,-36.1043 353.555,-45.4535 358.297,-40.3047"/>
</g>
<!-- 2 -->
<g id="node3" class="node"><title>2</title>
<path fill="none" stroke="#56d88a" stroke-width="2" d="M74,-972C74,-972 12,-972 12,-972 6,-972 0,-966 0,-960 0,-960 0,-948 0,-948 0,-942 6,-936 12,-936 12,-936 74,-936 74,-936 80,-936 86,-942 86,-948 86,-948 86,-960 86,-960 86,-966 80,-972 74,-972"/>
<text text-anchor="middle" x="43" y="-951.5" font-family="sans" font-size="10.00">reports_fastqc</text>
</g>
<!-- 2&#45;&gt;0 -->
<g id="edge11" class="edge"><title>2&#45;&gt;0</title>
<path fill="none" stroke="grey" stroke-width="2" d="M46.2378,-935.582C50.9131,-908.875 59,-856.152 59,-811 59,-811 59,-811 59,-161 59,-117.449 66.2125,-99.479 100,-72 129.254,-48.2077 235.322,-31.2319 292.636,-23.5687"/>
<polygon fill="grey" stroke="grey" stroke-width="2" points="293.28,-27.0144 302.741,-22.2466 292.372,-20.0735 293.28,-27.0144"/>
</g>
<!-- 3 -->
<g id="node4" class="node"><title>3</title>
<path fill="none" stroke="#59d856" stroke-width="2" d="M173,-1044C173,-1044 83,-1044 83,-1044 77,-1044 71,-1038 71,-1032 71,-1032 71,-1020 71,-1020 71,-1014 77,-1008 83,-1008 83,-1008 173,-1008 173,-1008 179,-1008 185,-1014 185,-1020 185,-1020 185,-1032 185,-1032 185,-1038 179,-1044 173,-1044"/>
<text text-anchor="middle" x="128" y="-1023.5" font-family="sans" font-size="10.00">qc_trimmomatic_pe</text>
</g>
<!-- 3&#45;&gt;0 -->
<g id="edge8" class="edge"><title>3&#45;&gt;0</title>
<path fill="none" stroke="grey" stroke-width="2" d="M125.167,-1007.57C121.076,-980.836 114,-928.086 114,-883 114,-883 114,-883 114,-161 114,-76.5773 230.636,-39.5507 292.491,-25.8503"/>
<polygon fill="grey" stroke="grey" stroke-width="2" points="293.585,-29.1965 302.643,-23.702 292.135,-22.3481 293.585,-29.1965"/>
</g>
<!-- 14 -->
<g id="node15" class="node"><title>14</title>
<path fill="none" stroke="#568ad8" stroke-width="2" d="M393.5,-972C393.5,-972 326.5,-972 326.5,-972 320.5,-972 314.5,-966 314.5,-960 314.5,-960 314.5,-948 314.5,-948 314.5,-942 320.5,-936 326.5,-936 326.5,-936 393.5,-936 393.5,-936 399.5,-936 405.5,-942 405.5,-948 405.5,-948 405.5,-960 405.5,-960 405.5,-966 399.5,-972 393.5,-972"/>
<text text-anchor="middle" x="360" y="-951.5" font-family="sans" font-size="10.00">map_bwa_map</text>
</g>
<!-- 3&#45;&gt;14 -->
<g id="edge27" class="edge"><title>3&#45;&gt;14</title>
<path fill="none" stroke="grey" stroke-width="2" d="M184.457,-1007.97C220.869,-996.979 268.02,-982.753 304.285,-971.811"/>
<polygon fill="grey" stroke="grey" stroke-width="2" points="305.644,-975.056 314.207,-968.817 303.622,-968.355 305.644,-975.056"/>
</g>
<!-- 4 -->
<g id="node5" class="node"><title>4</title>
<path fill="none" stroke="#d89556" stroke-width="2" d="M273.5,-828C273.5,-828 154.5,-828 154.5,-828 148.5,-828 142.5,-822 142.5,-816 142.5,-816 142.5,-804 142.5,-804 142.5,-798 148.5,-792 154.5,-792 154.5,-792 273.5,-792 273.5,-792 279.5,-792 285.5,-798 285.5,-804 285.5,-804 285.5,-816 285.5,-816 285.5,-822 279.5,-828 273.5,-828"/>
<text text-anchor="middle" x="214" y="-807.5" font-family="sans" font-size="10.00">reports_samtools_flagstat</text>
</g>
<!-- 4&#45;&gt;0 -->
<g id="edge4" class="edge"><title>4&#45;&gt;0</title>
<path fill="none" stroke="grey" stroke-width="2" d="M201.892,-791.567C195.44,-781.558 187.854,-768.523 183,-756 168.382,-718.287 164,-707.447 164,-667 164,-667 164,-667 164,-161 164,-114.962 182.882,-102.911 217,-72 238.779,-52.2681 269.197,-38.5679 292.989,-30.0466"/>
<polygon fill="grey" stroke="grey" stroke-width="2" points="294.408,-33.2602 302.735,-26.7092 292.14,-26.6377 294.408,-33.2602"/>
</g>
<!-- 5 -->
<g id="node6" class="node"><title>5</title>
<path fill="none" stroke="#56d8a2" stroke-width="2" d="M311.5,-756C311.5,-756 204.5,-756 204.5,-756 198.5,-756 192.5,-750 192.5,-744 192.5,-744 192.5,-732 192.5,-732 192.5,-726 198.5,-720 204.5,-720 204.5,-720 311.5,-720 311.5,-720 317.5,-720 323.5,-726 323.5,-732 323.5,-732 323.5,-744 323.5,-744 323.5,-750 317.5,-756 311.5,-756"/>
<text text-anchor="middle" x="258" y="-735.5" font-family="sans" font-size="10.00">reports_samtools_stats</text>
</g>
<!-- 5&#45;&gt;0 -->
<g id="edge3" class="edge"><title>5&#45;&gt;0</title>
<path fill="none" stroke="grey" stroke-width="2" d="M243.426,-719.911C235.686,-710.01 226.635,-696.968 221,-684 204.881,-646.904 202,-635.447 202,-595 202,-595 202,-595 202,-161 202,-105.692 256.237,-62.2195 294.1,-38.6097"/>
<polygon fill="grey" stroke="grey" stroke-width="2" points="296.107,-41.4865 302.854,-33.3184 292.486,-35.4958 296.107,-41.4865"/>
</g>
<!-- 6 -->
<g id="node7" class="node"><title>6</title>
<path fill="none" stroke="#5673d8" stroke-width="2" d="M846,-108C846,-108 816,-108 816,-108 810,-108 804,-102 804,-96 804,-96 804,-84 804,-84 804,-78 810,-72 816,-72 816,-72 846,-72 846,-72 852,-72 858,-78 858,-84 858,-84 858,-96 858,-96 858,-102 852,-108 846,-108"/>
<text text-anchor="middle" x="831" y="-87.5" font-family="sans" font-size="10.00">fst_plot</text>
</g>
<!-- 6&#45;&gt;0 -->
<g id="edge6" class="edge"><title>6&#45;&gt;0</title>
<path fill="none" stroke="grey" stroke-width="2" d="M803.988,-81.0635C792.377,-77.8795 778.604,-74.4029 766,-72 619.705,-44.1092 442.852,-27.9262 367.224,-21.821"/>
<polygon fill="grey" stroke="grey" stroke-width="2" points="367.485,-18.3308 357.238,-21.0262 366.929,-25.3087 367.485,-18.3308"/>
</g>
<!-- 7 -->
<g id="node8" class="node"><title>7</title>
<path fill="none" stroke="#d8b456" stroke-width="2" d="M364,-684C364,-684 242,-684 242,-684 236,-684 230,-678 230,-672 230,-672 230,-660 230,-660 230,-654 236,-648 242,-648 242,-648 364,-648 364,-648 370,-648 376,-654 376,-660 376,-660 376,-672 376,-672 376,-678 370,-684 364,-684"/>
<text text-anchor="middle" x="303" y="-663.5" font-family="sans" font-size="10.00">reports_samtools_idxstats</text>
</g>
<!-- 7&#45;&gt;0 -->
<g id="edge7" class="edge"><title>7&#45;&gt;0</title>
<path fill="none" stroke="grey" stroke-width="2" d="M300.827,-647.984C297.621,-621.369 292,-568.25 292,-523 292,-523 292,-523 292,-161 292,-119.633 307.235,-73.7216 318.412,-45.6051"/>
<polygon fill="grey" stroke="grey" stroke-width="2" points="321.756,-46.6733 322.31,-36.0929 315.279,-44.0187 321.756,-46.6733"/>
</g>
<!-- 8 -->
<g id="node9" class="node"><title>8</title>
<path fill="none" stroke="#566bd8" stroke-width="2" d="M592,-108C592,-108 506,-108 506,-108 500,-108 494,-102 494,-96 494,-96 494,-84 494,-84 494,-78 500,-72 506,-72 506,-72 592,-72 592,-72 598,-72 604,-78 604,-84 604,-84 604,-96 604,-96 604,-102 598,-108 592,-108"/>
<text text-anchor="middle" x="549" y="-87.5" font-family="sans" font-size="10.00">hp_plot_population</text>
</g>
<!-- 8&#45;&gt;0 -->
<g id="edge9" class="edge"><title>8&#45;&gt;0</title>
<path fill="none" stroke="grey" stroke-width="2" d="M495.707,-71.9656C455.835,-59.2213 402.323,-42.1169 367.034,-30.8372"/>
<polygon fill="grey" stroke="grey" stroke-width="2" points="367.737,-27.3878 357.146,-27.6769 365.606,-34.0554 367.737,-27.3878"/>
</g>
<!-- 9 -->
<g id="node10" class="node"><title>9</title>
<path fill="none" stroke="#56d8d0" stroke-width="2" d="M704,-108C704,-108 650,-108 650,-108 644,-108 638,-102 638,-96 638,-96 638,-84 638,-84 638,-78 644,-72 650,-72 650,-72 704,-72 704,-72 710,-72 716,-78 716,-84 716,-84 716,-96 716,-96 716,-102 710,-108 704,-108"/>
<text text-anchor="middle" x="677" y="-87.5" font-family="sans" font-size="10.00">tajimad_plot</text>
</g>
<!-- 9&#45;&gt;0 -->
<g id="edge10" class="edge"><title>9&#45;&gt;0</title>
<path fill="none" stroke="grey" stroke-width="2" d="M637.852,-78.1071C629.668,-75.969 621.074,-73.8256 613,-72 525.469,-52.2074 421.525,-34.1095 367.237,-25.0637"/>
<polygon fill="grey" stroke="grey" stroke-width="2" points="367.499,-21.5594 357.061,-23.3774 366.355,-28.4652 367.499,-21.5594"/>
</g>
<!-- 10 -->
<g id="node11" class="node"><title>10</title>
<path fill="none" stroke="#d8ac56" stroke-width="2" d="M530,-756C530,-756 488,-756 488,-756 482,-756 476,-750 476,-744 476,-744 476,-732 476,-732 476,-726 482,-720 488,-720 488,-720 530,-720 530,-720 536,-720 542,-726 542,-732 542,-732 542,-744 542,-744 542,-750 536,-756 530,-756"/>
<text text-anchor="middle" x="509" y="-735.5" font-family="sans" font-size="10.00">map_filter</text>
</g>
<!-- 10&#45;&gt;0 -->
<g id="edge5" class="edge"><title>10&#45;&gt;0</title>
<path fill="none" stroke="grey" stroke-width="2" d="M501.682,-719.653C478.319,-663.547 404.892,-481.495 368,-324 353.277,-261.147 357.005,-244.056 349,-180 343.136,-133.079 336.786,-78.401 333.113,-46.357"/>
<polygon fill="grey" stroke="grey" stroke-width="2" points="336.588,-45.9391 331.974,-36.4015 329.633,-46.7344 336.588,-45.9391"/>
</g>
<!-- 32 -->
<g id="node33" class="node"><title>32</title>
<path fill="none" stroke="#d88d56" stroke-width="2" d="M633,-684C633,-684 559,-684 559,-684 553,-684 547,-678 547,-672 547,-672 547,-660 547,-660 547,-654 553,-648 559,-648 559,-648 633,-648 633,-648 639,-648 645,-654 645,-660 645,-660 645,-672 645,-672 645,-678 639,-684 633,-684"/>
<text text-anchor="middle" x="596" y="-663.5" font-family="sans" font-size="10.00">mpileup_convert</text>
</g>
<!-- 10&#45;&gt;32 -->
<g id="edge48" class="edge"><title>10&#45;&gt;32</title>
<path fill="none" stroke="grey" stroke-width="2" d="M530.506,-719.697C541.463,-710.881 554.946,-700.032 566.825,-690.474"/>
<polygon fill="grey" stroke="grey" stroke-width="2" points="569.145,-693.1 574.742,-684.104 564.756,-687.646 569.145,-693.1"/>
</g>
<!-- 11 -->
<g id="node12" class="node"><title>11</title>
<path fill="none" stroke="#d85e56" stroke-width="2" d="M781,-180C781,-180 739,-180 739,-180 733,-180 727,-174 727,-168 727,-168 727,-156 727,-156 727,-150 733,-144 739,-144 739,-144 781,-144 781,-144 787,-144 793,-150 793,-156 793,-156 793,-168 793,-168 793,-174 787,-180 781,-180"/>
<text text-anchor="middle" x="760" y="-159.5" font-family="sans" font-size="10.00">theta_plot</text>
</g>
<!-- 11&#45;&gt;0 -->
<g id="edge1" class="edge"><title>11&#45;&gt;0</title>
<path fill="none" stroke="grey" stroke-width="2" d="M758.377,-143.873C755.456,-123.34 747.346,-89.5136 725,-72 669.856,-28.7816 454.763,-20.7738 367.296,-19.3142"/>
<polygon fill="grey" stroke="grey" stroke-width="2" points="367.332,-15.8145 357.282,-19.1668 367.229,-22.8137 367.332,-15.8145"/>
</g>
<!-- 12 -->
<g id="node13" class="node"><title>12</title>
<path fill="none" stroke="#88d856" stroke-width="2" d="M456,-180C456,-180 370,-180 370,-180 364,-180 358,-174 358,-168 358,-168 358,-156 358,-156 358,-150 364,-144 370,-144 370,-144 456,-144 456,-144 462,-144 468,-150 468,-156 468,-156 468,-168 468,-168 468,-174 462,-180 456,-180"/>
<text text-anchor="middle" x="413" y="-159.5" font-family="sans" font-size="10.00">tajimapi_merge_vs</text>
</g>
<!-- 12&#45;&gt;1 -->
<g id="edge12" class="edge"><title>12&#45;&gt;1</title>
<path fill="none" stroke="grey" stroke-width="2" d="M411.27,-143.697C410.498,-135.983 409.571,-126.712 408.711,-118.112"/>
<polygon fill="grey" stroke="grey" stroke-width="2" points="412.188,-117.706 407.71,-108.104 405.223,-118.403 412.188,-117.706"/>
</g>
<!-- 13 -->
<g id="node14" class="node"><title>13</title>
<path fill="none" stroke="#c6d856" stroke-width="2" d="M151.5,-1116C151.5,-1116 20.5,-1116 20.5,-1116 14.5,-1116 8.5,-1110 8.5,-1104 8.5,-1104 8.5,-1092 8.5,-1092 8.5,-1086 14.5,-1080 20.5,-1080 20.5,-1080 151.5,-1080 151.5,-1080 157.5,-1080 163.5,-1086 163.5,-1092 163.5,-1092 163.5,-1104 163.5,-1104 163.5,-1110 157.5,-1116 151.5,-1116"/>
<text text-anchor="middle" x="86" y="-1095.5" font-family="sans" font-size="10.00">raw_make_links_pe_sample</text>
</g>
<!-- 13&#45;&gt;2 -->
<g id="edge13" class="edge"><title>13&#45;&gt;2</title>
<path fill="none" stroke="grey" stroke-width="2" d="M77.0297,-1079.71C72.0396,-1069.53 66.0396,-1056.28 62,-1044 55.3051,-1023.65 50.3712,-999.879 47.2115,-982.028"/>
<polygon fill="grey" stroke="grey" stroke-width="2" points="50.6367,-981.292 45.5149,-972.017 43.7351,-982.461 50.6367,-981.292"/>
</g>
<!-- 13&#45;&gt;3 -->
<g id="edge14" class="edge"><title>13&#45;&gt;3</title>
<path fill="none" stroke="grey" stroke-width="2" d="M96.382,-1079.7C101.265,-1071.56 107.187,-1061.69 112.579,-1052.7"/>
<polygon fill="grey" stroke="grey" stroke-width="2" points="115.594,-1054.48 117.737,-1044.1 109.591,-1050.88 115.594,-1054.48"/>
</g>
<!-- 14&#45;&gt;4 -->
<g id="edge15" class="edge"><title>14&#45;&gt;4</title>
<path fill="none" stroke="grey" stroke-width="2" d="M339.919,-935.959C328.092,-925.752 312.958,-912.391 300,-900 277.852,-878.821 253.688,-853.616 236.63,-835.444"/>
<polygon fill="grey" stroke="grey" stroke-width="2" points="239.168,-833.034 229.781,-828.12 234.055,-837.814 239.168,-833.034"/>
</g>
<!-- 14&#45;&gt;5 -->
<g id="edge16" class="edge"><title>14&#45;&gt;5</title>
<path fill="none" stroke="grey" stroke-width="2" d="M352.838,-935.826C348.522,-925.458 342.926,-911.978 338,-900 318.287,-852.065 318.474,-837.689 294,-792 289.01,-782.685 282.766,-772.985 276.886,-764.468"/>
<polygon fill="grey" stroke="grey" stroke-width="2" points="279.59,-762.23 270.958,-756.087 273.875,-766.272 279.59,-762.23"/>
</g>
<!-- 14&#45;&gt;7 -->
<g id="edge18" class="edge"><title>14&#45;&gt;7</title>
<path fill="none" stroke="grey" stroke-width="2" d="M360.138,-935.864C359.985,-896.654 356.93,-797.791 332,-720 329.07,-710.856 324.526,-701.474 319.899,-693.194"/>
<polygon fill="grey" stroke="grey" stroke-width="2" points="322.805,-691.231 314.72,-684.385 316.771,-694.779 322.805,-691.231"/>
</g>
<!-- 18 -->
<g id="node19" class="node"><title>18</title>
<path fill="none" stroke="#56d8c1" stroke-width="2" d="M510.5,-828C510.5,-828 469.5,-828 469.5,-828 463.5,-828 457.5,-822 457.5,-816 457.5,-816 457.5,-804 457.5,-804 457.5,-798 463.5,-792 469.5,-792 469.5,-792 510.5,-792 510.5,-792 516.5,-792 522.5,-798 522.5,-804 522.5,-804 522.5,-816 522.5,-816 522.5,-822 516.5,-828 510.5,-828"/>
<text text-anchor="middle" x="490" y="-807.5" font-family="sans" font-size="10.00">map_split</text>
</g>
<!-- 14&#45;&gt;18 -->
<g id="edge32" class="edge"><title>14&#45;&gt;18</title>
<path fill="none" stroke="grey" stroke-width="2" d="M405.578,-938.751C425.705,-930.37 448.124,-917.839 463,-900 477.571,-882.526 484.282,-857.325 487.37,-838.197"/>
<polygon fill="grey" stroke="grey" stroke-width="2" points="490.839,-838.667 488.741,-828.282 483.904,-837.709 490.839,-838.667"/>
</g>
<!-- 26 -->
<g id="node27" class="node"><title>26</title>
<path fill="none" stroke="#bed856" stroke-width="2" d="M442,-900C442,-900 392,-900 392,-900 386,-900 380,-894 380,-888 380,-888 380,-876 380,-876 380,-870 386,-864 392,-864 392,-864 442,-864 442,-864 448,-864 454,-870 454,-876 454,-876 454,-888 454,-888 454,-894 448,-900 442,-900"/>
<text text-anchor="middle" x="417" y="-879.5" font-family="sans" font-size="10.00">index_cram</text>
</g>
<!-- 14&#45;&gt;26 -->
<g id="edge40" class="edge"><title>14&#45;&gt;26</title>
<path fill="none" stroke="grey" stroke-width="2" d="M374.09,-935.697C380.923,-927.305 389.257,-917.07 396.756,-907.861"/>
<polygon fill="grey" stroke="grey" stroke-width="2" points="399.472,-910.069 403.072,-900.104 394.044,-905.649 399.472,-910.069"/>
</g>
<!-- 15 -->
<g id="node16" class="node"><title>15</title>
<path fill="none" stroke="#68d856" stroke-width="2" d="M886,-180C886,-180 824,-180 824,-180 818,-180 812,-174 812,-168 812,-168 812,-156 812,-156 812,-150 818,-144 824,-144 824,-144 886,-144 886,-144 892,-144 898,-150 898,-156 898,-156 898,-168 898,-168 898,-174 892,-180 886,-180"/>
<text text-anchor="middle" x="855" y="-159.5" font-family="sans" font-size="10.00">fst_split_table</text>
</g>
<!-- 15&#45;&gt;6 -->
<g id="edge17" class="edge"><title>15&#45;&gt;6</title>
<path fill="none" stroke="grey" stroke-width="2" d="M849.067,-143.697C846.394,-135.898 843.174,-126.509 840.199,-117.829"/>
<polygon fill="grey" stroke="grey" stroke-width="2" points="843.418,-116.429 836.864,-108.104 836.797,-118.699 843.418,-116.429"/>
</g>
<!-- 16 -->
<g id="node17" class="node"><title>16</title>
<path fill="none" stroke="#56d892" stroke-width="2" d="M659.5,-180C659.5,-180 498.5,-180 498.5,-180 492.5,-180 486.5,-174 486.5,-168 486.5,-168 486.5,-156 486.5,-156 486.5,-150 492.5,-144 498.5,-144 498.5,-144 659.5,-144 659.5,-144 665.5,-144 671.5,-150 671.5,-156 671.5,-156 671.5,-168 671.5,-168 671.5,-174 665.5,-180 659.5,-180"/>
<text text-anchor="middle" x="579" y="-159.5" font-family="sans" font-size="10.00">hp_table_population_chromosome</text>
</g>
<!-- 16&#45;&gt;8 -->
<g id="edge19" class="edge"><title>16&#45;&gt;8</title>
<path fill="none" stroke="grey" stroke-width="2" d="M571.584,-143.697C568.206,-135.813 564.13,-126.304 560.377,-117.546"/>
<polygon fill="grey" stroke="grey" stroke-width="2" points="563.487,-115.917 556.33,-108.104 557.053,-118.675 563.487,-115.917"/>
</g>
<!-- 17 -->
<g id="node18" class="node"><title>17</title>
<path fill="none" stroke="#d87d56" stroke-width="2" d="M680.5,-252C680.5,-252 597.5,-252 597.5,-252 591.5,-252 585.5,-246 585.5,-240 585.5,-240 585.5,-228 585.5,-228 585.5,-222 591.5,-216 597.5,-216 597.5,-216 680.5,-216 680.5,-216 686.5,-216 692.5,-222 692.5,-228 692.5,-228 692.5,-240 692.5,-240 692.5,-246 686.5,-252 680.5,-252"/>
<text text-anchor="middle" x="639" y="-231.5" font-family="sans" font-size="10.00">tajimad_merge_vs</text>
</g>
<!-- 17&#45;&gt;9 -->
<g id="edge20" class="edge"><title>17&#45;&gt;9</title>
<path fill="none" stroke="grey" stroke-width="2" d="M657.169,-215.677C665.885,-206.097 675.412,-193.43 680,-180 686.779,-160.159 685.533,-136.362 682.863,-118.369"/>
<polygon fill="grey" stroke="grey" stroke-width="2" points="686.269,-117.524 681.126,-108.262 679.37,-118.71 686.269,-117.524"/>
</g>
<!-- 18&#45;&gt;10 -->
<g id="edge22" class="edge"><title>18&#45;&gt;10</title>
<path fill="none" stroke="grey" stroke-width="2" d="M494.697,-791.697C496.813,-783.898 499.362,-774.509 501.718,-765.829"/>
<polygon fill="grey" stroke="grey" stroke-width="2" points="505.116,-766.672 504.357,-756.104 498.36,-764.838 505.116,-766.672"/>
</g>
<!-- 19 -->
<g id="node20" class="node"><title>19</title>
<path fill="none" stroke="#d89c56" stroke-width="2" d="M586.5,-1116C586.5,-1116 491.5,-1116 491.5,-1116 485.5,-1116 479.5,-1110 479.5,-1104 479.5,-1104 479.5,-1092 479.5,-1092 479.5,-1086 485.5,-1080 491.5,-1080 491.5,-1080 586.5,-1080 586.5,-1080 592.5,-1080 598.5,-1086 598.5,-1092 598.5,-1092 598.5,-1104 598.5,-1104 598.5,-1110 592.5,-1116 586.5,-1116"/>
<text text-anchor="middle" x="539" y="-1095.5" font-family="sans" font-size="10.00">raw_extract_genome</text>
</g>
<!-- 19&#45;&gt;10 -->
<g id="edge21" class="edge"><title>19&#45;&gt;10</title>
<path fill="none" stroke="grey" stroke-width="2" d="M542.845,-1079.61C548.397,-1052.94 558,-1000.27 558,-955 558,-955 558,-955 558,-881 558,-838.775 538.4,-793.16 523.992,-765.334"/>
<polygon fill="grey" stroke="grey" stroke-width="2" points="526.949,-763.442 519.153,-756.268 520.774,-766.738 526.949,-763.442"/>
</g>
<!-- 19&#45;&gt;14 -->
<g id="edge25" class="edge"><title>19&#45;&gt;14</title>
<path fill="none" stroke="grey" stroke-width="2" d="M479.495,-1090C447.444,-1083.26 409.553,-1070.01 385,-1044 369.29,-1027.36 363.325,-1001.64 361.123,-982.125"/>
<polygon fill="grey" stroke="grey" stroke-width="2" points="364.597,-981.678 360.248,-972.016 357.623,-982.281 364.597,-981.678"/>
</g>
<!-- 19&#45;&gt;18 -->
<g id="edge31" class="edge"><title>19&#45;&gt;18</title>
<path fill="none" stroke="grey" stroke-width="2" d="M536.082,-1079.97C527.896,-1032.19 504.67,-896.623 494.671,-838.266"/>
<polygon fill="grey" stroke="grey" stroke-width="2" points="498.104,-837.572 492.965,-828.306 491.204,-838.754 498.104,-837.572"/>
</g>
<!-- 22 -->
<g id="node23" class="node"><title>22</title>
<path fill="none" stroke="#9fd856" stroke-width="2" d="M478,-1044C478,-1044 406,-1044 406,-1044 400,-1044 394,-1038 394,-1032 394,-1032 394,-1020 394,-1020 394,-1014 400,-1008 406,-1008 406,-1008 478,-1008 478,-1008 484,-1008 490,-1014 490,-1020 490,-1020 490,-1032 490,-1032 490,-1038 484,-1044 478,-1044"/>
<text text-anchor="middle" x="442" y="-1023.5" font-family="sans" font-size="10.00">map_bwa_index</text>
</g>
<!-- 19&#45;&gt;22 -->
<g id="edge36" class="edge"><title>19&#45;&gt;22</title>
<path fill="none" stroke="grey" stroke-width="2" d="M515.022,-1079.7C502.689,-1070.8 487.484,-1059.82 474.147,-1050.2"/>
<polygon fill="grey" stroke="grey" stroke-width="2" points="475.859,-1047.12 465.702,-1044.1 471.763,-1052.79 475.859,-1047.12"/>
</g>
<!-- 19&#45;&gt;32 -->
<g id="edge47" class="edge"><title>19&#45;&gt;32</title>
<path fill="none" stroke="grey" stroke-width="2" d="M550.81,-1079.96C567.506,-1054.16 596,-1003.08 596,-955 596,-955 596,-955 596,-809 596,-768.996 596,-722.653 596,-694.08"/>
<polygon fill="grey" stroke="grey" stroke-width="2" points="599.5,-694.049 596,-684.049 592.5,-694.049 599.5,-694.049"/>
</g>
<!-- 35 -->
<g id="node36" class="node"><title>35</title>
<path fill="none" stroke="#80d856" stroke-width="2" d="M686,-900C686,-900 636,-900 636,-900 630,-900 624,-894 624,-888 624,-888 624,-876 624,-876 624,-870 630,-864 636,-864 636,-864 686,-864 686,-864 692,-864 698,-870 698,-876 698,-876 698,-888 698,-888 698,-894 692,-900 686,-900"/>
<text text-anchor="middle" x="661" y="-879.5" font-family="sans" font-size="10.00">index_fasta</text>
</g>
<!-- 19&#45;&gt;35 -->
<g id="edge52" class="edge"><title>19&#45;&gt;35</title>
<path fill="none" stroke="grey" stroke-width="2" d="M570.2,-1079.83C584.112,-1070.79 599.659,-1058.54 610,-1044 639.286,-1002.82 652.255,-944.114 657.603,-910.147"/>
<polygon fill="grey" stroke="grey" stroke-width="2" points="661.097,-910.442 659.083,-900.041 654.171,-909.428 661.097,-910.442"/>
</g>
<!-- 20 -->
<g id="node21" class="node"><title>20</title>
<path fill="none" stroke="#56c9d8" stroke-width="2" d="M793.5,-252C793.5,-252 722.5,-252 722.5,-252 716.5,-252 710.5,-246 710.5,-240 710.5,-240 710.5,-228 710.5,-228 710.5,-222 716.5,-216 722.5,-216 722.5,-216 793.5,-216 793.5,-216 799.5,-216 805.5,-222 805.5,-228 805.5,-228 805.5,-240 805.5,-240 805.5,-246 799.5,-252 793.5,-252"/>
<text text-anchor="middle" x="758" y="-231.5" font-family="sans" font-size="10.00">theta_merge_vs</text>
</g>
<!-- 20&#45;&gt;11 -->
<g id="edge23" class="edge"><title>20&#45;&gt;11</title>
<path fill="none" stroke="grey" stroke-width="2" d="M758.494,-215.697C758.715,-207.983 758.98,-198.712 759.225,-190.112"/>
<polygon fill="grey" stroke="grey" stroke-width="2" points="762.724,-190.2 759.511,-180.104 755.727,-190 762.724,-190.2"/>
</g>
<!-- 21 -->
<g id="node22" class="node"><title>21</title>
<path fill="none" stroke="#d87556" stroke-width="2" d="M485,-324C485,-324 389,-324 389,-324 383,-324 377,-318 377,-312 377,-312 377,-300 377,-300 377,-294 383,-288 389,-288 389,-288 485,-288 485,-288 491,-288 497,-294 497,-300 497,-300 497,-312 497,-312 497,-318 491,-324 485,-324"/>
<text text-anchor="middle" x="437" y="-303.5" font-family="sans" font-size="10.00">tajimapi_popoolation</text>
</g>
<!-- 21&#45;&gt;12 -->
<g id="edge24" class="edge"><title>21&#45;&gt;12</title>
<path fill="none" stroke="grey" stroke-width="2" d="M434.105,-287.871C430.015,-263.67 422.5,-219.211 417.63,-190.393"/>
<polygon fill="grey" stroke="grey" stroke-width="2" points="421.023,-189.466 415.905,-180.189 414.121,-190.633 421.023,-189.466"/>
</g>
<!-- 22&#45;&gt;14 -->
<g id="edge26" class="edge"><title>22&#45;&gt;14</title>
<path fill="none" stroke="grey" stroke-width="2" d="M421.73,-1007.7C411.502,-998.965 398.939,-988.24 387.822,-978.75"/>
<polygon fill="grey" stroke="grey" stroke-width="2" points="389.915,-975.935 380.037,-972.104 385.37,-981.259 389.915,-975.935"/>
</g>
<!-- 23 -->
<g id="node24" class="node"><title>23</title>
<path fill="none" stroke="#56a2d8" stroke-width="2" d="M878,-252C878,-252 836,-252 836,-252 830,-252 824,-246 824,-240 824,-240 824,-228 824,-228 824,-222 830,-216 836,-216 836,-216 878,-216 878,-216 884,-216 890,-222 890,-228 890,-228 890,-240 890,-240 890,-246 884,-252 878,-252"/>
<text text-anchor="middle" x="857" y="-231.5" font-family="sans" font-size="10.00">fst_merge</text>
</g>
<!-- 23&#45;&gt;15 -->
<g id="edge28" class="edge"><title>23&#45;&gt;15</title>
<path fill="none" stroke="grey" stroke-width="2" d="M856.506,-215.697C856.285,-207.983 856.02,-198.712 855.775,-190.112"/>
<polygon fill="grey" stroke="grey" stroke-width="2" points="859.273,-190 855.489,-180.104 852.276,-190.2 859.273,-190"/>
</g>
<!-- 24 -->
<g id="node25" class="node"><title>24</title>
<path fill="none" stroke="#5692d8" stroke-width="2" d="M555.5,-252C555.5,-252 460.5,-252 460.5,-252 454.5,-252 448.5,-246 448.5,-240 448.5,-240 448.5,-228 448.5,-228 448.5,-222 454.5,-216 460.5,-216 460.5,-216 555.5,-216 555.5,-216 561.5,-216 567.5,-222 567.5,-228 567.5,-228 567.5,-240 567.5,-240 567.5,-246 561.5,-252 555.5,-252"/>
<text text-anchor="middle" x="508" y="-231.5" font-family="sans" font-size="10.00">tajimad_merge_snps</text>
</g>
<!-- 24&#45;&gt;16 -->
<g id="edge29" class="edge"><title>24&#45;&gt;16</title>
<path fill="none" stroke="grey" stroke-width="2" d="M525.551,-215.697C534.234,-207.135 544.863,-196.656 554.348,-187.304"/>
<polygon fill="grey" stroke="grey" stroke-width="2" points="556.988,-189.617 561.651,-180.104 552.073,-184.633 556.988,-189.617"/>
</g>
<!-- 25 -->
<g id="node26" class="node"><title>25</title>
<path fill="none" stroke="#56d873" stroke-width="2" d="M628.5,-324C628.5,-324 535.5,-324 535.5,-324 529.5,-324 523.5,-318 523.5,-312 523.5,-312 523.5,-300 523.5,-300 523.5,-294 529.5,-288 535.5,-288 535.5,-288 628.5,-288 628.5,-288 634.5,-288 640.5,-294 640.5,-300 640.5,-300 640.5,-312 640.5,-312 640.5,-318 634.5,-324 628.5,-324"/>
<text text-anchor="middle" x="582" y="-303.5" font-family="sans" font-size="10.00">tajimad_popoolation</text>
</g>
<!-- 25&#45;&gt;17 -->
<g id="edge30" class="edge"><title>25&#45;&gt;17</title>
<path fill="none" stroke="grey" stroke-width="2" d="M596.09,-287.697C602.923,-279.305 611.257,-269.07 618.756,-259.861"/>
<polygon fill="grey" stroke="grey" stroke-width="2" points="621.472,-262.069 625.072,-252.104 616.044,-257.649 621.472,-262.069"/>
</g>
<!-- 25&#45;&gt;24 -->
<g id="edge38" class="edge"><title>25&#45;&gt;24</title>
<path fill="none" stroke="grey" stroke-width="2" d="M563.708,-287.697C554.567,-279.05 543.36,-268.449 533.4,-259.027"/>
<polygon fill="grey" stroke="grey" stroke-width="2" points="535.752,-256.434 526.082,-252.104 530.941,-261.519 535.752,-256.434"/>
</g>
<!-- 26&#45;&gt;18 -->
<g id="edge33" class="edge"><title>26&#45;&gt;18</title>
<path fill="none" stroke="grey" stroke-width="2" d="M435.045,-863.697C444.062,-855.05 455.118,-844.449 464.943,-835.027"/>
<polygon fill="grey" stroke="grey" stroke-width="2" points="467.367,-837.552 472.163,-828.104 462.522,-832.499 467.367,-837.552"/>
</g>
<!-- 27 -->
<g id="node28" class="node"><title>27</title>
<path fill="none" stroke="#56d8b1" stroke-width="2" d="M755.5,-324C755.5,-324 674.5,-324 674.5,-324 668.5,-324 662.5,-318 662.5,-312 662.5,-312 662.5,-300 662.5,-300 662.5,-294 668.5,-288 674.5,-288 674.5,-288 755.5,-288 755.5,-288 761.5,-288 767.5,-294 767.5,-300 767.5,-300 767.5,-312 767.5,-312 767.5,-318 761.5,-324 755.5,-324"/>
<text text-anchor="middle" x="715" y="-303.5" font-family="sans" font-size="10.00">theta_popoolation</text>
</g>
<!-- 27&#45;&gt;20 -->
<g id="edge34" class="edge"><title>27&#45;&gt;20</title>
<path fill="none" stroke="grey" stroke-width="2" d="M725.629,-287.697C730.628,-279.559 736.691,-269.689 742.212,-260.701"/>
<polygon fill="grey" stroke="grey" stroke-width="2" points="745.241,-262.457 747.493,-252.104 739.277,-258.793 745.241,-262.457"/>
</g>
<!-- 28 -->
<g id="node29" class="node"><title>28</title>
<path fill="none" stroke="#56c1d8" stroke-width="2" d="M659,-396C659,-396 505,-396 505,-396 499,-396 493,-390 493,-384 493,-384 493,-372 493,-372 493,-366 499,-360 505,-360 505,-360 659,-360 659,-360 665,-360 671,-366 671,-372 671,-372 671,-384 671,-384 671,-390 665,-396 659,-396"/>
<text text-anchor="middle" x="582" y="-375.5" font-family="sans" font-size="10.00">mpileup_popoolation_subsample</text>
</g>
<!-- 28&#45;&gt;21 -->
<g id="edge35" class="edge"><title>28&#45;&gt;21</title>
<path fill="none" stroke="grey" stroke-width="2" d="M546.529,-359.876C526.883,-350.392 502.278,-338.513 481.368,-328.419"/>
<polygon fill="grey" stroke="grey" stroke-width="2" points="482.883,-325.264 472.356,-324.068 479.84,-331.568 482.883,-325.264"/>
</g>
<!-- 28&#45;&gt;25 -->
<g id="edge39" class="edge"><title>28&#45;&gt;25</title>
<path fill="none" stroke="grey" stroke-width="2" d="M582,-359.697C582,-351.983 582,-342.712 582,-334.112"/>
<polygon fill="grey" stroke="grey" stroke-width="2" points="585.5,-334.104 582,-324.104 578.5,-334.104 585.5,-334.104"/>
</g>
<!-- 28&#45;&gt;27 -->
<g id="edge41" class="edge"><title>28&#45;&gt;27</title>
<path fill="none" stroke="grey" stroke-width="2" d="M614.535,-359.876C632.247,-350.554 654.353,-338.919 673.316,-328.939"/>
<polygon fill="grey" stroke="grey" stroke-width="2" points="675.12,-331.944 682.339,-324.19 671.86,-325.75 675.12,-331.944"/>
</g>
<!-- 29 -->
<g id="node30" class="node"><title>29</title>
<path fill="none" stroke="#5682d8" stroke-width="2" d="M912,-324C912,-324 800,-324 800,-324 794,-324 788,-318 788,-312 788,-312 788,-300 788,-300 788,-294 794,-288 800,-288 800,-288 912,-288 912,-288 918,-288 924,-294 924,-300 924,-300 924,-312 924,-312 924,-318 918,-324 912,-324"/>
<text text-anchor="middle" x="856" y="-303.5" font-family="sans" font-size="10.00">fst_sliding_chromosome</text>
</g>
<!-- 29&#45;&gt;23 -->
<g id="edge37" class="edge"><title>29&#45;&gt;23</title>
<path fill="none" stroke="grey" stroke-width="2" d="M856.247,-287.697C856.357,-279.983 856.49,-270.712 856.613,-262.112"/>
<polygon fill="grey" stroke="grey" stroke-width="2" points="860.112,-262.153 856.756,-252.104 853.113,-262.053 860.112,-262.153"/>
</g>
<!-- 30 -->
<g id="node31" class="node"><title>30</title>
<path fill="none" stroke="#d8bc56" stroke-width="2" d="M661,-540C661,-540 503,-540 503,-540 497,-540 491,-534 491,-528 491,-528 491,-516 491,-516 491,-510 497,-504 503,-504 503,-504 661,-504 661,-504 667,-504 673,-510 673,-516 673,-516 673,-528 673,-528 673,-534 667,-540 661,-540"/>
<text text-anchor="middle" x="582" y="-519.5" font-family="sans" font-size="10.00">mpileup_popoolation_filter_indels</text>
</g>
<!-- 30&#45;&gt;28 -->
<g id="edge42" class="edge"><title>30&#45;&gt;28</title>
<path fill="none" stroke="grey" stroke-width="2" d="M582,-503.871C582,-479.67 582,-435.211 582,-406.393"/>
<polygon fill="grey" stroke="grey" stroke-width="2" points="585.5,-406.189 582,-396.189 578.5,-406.189 585.5,-406.189"/>
</g>
<!-- 31 -->
<g id="node32" class="node"><title>31</title>
<path fill="none" stroke="#61d856" stroke-width="2" d="M914.5,-396C914.5,-396 771.5,-396 771.5,-396 765.5,-396 759.5,-390 759.5,-384 759.5,-384 759.5,-372 759.5,-372 759.5,-366 765.5,-360 771.5,-360 771.5,-360 914.5,-360 914.5,-360 920.5,-360 926.5,-366 926.5,-372 926.5,-372 926.5,-384 926.5,-384 926.5,-390 920.5,-396 914.5,-396"/>
<text text-anchor="middle" x="843" y="-375.5" font-family="sans" font-size="10.00">sync_subsample_chromosome</text>
</g>
<!-- 31&#45;&gt;29 -->
<g id="edge43" class="edge"><title>31&#45;&gt;29</title>
<path fill="none" stroke="grey" stroke-width="2" d="M846.213,-359.697C847.646,-351.983 849.368,-342.712 850.965,-334.112"/>
<polygon fill="grey" stroke="grey" stroke-width="2" points="854.439,-334.575 852.823,-324.104 847.556,-333.297 854.439,-334.575"/>
</g>
<!-- 32&#45;&gt;30 -->
<g id="edge44" class="edge"><title>32&#45;&gt;30</title>
<path fill="none" stroke="grey" stroke-width="2" d="M546.768,-653.535C524.796,-645.702 500.98,-632.828 488,-612 479.538,-598.421 479.929,-589.815 488,-576 495.752,-562.73 508.188,-552.522 521.51,-544.777"/>
<polygon fill="grey" stroke="grey" stroke-width="2" points="523.193,-547.846 530.352,-540.035 519.885,-541.677 523.193,-547.846"/>
</g>
<!-- 33 -->
<g id="node34" class="node"><title>33</title>
<path fill="none" stroke="#56a9d8" stroke-width="2" d="M682.5,-612C682.5,-612 509.5,-612 509.5,-612 503.5,-612 497.5,-606 497.5,-600 497.5,-600 497.5,-588 497.5,-588 497.5,-582 503.5,-576 509.5,-576 509.5,-576 682.5,-576 682.5,-576 688.5,-576 694.5,-582 694.5,-588 694.5,-588 694.5,-600 694.5,-600 694.5,-606 688.5,-612 682.5,-612"/>
<text text-anchor="middle" x="596" y="-591.5" font-family="sans" font-size="10.00">mpileup_popoolation_identify_indels</text>
</g>
<!-- 32&#45;&gt;33 -->
<g id="edge50" class="edge"><title>32&#45;&gt;33</title>
<path fill="none" stroke="grey" stroke-width="2" d="M596,-647.697C596,-639.983 596,-630.712 596,-622.112"/>
<polygon fill="grey" stroke="grey" stroke-width="2" points="599.5,-622.104 596,-612.104 592.5,-622.104 599.5,-622.104"/>
</g>
<!-- 36 -->
<g id="node37" class="node"><title>36</title>
<path fill="none" stroke="#d8d356" stroke-width="2" d="M847.5,-540C847.5,-540 770.5,-540 770.5,-540 764.5,-540 758.5,-534 758.5,-528 758.5,-528 758.5,-516 758.5,-516 758.5,-510 764.5,-504 770.5,-504 770.5,-504 847.5,-504 847.5,-504 853.5,-504 859.5,-510 859.5,-516 859.5,-516 859.5,-528 859.5,-528 859.5,-534 853.5,-540 847.5,-540"/>
<text text-anchor="middle" x="809" y="-519.5" font-family="sans" font-size="10.00">sync_filter_indels</text>
</g>
<!-- 32&#45;&gt;36 -->
<g id="edge54" class="edge"><title>32&#45;&gt;36</title>
<path fill="none" stroke="grey" stroke-width="2" d="M637.157,-647.958C657.714,-638.628 682.506,-626.101 703,-612 722.433,-598.629 724.07,-591.328 742,-576 753.702,-565.996 766.93,-555.39 778.523,-546.316"/>
<polygon fill="grey" stroke="grey" stroke-width="2" points="780.885,-548.913 786.63,-540.01 776.587,-543.388 780.885,-548.913"/>
</g>
<!-- 37 -->
<g id="node38" class="node"><title>37</title>
<path fill="none" stroke="#d8cb56" stroke-width="2" d="M855,-612C855,-612 763,-612 763,-612 757,-612 751,-606 751,-600 751,-600 751,-588 751,-588 751,-582 757,-576 763,-576 763,-576 855,-576 855,-576 861,-576 867,-582 867,-588 867,-588 867,-600 867,-600 867,-606 861,-612 855,-612"/>
<text text-anchor="middle" x="809" y="-591.5" font-family="sans" font-size="10.00">sync_identify_indels</text>
</g>
<!-- 32&#45;&gt;37 -->
<g id="edge55" class="edge"><title>32&#45;&gt;37</title>
<path fill="none" stroke="grey" stroke-width="2" d="M645.134,-648.853C675.53,-638.863 714.813,-625.954 747.296,-615.278"/>
<polygon fill="grey" stroke="grey" stroke-width="2" points="748.734,-618.49 757.142,-612.043 746.549,-611.84 748.734,-618.49"/>
</g>
<!-- 33&#45;&gt;30 -->
<g id="edge45" class="edge"><title>33&#45;&gt;30</title>
<path fill="none" stroke="grey" stroke-width="2" d="M592.539,-575.697C590.997,-567.983 589.142,-558.712 587.422,-550.112"/>
<polygon fill="grey" stroke="grey" stroke-width="2" points="590.814,-549.224 585.421,-540.104 583.95,-550.597 590.814,-549.224"/>
</g>
<!-- 34 -->
<g id="node35" class="node"><title>34</title>
<path fill="none" stroke="#78d856" stroke-width="2" d="M895,-468C895,-468 737,-468 737,-468 731,-468 725,-462 725,-456 725,-456 725,-444 725,-444 725,-438 731,-432 737,-432 737,-432 895,-432 895,-432 901,-432 907,-438 907,-444 907,-444 907,-456 907,-456 907,-462 901,-468 895,-468"/>
<text text-anchor="middle" x="816" y="-447.5" font-family="sans" font-size="10.00">sync_mpileup2sync_chromosome</text>
</g>
<!-- 34&#45;&gt;31 -->
<g id="edge46" class="edge"><title>34&#45;&gt;31</title>
<path fill="none" stroke="grey" stroke-width="2" d="M822.674,-431.697C825.715,-423.813 829.383,-414.304 832.761,-405.546"/>
<polygon fill="grey" stroke="grey" stroke-width="2" points="836.069,-406.694 836.403,-396.104 829.538,-404.175 836.069,-406.694"/>
</g>
<!-- 35&#45;&gt;32 -->
<g id="edge49" class="edge"><title>35&#45;&gt;32</title>
<path fill="none" stroke="grey" stroke-width="2" d="M655.791,-863.849C644.499,-826.675 617.699,-738.439 604.146,-693.82"/>
<polygon fill="grey" stroke="grey" stroke-width="2" points="607.489,-692.784 601.234,-684.232 600.792,-694.818 607.489,-692.784"/>
</g>
<!-- 36&#45;&gt;34 -->
<g id="edge51" class="edge"><title>36&#45;&gt;34</title>
<path fill="none" stroke="grey" stroke-width="2" d="M810.73,-503.697C811.502,-495.983 812.429,-486.712 813.289,-478.112"/>
<polygon fill="grey" stroke="grey" stroke-width="2" points="816.777,-478.403 814.29,-468.104 809.812,-477.706 816.777,-478.403"/>
</g>
<!-- 37&#45;&gt;36 -->
<g id="edge53" class="edge"><title>37&#45;&gt;36</title>
<path fill="none" stroke="grey" stroke-width="2" d="M809,-575.697C809,-567.983 809,-558.712 809,-550.112"/>
<polygon fill="grey" stroke="grey" stroke-width="2" points="812.5,-550.104 809,-540.104 805.5,-550.104 812.5,-550.104"/>
</g>
</g>
</svg>
