<?xml version="1.0" encoding="UTF-8" standalone="no"?>
<!DOCTYPE svg PUBLIC "-//W3C//DTD SVG 1.1//EN"
 "http://www.w3.org/Graphics/SVG/1.1/DTD/svg11.dtd">
<!-- Generated by graphviz version 2.38.0 (20140413.2041)
 -->
<!-- Title: snakemake_dag Pages: 1 -->
<svg width="773pt" height="980pt"
 viewBox="0.00 0.00 773.00 980.00" xmlns="http://www.w3.org/2000/svg" xmlns:xlink="http://www.w3.org/1999/xlink">
<g id="graph0" class="graph" transform="scale(1 1) rotate(0) translate(4 976)">
<title>snakemake_dag</title>
<polygon fill="white" stroke="none" points="-4,4 -4,-976 769,-976 769,4 -4,4"/>
<!-- 0 -->
<g id="node1" class="node"><title>0</title>
<path fill="none" stroke="#d85656" stroke-width="2" d="M533,-540C533,-540 378,-540 378,-540 372,-540 366,-534 366,-528 366,-528 366,-516 366,-516 366,-510 372,-504 378,-504 378,-504 533,-504 533,-504 539,-504 545,-510 545,-516 545,-516 545,-528 545,-528 545,-534 539,-540 533,-540"/>
<text text-anchor="middle" x="455.5" y="-519.5" font-family="sans" font-size="10.00">mpileup_population_chromosome</text>
</g>
<!-- 7 -->
<g id="node8" class="node"><title>7</title>
<path fill="none" stroke="#68d856" stroke-width="2" d="M443,-396C443,-396 218,-396 218,-396 212,-396 206,-390 206,-384 206,-384 206,-372 206,-372 206,-366 212,-360 218,-360 218,-360 443,-360 443,-360 449,-360 455,-366 455,-372 455,-372 455,-384 455,-384 455,-390 449,-396 443,-396"/>
<text text-anchor="middle" x="330.5" y="-375.5" font-family="sans" font-size="10.00">mpileup_filter_population_chromosome_mpileup</text>
</g>
<!-- 0&#45;&gt;7 -->
<g id="edge9" class="edge"><title>0&#45;&gt;7</title>
<path fill="none" stroke="grey" stroke-width="2" d="M382.317,-503.982C363.786,-496.103 345.919,-484.64 334.5,-468 322.226,-450.114 322.2,-425.112 324.686,-406.16"/>
<polygon fill="grey" stroke="grey" stroke-width="2" points="328.177,-406.499 326.315,-396.069 321.266,-405.384 328.177,-406.499"/>
</g>
<!-- 24 -->
<g id="node25" class="node"><title>24</title>
<path fill="none" stroke="#567bd8" stroke-width="2" d="M555.5,-468C555.5,-468 355.5,-468 355.5,-468 349.5,-468 343.5,-462 343.5,-456 343.5,-456 343.5,-444 343.5,-444 343.5,-438 349.5,-432 355.5,-432 355.5,-432 555.5,-432 555.5,-432 561.5,-432 567.5,-438 567.5,-444 567.5,-444 567.5,-456 567.5,-456 567.5,-462 561.5,-468 555.5,-468"/>
<text text-anchor="middle" x="455.5" y="-447.5" font-family="sans" font-size="10.00">mpileup_filter_population_chromosome_gtf</text>
</g>
<!-- 0&#45;&gt;24 -->
<g id="edge35" class="edge"><title>0&#45;&gt;24</title>
<path fill="none" stroke="grey" stroke-width="2" d="M455.5,-503.697C455.5,-495.983 455.5,-486.712 455.5,-478.112"/>
<polygon fill="grey" stroke="grey" stroke-width="2" points="459,-478.104 455.5,-468.104 452,-478.104 459,-478.104"/>
</g>
<!-- 1 -->
<g id="node2" class="node"><title>1</title>
<path fill="none" stroke="#d88d56" stroke-width="2" d="M730,-324C730,-324 621,-324 621,-324 615,-324 609,-318 609,-312 609,-312 609,-300 609,-300 609,-294 615,-288 621,-288 621,-288 730,-288 730,-288 736,-288 742,-294 742,-300 742,-300 742,-312 742,-312 742,-318 736,-324 730,-324"/>
<text text-anchor="middle" x="675.5" y="-303.5" font-family="sans" font-size="10.00">fst_sliding_chromosome</text>
</g>
<!-- 3 -->
<g id="node4" class="node"><title>3</title>
<path fill="none" stroke="#56d87b" stroke-width="2" d="M680.5,-180C680.5,-180 650.5,-180 650.5,-180 644.5,-180 638.5,-174 638.5,-168 638.5,-168 638.5,-156 638.5,-156 638.5,-150 644.5,-144 650.5,-144 650.5,-144 680.5,-144 680.5,-144 686.5,-144 692.5,-150 692.5,-156 692.5,-156 692.5,-168 692.5,-168 692.5,-174 686.5,-180 680.5,-180"/>
<text text-anchor="middle" x="665.5" y="-159.5" font-family="sans" font-size="10.00">fst_plot</text>
</g>
<!-- 1&#45;&gt;3 -->
<g id="edge6" class="edge"><title>1&#45;&gt;3</title>
<path fill="none" stroke="grey" stroke-width="2" d="M674.294,-287.871C672.589,-263.67 669.459,-219.211 667.429,-190.393"/>
<polygon fill="grey" stroke="grey" stroke-width="2" points="670.904,-189.919 666.711,-180.189 663.922,-190.41 670.904,-189.919"/>
</g>
<!-- 2 -->
<g id="node3" class="node"><title>2</title>
<path fill="none" stroke="#d87556" stroke-width="2" d="M310,-108C310,-108 227,-108 227,-108 221,-108 215,-102 215,-96 215,-96 215,-84 215,-84 215,-78 221,-72 227,-72 227,-72 310,-72 310,-72 316,-72 322,-78 322,-84 322,-84 322,-96 322,-96 322,-102 316,-108 310,-108"/>
<text text-anchor="middle" x="268.5" y="-87.5" font-family="sans" font-size="10.00">hp_plot_population</text>
</g>
<!-- 21 -->
<g id="node22" class="node"><title>21</title>
<path fill="none" stroke="#9fd856" stroke-width="2" d="M420.5,-36C420.5,-36 390.5,-36 390.5,-36 384.5,-36 378.5,-30 378.5,-24 378.5,-24 378.5,-12 378.5,-12 378.5,-6 384.5,-0 390.5,-0 390.5,-0 420.5,-0 420.5,-0 426.5,-0 432.5,-6 432.5,-12 432.5,-12 432.5,-24 432.5,-24 432.5,-30 426.5,-36 420.5,-36"/>
<text text-anchor="middle" x="405.5" y="-15.5" font-family="sans" font-size="10.00">all</text>
</g>
<!-- 2&#45;&gt;21 -->
<g id="edge31" class="edge"><title>2&#45;&gt;21</title>
<path fill="none" stroke="grey" stroke-width="2" d="M302.014,-71.8761C322.348,-61.4865 348.304,-48.2243 369.134,-37.5812"/>
<polygon fill="grey" stroke="grey" stroke-width="2" points="370.993,-40.5619 378.305,-32.8951 367.808,-34.3284 370.993,-40.5619"/>
</g>
<!-- 3&#45;&gt;21 -->
<g id="edge30" class="edge"><title>3&#45;&gt;21</title>
<path fill="none" stroke="grey" stroke-width="2" d="M661.069,-143.817C654.939,-123.553 641.886,-90.3158 618.5,-72 567.009,-31.6733 488.821,-21.5968 442.878,-19.3352"/>
<polygon fill="grey" stroke="grey" stroke-width="2" points="442.886,-15.8329 432.756,-18.9383 442.611,-22.8275 442.886,-15.8329"/>
</g>
<!-- 4 -->
<g id="node5" class="node"><title>4</title>
<path fill="none" stroke="#d89c56" stroke-width="2" d="M363.5,-180C363.5,-180 205.5,-180 205.5,-180 199.5,-180 193.5,-174 193.5,-168 193.5,-168 193.5,-156 193.5,-156 193.5,-150 199.5,-144 205.5,-144 205.5,-144 363.5,-144 363.5,-144 369.5,-144 375.5,-150 375.5,-156 375.5,-156 375.5,-168 375.5,-168 375.5,-174 369.5,-180 363.5,-180"/>
<text text-anchor="middle" x="284.5" y="-159.5" font-family="sans" font-size="10.00">hp_table_population_chromosome</text>
</g>
<!-- 4&#45;&gt;2 -->
<g id="edge5" class="edge"><title>4&#45;&gt;2</title>
<path fill="none" stroke="grey" stroke-width="2" d="M280.545,-143.697C278.782,-135.983 276.663,-126.712 274.697,-118.112"/>
<polygon fill="grey" stroke="grey" stroke-width="2" points="278.05,-117.073 272.41,-108.104 271.226,-118.633 278.05,-117.073"/>
</g>
<!-- 5 -->
<g id="node6" class="node"><title>5</title>
<path fill="none" stroke="#d86656" stroke-width="2" d="M606,-972C606,-972 513,-972 513,-972 507,-972 501,-966 501,-960 501,-960 501,-948 501,-948 501,-942 507,-936 513,-936 513,-936 606,-936 606,-936 612,-936 618,-942 618,-948 618,-948 618,-960 618,-960 618,-966 612,-972 606,-972"/>
<text text-anchor="middle" x="559.5" y="-951.5" font-family="sans" font-size="10.00">raw_extract_genome</text>
</g>
<!-- 5&#45;&gt;0 -->
<g id="edge2" class="edge"><title>5&#45;&gt;0</title>
<path fill="none" stroke="grey" stroke-width="2" d="M500.741,-943.607C469.143,-936.125 431.112,-922.939 403.5,-900 368.602,-871.007 353.5,-856.37 353.5,-811 353.5,-811 353.5,-811 353.5,-665 353.5,-624.553 349.448,-609.235 372.5,-576 381.13,-563.558 393.722,-553.382 406.502,-545.393"/>
<polygon fill="grey" stroke="grey" stroke-width="2" points="408.481,-548.29 415.334,-540.21 404.938,-542.253 408.481,-548.29"/>
</g>
<!-- 8 -->
<g id="node9" class="node"><title>8</title>
<path fill="none" stroke="#d8bc56" stroke-width="2" d="M556.5,-900C556.5,-900 424.5,-900 424.5,-900 418.5,-900 412.5,-894 412.5,-888 412.5,-888 412.5,-876 412.5,-876 412.5,-870 418.5,-864 424.5,-864 424.5,-864 556.5,-864 556.5,-864 562.5,-864 568.5,-870 568.5,-876 568.5,-876 568.5,-888 568.5,-888 568.5,-894 562.5,-900 556.5,-900"/>
<text text-anchor="middle" x="490.5" y="-879.5" font-family="sans" font-size="10.00">map_genome_bowtie2_index</text>
</g>
<!-- 5&#45;&gt;8 -->
<g id="edge11" class="edge"><title>5&#45;&gt;8</title>
<path fill="none" stroke="grey" stroke-width="2" d="M542.444,-935.697C534.005,-927.135 523.675,-916.656 514.457,-907.304"/>
<polygon fill="grey" stroke="grey" stroke-width="2" points="516.873,-904.769 507.36,-900.104 511.887,-909.683 516.873,-904.769"/>
</g>
<!-- 9 -->
<g id="node10" class="node"><title>9</title>
<path fill="none" stroke="#59d856" stroke-width="2" d="M721,-540C721,-540 594,-540 594,-540 588,-540 582,-534 582,-528 582,-528 582,-516 582,-516 582,-510 588,-504 594,-504 594,-504 721,-504 721,-504 727,-504 733,-510 733,-516 733,-516 733,-528 733,-528 733,-534 727,-540 721,-540"/>
<text text-anchor="middle" x="657.5" y="-519.5" font-family="sans" font-size="10.00">sync_mpileup_chromosome</text>
</g>
<!-- 5&#45;&gt;9 -->
<g id="edge13" class="edge"><title>5&#45;&gt;9</title>
<path fill="none" stroke="grey" stroke-width="2" d="M600.904,-935.974C646.216,-914.262 712.5,-872.064 712.5,-811 712.5,-811 712.5,-811 712.5,-665 712.5,-624.458 708.375,-613.305 692.5,-576 688.462,-566.512 682.704,-556.883 677.021,-548.483"/>
<polygon fill="grey" stroke="grey" stroke-width="2" points="679.825,-546.386 671.201,-540.231 674.105,-550.42 679.825,-546.386"/>
</g>
<!-- 19 -->
<g id="node20" class="node"><title>19</title>
<path fill="none" stroke="#56c1d8" stroke-width="2" d="M672,-612C672,-612 601,-612 601,-612 595,-612 589,-606 589,-600 589,-600 589,-588 589,-588 589,-582 595,-576 601,-576 601,-576 672,-576 672,-576 678,-576 684,-582 684,-588 684,-588 684,-600 684,-600 684,-606 678,-612 672,-612"/>
<text text-anchor="middle" x="636.5" y="-591.5" font-family="sans" font-size="10.00">raw_genome_fai</text>
</g>
<!-- 5&#45;&gt;19 -->
<g id="edge25" class="edge"><title>5&#45;&gt;19</title>
<path fill="none" stroke="grey" stroke-width="2" d="M574.133,-935.93C594.387,-910.496 628.5,-860.336 628.5,-811 628.5,-811 628.5,-811 628.5,-737 628.5,-696.933 631.714,-650.606 634.068,-622.054"/>
<polygon fill="grey" stroke="grey" stroke-width="2" points="637.56,-622.292 634.919,-612.032 630.585,-621.7 637.56,-622.292"/>
</g>
<!-- 6 -->
<g id="node7" class="node"><title>6</title>
<path fill="none" stroke="#d8ac56" stroke-width="2" d="M313,-900C313,-900 224,-900 224,-900 218,-900 212,-894 212,-888 212,-888 212,-876 212,-876 212,-870 218,-864 224,-864 224,-864 313,-864 313,-864 319,-864 325,-870 325,-876 325,-876 325,-888 325,-888 325,-894 319,-900 313,-900"/>
<text text-anchor="middle" x="268.5" y="-879.5" font-family="sans" font-size="10.00">qc_trimmomatic_pe</text>
</g>
<!-- 20 -->
<g id="node21" class="node"><title>20</title>
<path fill="none" stroke="#56a9d8" stroke-width="2" d="M510.5,-828C510.5,-828 398.5,-828 398.5,-828 392.5,-828 386.5,-822 386.5,-816 386.5,-816 386.5,-804 386.5,-804 386.5,-798 392.5,-792 398.5,-792 398.5,-792 510.5,-792 510.5,-792 516.5,-792 522.5,-798 522.5,-804 522.5,-804 522.5,-816 522.5,-816 522.5,-822 516.5,-828 510.5,-828"/>
<text text-anchor="middle" x="454.5" y="-807.5" font-family="sans" font-size="10.00">map_population_bowtie2</text>
</g>
<!-- 6&#45;&gt;20 -->
<g id="edge27" class="edge"><title>6&#45;&gt;20</title>
<path fill="none" stroke="grey" stroke-width="2" d="M314.001,-863.876C339.88,-854.137 372.467,-841.872 399.741,-831.608"/>
<polygon fill="grey" stroke="grey" stroke-width="2" points="401.021,-834.866 409.147,-828.068 398.555,-828.315 401.021,-834.866"/>
</g>
<!-- 18 -->
<g id="node19" class="node"><title>18</title>
<path fill="none" stroke="#bed856" stroke-width="2" d="M437,-324C437,-324 224,-324 224,-324 218,-324 212,-318 212,-312 212,-312 212,-300 212,-300 212,-294 218,-288 224,-288 224,-288 437,-288 437,-288 443,-288 449,-294 449,-300 449,-300 449,-312 449,-312 449,-318 443,-324 437,-324"/>
<text text-anchor="middle" x="330.5" y="-303.5" font-family="sans" font-size="10.00">mpileup_subsample_population_chromosome</text>
</g>
<!-- 7&#45;&gt;18 -->
<g id="edge24" class="edge"><title>7&#45;&gt;18</title>
<path fill="none" stroke="grey" stroke-width="2" d="M330.5,-359.697C330.5,-351.983 330.5,-342.712 330.5,-334.112"/>
<polygon fill="grey" stroke="grey" stroke-width="2" points="334,-334.104 330.5,-324.104 327,-334.104 334,-334.104"/>
</g>
<!-- 8&#45;&gt;20 -->
<g id="edge26" class="edge"><title>8&#45;&gt;20</title>
<path fill="none" stroke="grey" stroke-width="2" d="M481.601,-863.697C477.503,-855.728 472.551,-846.1 468.007,-837.264"/>
<polygon fill="grey" stroke="grey" stroke-width="2" points="470.983,-835.396 463.297,-828.104 464.758,-838.598 470.983,-835.396"/>
</g>
<!-- 13 -->
<g id="node14" class="node"><title>13</title>
<path fill="none" stroke="#56d86b" stroke-width="2" d="M753,-468C753,-468 598,-468 598,-468 592,-468 586,-462 586,-456 586,-456 586,-444 586,-444 586,-438 592,-432 598,-432 598,-432 753,-432 753,-432 759,-432 765,-438 765,-444 765,-444 765,-456 765,-456 765,-462 759,-468 753,-468"/>
<text text-anchor="middle" x="675.5" y="-447.5" font-family="sans" font-size="10.00">sync_mpileup2sync_chromosome</text>
</g>
<!-- 9&#45;&gt;13 -->
<g id="edge19" class="edge"><title>9&#45;&gt;13</title>
<path fill="none" stroke="grey" stroke-width="2" d="M661.949,-503.697C663.955,-495.898 666.369,-486.509 668.601,-477.829"/>
<polygon fill="grey" stroke="grey" stroke-width="2" points="672.001,-478.661 671.102,-468.104 665.222,-476.918 672.001,-478.661"/>
</g>
<!-- 10 -->
<g id="node11" class="node"><title>10</title>
<path fill="none" stroke="#56d88a" stroke-width="2" d="M635.5,-252C635.5,-252 463.5,-252 463.5,-252 457.5,-252 451.5,-246 451.5,-240 451.5,-240 451.5,-228 451.5,-228 451.5,-222 457.5,-216 463.5,-216 463.5,-216 635.5,-216 635.5,-216 641.5,-216 647.5,-222 647.5,-228 647.5,-228 647.5,-240 647.5,-240 647.5,-246 641.5,-252 635.5,-252"/>
<text text-anchor="middle" x="549.5" y="-231.5" font-family="sans" font-size="10.00">theta_table_population_chromosome</text>
</g>
<!-- 16 -->
<g id="node17" class="node"><title>16</title>
<path fill="none" stroke="#ced856" stroke-width="2" d="M598,-108C598,-108 501,-108 501,-108 495,-108 489,-102 489,-96 489,-96 489,-84 489,-84 489,-78 495,-72 501,-72 501,-72 598,-72 598,-72 604,-72 610,-78 610,-84 610,-84 610,-96 610,-96 610,-102 604,-108 598,-108"/>
<text text-anchor="middle" x="549.5" y="-87.5" font-family="sans" font-size="10.00">theta_plot_population</text>
</g>
<!-- 10&#45;&gt;16 -->
<g id="edge22" class="edge"><title>10&#45;&gt;16</title>
<path fill="none" stroke="grey" stroke-width="2" d="M549.5,-215.871C549.5,-191.67 549.5,-147.211 549.5,-118.393"/>
<polygon fill="grey" stroke="grey" stroke-width="2" points="553,-118.189 549.5,-108.189 546,-118.189 553,-118.189"/>
</g>
<!-- 11 -->
<g id="node12" class="node"><title>11</title>
<path fill="none" stroke="#56d8a9" stroke-width="2" d="M581.5,-684C581.5,-684 393.5,-684 393.5,-684 387.5,-684 381.5,-678 381.5,-672 381.5,-672 381.5,-660 381.5,-660 381.5,-654 387.5,-648 393.5,-648 393.5,-648 581.5,-648 581.5,-648 587.5,-648 593.5,-654 593.5,-660 593.5,-660 593.5,-672 593.5,-672 593.5,-678 587.5,-684 581.5,-684"/>
<text text-anchor="middle" x="487.5" y="-663.5" font-family="sans" font-size="10.00">map_split_population_chromosome_split</text>
</g>
<!-- 17 -->
<g id="node18" class="node"><title>17</title>
<path fill="none" stroke="#569ad8" stroke-width="2" d="M559,-612C559,-612 394,-612 394,-612 388,-612 382,-606 382,-600 382,-600 382,-588 382,-588 382,-582 388,-576 394,-576 394,-576 559,-576 559,-576 565,-576 571,-582 571,-588 571,-588 571,-600 571,-600 571,-606 565,-612 559,-612"/>
<text text-anchor="middle" x="476.5" y="-591.5" font-family="sans" font-size="10.00">map_filter_population_chromosome</text>
</g>
<!-- 11&#45;&gt;17 -->
<g id="edge23" class="edge"><title>11&#45;&gt;17</title>
<path fill="none" stroke="grey" stroke-width="2" d="M484.781,-647.697C483.569,-639.983 482.112,-630.712 480.761,-622.112"/>
<polygon fill="grey" stroke="grey" stroke-width="2" points="484.198,-621.44 479.188,-612.104 477.283,-622.526 484.198,-621.44"/>
</g>
<!-- 12 -->
<g id="node13" class="node"><title>12</title>
<path fill="none" stroke="#afd856" stroke-width="2" d="M746,-396C746,-396 605,-396 605,-396 599,-396 593,-390 593,-384 593,-384 593,-372 593,-372 593,-366 599,-360 605,-360 605,-360 746,-360 746,-360 752,-360 758,-366 758,-372 758,-372 758,-384 758,-384 758,-390 752,-396 746,-396"/>
<text text-anchor="middle" x="675.5" y="-375.5" font-family="sans" font-size="10.00">sync_subsample_chromosome</text>
</g>
<!-- 12&#45;&gt;1 -->
<g id="edge4" class="edge"><title>12&#45;&gt;1</title>
<path fill="none" stroke="grey" stroke-width="2" d="M675.5,-359.697C675.5,-351.983 675.5,-342.712 675.5,-334.112"/>
<polygon fill="grey" stroke="grey" stroke-width="2" points="679,-334.104 675.5,-324.104 672,-334.104 679,-334.104"/>
</g>
<!-- 13&#45;&gt;12 -->
<g id="edge18" class="edge"><title>13&#45;&gt;12</title>
<path fill="none" stroke="grey" stroke-width="2" d="M675.5,-431.697C675.5,-423.983 675.5,-414.712 675.5,-406.112"/>
<polygon fill="grey" stroke="grey" stroke-width="2" points="679,-406.104 675.5,-396.104 672,-406.104 679,-406.104"/>
</g>
<!-- 14 -->
<g id="node15" class="node"><title>14</title>
<path fill="none" stroke="#d8d356" stroke-width="2" d="M421.5,-252C421.5,-252 239.5,-252 239.5,-252 233.5,-252 227.5,-246 227.5,-240 227.5,-240 227.5,-228 227.5,-228 227.5,-222 233.5,-216 239.5,-216 239.5,-216 421.5,-216 421.5,-216 427.5,-216 433.5,-222 433.5,-228 433.5,-228 433.5,-240 433.5,-240 433.5,-246 427.5,-252 421.5,-252"/>
<text text-anchor="middle" x="330.5" y="-231.5" font-family="sans" font-size="10.00">tajimad_table_population_chromosome</text>
</g>
<!-- 14&#45;&gt;4 -->
<g id="edge7" class="edge"><title>14&#45;&gt;4</title>
<path fill="none" stroke="grey" stroke-width="2" d="M319.129,-215.697C313.782,-207.559 307.296,-197.689 301.389,-188.701"/>
<polygon fill="grey" stroke="grey" stroke-width="2" points="304.157,-186.539 295.74,-180.104 298.307,-190.384 304.157,-186.539"/>
</g>
<!-- 22 -->
<g id="node23" class="node"><title>22</title>
<path fill="none" stroke="#88d856" stroke-width="2" d="M459,-108C459,-108 352,-108 352,-108 346,-108 340,-102 340,-96 340,-96 340,-84 340,-84 340,-78 346,-72 352,-72 352,-72 459,-72 459,-72 465,-72 471,-78 471,-84 471,-84 471,-96 471,-96 471,-102 465,-108 459,-108"/>
<text text-anchor="middle" x="405.5" y="-87.5" font-family="sans" font-size="10.00">tajimad_plot_population</text>
</g>
<!-- 14&#45;&gt;22 -->
<g id="edge33" class="edge"><title>14&#45;&gt;22</title>
<path fill="none" stroke="grey" stroke-width="2" d="M353.202,-215.88C364.205,-206.444 376.696,-193.847 384.5,-180 395.251,-160.924 400.514,-136.568 403.08,-118.159"/>
<polygon fill="grey" stroke="grey" stroke-width="2" points="406.572,-118.441 404.301,-108.092 399.623,-117.598 406.572,-118.441"/>
</g>
<!-- 15 -->
<g id="node16" class="node"><title>15</title>
<path fill="none" stroke="#56d0d8" stroke-width="2" d="M555,-756C555,-756 466,-756 466,-756 460,-756 454,-750 454,-744 454,-744 454,-732 454,-732 454,-726 460,-720 466,-720 466,-720 555,-720 555,-720 561,-720 567,-726 567,-732 567,-732 567,-744 567,-744 567,-750 561,-756 555,-756"/>
<text text-anchor="middle" x="510.5" y="-735.5" font-family="sans" font-size="10.00">map_population_bai</text>
</g>
<!-- 15&#45;&gt;11 -->
<g id="edge16" class="edge"><title>15&#45;&gt;11</title>
<path fill="none" stroke="grey" stroke-width="2" d="M504.815,-719.697C502.252,-711.898 499.167,-702.509 496.315,-693.829"/>
<polygon fill="grey" stroke="grey" stroke-width="2" points="499.567,-692.512 493.12,-684.104 492.916,-694.697 499.567,-692.512"/>
</g>
<!-- 16&#45;&gt;21 -->
<g id="edge32" class="edge"><title>16&#45;&gt;21</title>
<path fill="none" stroke="grey" stroke-width="2" d="M514.274,-71.8761C492.271,-61.1805 464.006,-47.4404 441.803,-36.6474"/>
<polygon fill="grey" stroke="grey" stroke-width="2" points="443.219,-33.444 432.695,-32.2198 440.159,-39.7396 443.219,-33.444"/>
</g>
<!-- 17&#45;&gt;0 -->
<g id="edge3" class="edge"><title>17&#45;&gt;0</title>
<path fill="none" stroke="grey" stroke-width="2" d="M471.309,-575.697C468.969,-567.898 466.153,-558.509 463.549,-549.829"/>
<polygon fill="grey" stroke="grey" stroke-width="2" points="466.857,-548.677 460.631,-540.104 460.152,-550.688 466.857,-548.677"/>
</g>
<!-- 17&#45;&gt;9 -->
<g id="edge14" class="edge"><title>17&#45;&gt;9</title>
<path fill="none" stroke="grey" stroke-width="2" d="M520.778,-575.876C545.851,-566.179 577.396,-553.98 603.865,-543.743"/>
<polygon fill="grey" stroke="grey" stroke-width="2" points="605.302,-546.94 613.366,-540.068 602.777,-540.411 605.302,-546.94"/>
</g>
<!-- 18&#45;&gt;10 -->
<g id="edge15" class="edge"><title>18&#45;&gt;10</title>
<path fill="none" stroke="grey" stroke-width="2" d="M383.793,-287.966C414.659,-278.1 453.698,-265.622 486.131,-255.255"/>
<polygon fill="grey" stroke="grey" stroke-width="2" points="487.508,-258.489 495.968,-252.111 485.377,-251.822 487.508,-258.489"/>
</g>
<!-- 18&#45;&gt;14 -->
<g id="edge20" class="edge"><title>18&#45;&gt;14</title>
<path fill="none" stroke="grey" stroke-width="2" d="M330.5,-287.697C330.5,-279.983 330.5,-270.712 330.5,-262.112"/>
<polygon fill="grey" stroke="grey" stroke-width="2" points="334,-262.104 330.5,-252.104 327,-262.104 334,-262.104"/>
</g>
<!-- 26 -->
<g id="node27" class="node"><title>26</title>
<path fill="none" stroke="#566bd8" stroke-width="2" d="M197,-252C197,-252 12,-252 12,-252 6,-252 0,-246 0,-240 0,-240 0,-228 0,-228 0,-222 6,-216 12,-216 12,-216 197,-216 197,-216 203,-216 209,-222 209,-228 209,-228 209,-240 209,-240 209,-246 203,-252 197,-252"/>
<text text-anchor="middle" x="104.5" y="-231.5" font-family="sans" font-size="10.00">tajimapi_table_population_chromosome</text>
</g>
<!-- 18&#45;&gt;26 -->
<g id="edge36" class="edge"><title>18&#45;&gt;26</title>
<path fill="none" stroke="grey" stroke-width="2" d="M275.503,-287.966C243.514,-278.057 203.016,-265.514 169.462,-255.121"/>
<polygon fill="grey" stroke="grey" stroke-width="2" points="170.331,-251.726 159.743,-252.111 168.26,-258.413 170.331,-251.726"/>
</g>
<!-- 19&#45;&gt;0 -->
<g id="edge1" class="edge"><title>19&#45;&gt;0</title>
<path fill="none" stroke="grey" stroke-width="2" d="M592.222,-575.876C567.149,-566.179 535.604,-553.98 509.135,-543.743"/>
<polygon fill="grey" stroke="grey" stroke-width="2" points="510.223,-540.411 499.634,-540.068 507.698,-546.94 510.223,-540.411"/>
</g>
<!-- 19&#45;&gt;9 -->
<g id="edge12" class="edge"><title>19&#45;&gt;9</title>
<path fill="none" stroke="grey" stroke-width="2" d="M641.691,-575.697C644.031,-567.898 646.847,-558.509 649.451,-549.829"/>
<polygon fill="grey" stroke="grey" stroke-width="2" points="652.848,-550.688 652.369,-540.104 646.143,-548.677 652.848,-550.688"/>
</g>
<!-- 20&#45;&gt;11 -->
<g id="edge17" class="edge"><title>20&#45;&gt;11</title>
<path fill="none" stroke="grey" stroke-width="2" d="M448.146,-791.754C442.399,-773.437 436.029,-743.887 444.5,-720 448.162,-709.675 454.787,-699.896 461.757,-691.614"/>
<polygon fill="grey" stroke="grey" stroke-width="2" points="464.374,-693.938 468.461,-684.163 459.17,-689.256 464.374,-693.938"/>
</g>
<!-- 20&#45;&gt;15 -->
<g id="edge21" class="edge"><title>20&#45;&gt;15</title>
<path fill="none" stroke="grey" stroke-width="2" d="M468.343,-791.697C474.989,-783.389 483.078,-773.277 490.387,-764.141"/>
<polygon fill="grey" stroke="grey" stroke-width="2" points="493.303,-766.099 496.817,-756.104 487.836,-761.727 493.303,-766.099"/>
</g>
<!-- 22&#45;&gt;21 -->
<g id="edge28" class="edge"><title>22&#45;&gt;21</title>
<path fill="none" stroke="grey" stroke-width="2" d="M405.5,-71.6966C405.5,-63.9827 405.5,-54.7125 405.5,-46.1124"/>
<polygon fill="grey" stroke="grey" stroke-width="2" points="409,-46.1043 405.5,-36.1043 402,-46.1044 409,-46.1043"/>
</g>
<!-- 23 -->
<g id="node24" class="node"><title>23</title>
<path fill="none" stroke="#78d856" stroke-width="2" d="M160.5,-180C160.5,-180 50.5,-180 50.5,-180 44.5,-180 38.5,-174 38.5,-168 38.5,-168 38.5,-156 38.5,-156 38.5,-150 44.5,-144 50.5,-144 50.5,-144 160.5,-144 160.5,-144 166.5,-144 172.5,-150 172.5,-156 172.5,-156 172.5,-168 172.5,-168 172.5,-174 166.5,-180 160.5,-180"/>
<text text-anchor="middle" x="105.5" y="-159.5" font-family="sans" font-size="10.00">tajimapi_plot_population</text>
</g>
<!-- 23&#45;&gt;21 -->
<g id="edge29" class="edge"><title>23&#45;&gt;21</title>
<path fill="none" stroke="grey" stroke-width="2" d="M119.991,-143.949C138.019,-123.814 170.698,-90.7043 205.5,-72 258.149,-43.7038 326.854,-29.8002 368.498,-23.534"/>
<polygon fill="grey" stroke="grey" stroke-width="2" points="369.075,-26.9871 378.476,-22.1013 368.08,-20.0581 369.075,-26.9871"/>
</g>
<!-- 24&#45;&gt;7 -->
<g id="edge10" class="edge"><title>24&#45;&gt;7</title>
<path fill="none" stroke="grey" stroke-width="2" d="M424.922,-431.876C408.426,-422.639 387.876,-411.131 370.164,-401.212"/>
<polygon fill="grey" stroke="grey" stroke-width="2" points="371.631,-398.022 361.196,-396.19 368.211,-404.13 371.631,-398.022"/>
</g>
<!-- 25 -->
<g id="node26" class="node"><title>25</title>
<path fill="none" stroke="#56d89a" stroke-width="2" d="M331,-972C331,-972 206,-972 206,-972 200,-972 194,-966 194,-960 194,-960 194,-948 194,-948 194,-942 200,-936 206,-936 206,-936 331,-936 331,-936 337,-936 343,-942 343,-948 343,-948 343,-960 343,-960 343,-966 337,-972 331,-972"/>
<text text-anchor="middle" x="268.5" y="-951.5" font-family="sans" font-size="10.00">raw_make_links_pe_sample</text>
</g>
<!-- 25&#45;&gt;6 -->
<g id="edge8" class="edge"><title>25&#45;&gt;6</title>
<path fill="none" stroke="grey" stroke-width="2" d="M268.5,-935.697C268.5,-927.983 268.5,-918.712 268.5,-910.112"/>
<polygon fill="grey" stroke="grey" stroke-width="2" points="272,-910.104 268.5,-900.104 265,-910.104 272,-910.104"/>
</g>
<!-- 26&#45;&gt;23 -->
<g id="edge34" class="edge"><title>26&#45;&gt;23</title>
<path fill="none" stroke="grey" stroke-width="2" d="M104.747,-215.697C104.857,-207.983 104.99,-198.712 105.113,-190.112"/>
<polygon fill="grey" stroke="grey" stroke-width="2" points="108.612,-190.153 105.256,-180.104 101.613,-190.053 108.612,-190.153"/>
</g>
</g>
</svg>
