<?xml version="1.0" encoding="UTF-8" standalone="no"?>
<!DOCTYPE svg PUBLIC "-//W3C//DTD SVG 1.1//EN"
 "http://www.w3.org/Graphics/SVG/1.1/DTD/svg11.dtd">
<!-- Generated by graphviz version 2.38.0 (20140413.2041)
 -->
<!-- Title: snakemake_dag Pages: 1 -->
<svg width="819pt" height="980pt"
 viewBox="0.00 0.00 819.00 980.00" xmlns="http://www.w3.org/2000/svg" xmlns:xlink="http://www.w3.org/1999/xlink">
<g id="graph0" class="graph" transform="scale(1 1) rotate(0) translate(4 976)">
<title>snakemake_dag</title>
<polygon fill="white" stroke="none" points="-4,4 -4,-976 814.999,-976 814.999,4 -4,4"/>
<!-- 0 -->
<g id="node1" class="node"><title>0</title>
<path fill="none" stroke="#d85656" stroke-width="2" d="M617.989,-324C617.989,-324 441.148,-324 441.148,-324 435.148,-324 429.148,-318 429.148,-312 429.148,-312 429.148,-300 429.148,-300 429.148,-294 435.148,-288 441.148,-288 441.148,-288 617.989,-288 617.989,-288 623.989,-288 629.989,-294 629.989,-300 629.989,-300 629.989,-312 629.989,-312 629.989,-318 623.989,-324 617.989,-324"/>
<text text-anchor="middle" x="529.569" y="-303" font-family="sans" font-size="10.00">mpileup_subsample_population_chromosome</text>
</g>
<!-- 9 -->
<g id="node10" class="node"><title>9</title>
<path fill="none" stroke="#d8b456" stroke-width="2" d="M410.871,-252C410.871,-252 270.266,-252 270.266,-252 264.266,-252 258.266,-246 258.266,-240 258.266,-240 258.266,-228 258.266,-228 258.266,-222 264.266,-216 270.266,-216 270.266,-216 410.871,-216 410.871,-216 416.871,-216 422.871,-222 422.871,-228 422.871,-228 422.871,-240 422.871,-240 422.871,-246 416.871,-252 410.871,-252"/>
<text text-anchor="middle" x="340.569" y="-231" font-family="sans" font-size="10.00">theta_table_population_chromosome</text>
</g>
<!-- 0&#45;&gt;9 -->
<g id="edge14" class="edge"><title>0&#45;&gt;9</title>
<path fill="none" stroke="grey" stroke-width="2" d="M483.334,-287.876C457.037,-278.137 423.924,-265.872 396.21,-255.608"/>
<polygon fill="grey" stroke="grey" stroke-width="2" points="397.246,-252.259 386.653,-252.068 394.815,-258.824 397.246,-252.259"/>
</g>
<!-- 12 -->
<g id="node13" class="node"><title>12</title>
<path fill="none" stroke="#56d8a9" stroke-width="2" d="M606.208,-252C606.208,-252 452.929,-252 452.929,-252 446.929,-252 440.929,-246 440.929,-240 440.929,-240 440.929,-228 440.929,-228 440.929,-222 446.929,-216 452.929,-216 452.929,-216 606.208,-216 606.208,-216 612.208,-216 618.208,-222 618.208,-228 618.208,-228 618.208,-240 618.208,-240 618.208,-246 612.208,-252 606.208,-252"/>
<text text-anchor="middle" x="529.569" y="-231" font-family="sans" font-size="10.00">tajimapi_table_population_chromosome</text>
</g>
<!-- 0&#45;&gt;12 -->
<g id="edge17" class="edge"><title>0&#45;&gt;12</title>
<path fill="none" stroke="grey" stroke-width="2" d="M529.569,-287.697C529.569,-279.983 529.569,-270.712 529.569,-262.112"/>
<polygon fill="grey" stroke="grey" stroke-width="2" points="533.069,-262.104 529.569,-252.104 526.069,-262.104 533.069,-262.104"/>
</g>
<!-- 21 -->
<g id="node22" class="node"><title>21</title>
<path fill="none" stroke="#5692d8" stroke-width="2" d="M798.929,-252C798.929,-252 648.208,-252 648.208,-252 642.208,-252 636.208,-246 636.208,-240 636.208,-240 636.208,-228 636.208,-228 636.208,-222 642.208,-216 648.208,-216 648.208,-216 798.929,-216 798.929,-216 804.929,-216 810.929,-222 810.929,-228 810.929,-228 810.929,-240 810.929,-240 810.929,-246 804.929,-252 798.929,-252"/>
<text text-anchor="middle" x="723.569" y="-231" font-family="sans" font-size="10.00">tajimad_table_population_chromosome</text>
</g>
<!-- 0&#45;&gt;21 -->
<g id="edge34" class="edge"><title>0&#45;&gt;21</title>
<path fill="none" stroke="grey" stroke-width="2" d="M577.026,-287.876C604.137,-278.094 638.305,-265.765 666.827,-255.474"/>
<polygon fill="grey" stroke="grey" stroke-width="2" points="668.046,-258.755 676.265,-252.068 665.671,-252.17 668.046,-258.755"/>
</g>
<!-- 1 -->
<g id="node2" class="node"><title>1</title>
<path fill="none" stroke="#d86656" stroke-width="2" d="M332.651,-612C332.651,-612 194.486,-612 194.486,-612 188.486,-612 182.486,-606 182.486,-600 182.486,-600 182.486,-588 182.486,-588 182.486,-582 188.486,-576 194.486,-576 194.486,-576 332.651,-576 332.651,-576 338.651,-576 344.651,-582 344.651,-588 344.651,-588 344.651,-600 344.651,-600 344.651,-606 338.651,-612 332.651,-612"/>
<text text-anchor="middle" x="263.569" y="-591" font-family="sans" font-size="10.00">map_filter_population_chromosome</text>
</g>
<!-- 14 -->
<g id="node15" class="node"><title>14</title>
<path fill="none" stroke="#afd856" stroke-width="2" d="M298.827,-540C298.827,-540 194.31,-540 194.31,-540 188.31,-540 182.31,-534 182.31,-528 182.31,-528 182.31,-516 182.31,-516 182.31,-510 188.31,-504 194.31,-504 194.31,-504 298.827,-504 298.827,-504 304.827,-504 310.827,-510 310.827,-516 310.827,-516 310.827,-528 310.827,-528 310.827,-534 304.827,-540 298.827,-540"/>
<text text-anchor="middle" x="246.569" y="-519" font-family="sans" font-size="10.00">sync_mpileup_chromosome</text>
</g>
<!-- 1&#45;&gt;14 -->
<g id="edge19" class="edge"><title>1&#45;&gt;14</title>
<path fill="none" stroke="grey" stroke-width="2" d="M259.366,-575.697C257.472,-567.898 255.192,-558.509 253.084,-549.829"/>
<polygon fill="grey" stroke="grey" stroke-width="2" points="256.484,-548.996 250.722,-540.104 249.681,-550.648 256.484,-548.996"/>
</g>
<!-- 15 -->
<g id="node16" class="node"><title>15</title>
<path fill="none" stroke="#bed856" stroke-width="2" d="M486.275,-540C486.275,-540 356.862,-540 356.862,-540 350.862,-540 344.862,-534 344.862,-528 344.862,-528 344.862,-516 344.862,-516 344.862,-510 350.862,-504 356.862,-504 356.862,-504 486.275,-504 486.275,-504 492.275,-504 498.275,-510 498.275,-516 498.275,-516 498.275,-528 498.275,-528 498.275,-534 492.275,-540 486.275,-540"/>
<text text-anchor="middle" x="421.569" y="-519" font-family="sans" font-size="10.00">mpileup_population_chromosome</text>
</g>
<!-- 1&#45;&gt;15 -->
<g id="edge22" class="edge"><title>1&#45;&gt;15</title>
<path fill="none" stroke="grey" stroke-width="2" d="M302.22,-575.876C323.819,-566.307 350.92,-554.3 373.835,-544.148"/>
<polygon fill="grey" stroke="grey" stroke-width="2" points="375.318,-547.319 383.043,-540.068 372.482,-540.919 375.318,-547.319"/>
</g>
<!-- 2 -->
<g id="node3" class="node"><title>2</title>
<path fill="none" stroke="#d87556" stroke-width="2" d="M131.424,-972C131.424,-972 25.7134,-972 25.7134,-972 19.7134,-972 13.7134,-966 13.7134,-960 13.7134,-960 13.7134,-948 13.7134,-948 13.7134,-942 19.7134,-936 25.7134,-936 25.7134,-936 131.424,-936 131.424,-936 137.424,-936 143.424,-942 143.424,-948 143.424,-948 143.424,-960 143.424,-960 143.424,-966 137.424,-972 131.424,-972"/>
<text text-anchor="middle" x="78.5685" y="-951" font-family="sans" font-size="10.00">raw_make_links_pe_sample</text>
</g>
<!-- 20 -->
<g id="node21" class="node"><title>20</title>
<path fill="none" stroke="#56a2d8" stroke-width="2" d="M114.608,-900C114.608,-900 42.5294,-900 42.5294,-900 36.5294,-900 30.5294,-894 30.5294,-888 30.5294,-888 30.5294,-876 30.5294,-876 30.5294,-870 36.5294,-864 42.5294,-864 42.5294,-864 114.608,-864 114.608,-864 120.608,-864 126.608,-870 126.608,-876 126.608,-876 126.608,-888 126.608,-888 126.608,-894 120.608,-900 114.608,-900"/>
<text text-anchor="middle" x="78.5685" y="-879" font-family="sans" font-size="10.00">qc_trimmomatic_pe</text>
</g>
<!-- 2&#45;&gt;20 -->
<g id="edge33" class="edge"><title>2&#45;&gt;20</title>
<path fill="none" stroke="grey" stroke-width="2" d="M78.5685,-935.697C78.5685,-927.983 78.5685,-918.712 78.5685,-910.112"/>
<polygon fill="grey" stroke="grey" stroke-width="2" points="82.0686,-910.104 78.5685,-900.104 75.0686,-910.104 82.0686,-910.104"/>
</g>
<!-- 3 -->
<g id="node4" class="node"><title>3</title>
<path fill="none" stroke="#56d87b" stroke-width="2" d="M252.569,-108C252.569,-108 222.569,-108 222.569,-108 216.569,-108 210.569,-102 210.569,-96 210.569,-96 210.569,-84 210.569,-84 210.569,-78 216.569,-72 222.569,-72 222.569,-72 252.569,-72 252.569,-72 258.569,-72 264.569,-78 264.569,-84 264.569,-84 264.569,-96 264.569,-96 264.569,-102 258.569,-108 252.569,-108"/>
<text text-anchor="middle" x="237.569" y="-87" font-family="sans" font-size="10.00">fst_plot</text>
</g>
<!-- 16 -->
<g id="node17" class="node"><title>16</title>
<path fill="none" stroke="#56d0d8" stroke-width="2" d="M442.569,-36C442.569,-36 412.569,-36 412.569,-36 406.569,-36 400.569,-30 400.569,-24 400.569,-24 400.569,-12 400.569,-12 400.569,-6 406.569,-0 412.569,-0 412.569,-0 442.569,-0 442.569,-0 448.569,-0 454.569,-6 454.569,-12 454.569,-12 454.569,-24 454.569,-24 454.569,-30 448.569,-36 442.569,-36"/>
<text text-anchor="middle" x="427.569" y="-15" font-family="sans" font-size="10.00">all</text>
</g>
<!-- 3&#45;&gt;16 -->
<g id="edge29" class="edge"><title>3&#45;&gt;16</title>
<path fill="none" stroke="grey" stroke-width="2" d="M264.809,-78.9261C270.977,-76.6469 277.498,-74.239 283.569,-72 320.012,-58.5594 361.656,-43.2359 390.754,-32.5347"/>
<polygon fill="grey" stroke="grey" stroke-width="2" points="392.316,-35.6893 400.494,-28.9529 389.9,-29.1194 392.316,-35.6893"/>
</g>
<!-- 4 -->
<g id="node5" class="node"><title>4</title>
<path fill="none" stroke="#56d88a" stroke-width="2" d="M258.779,-828C258.779,-828 164.358,-828 164.358,-828 158.358,-828 152.358,-822 152.358,-816 152.358,-816 152.358,-804 152.358,-804 152.358,-798 158.358,-792 164.358,-792 164.358,-792 258.779,-792 258.779,-792 264.779,-792 270.779,-798 270.779,-804 270.779,-804 270.779,-816 270.779,-816 270.779,-822 264.779,-828 258.779,-828"/>
<text text-anchor="middle" x="211.569" y="-807" font-family="sans" font-size="10.00">map_population_bowtie2</text>
</g>
<!-- 5 -->
<g id="node6" class="node"><title>5</title>
<path fill="none" stroke="#80d856" stroke-width="2" d="M342.669,-684C342.669,-684 184.468,-684 184.468,-684 178.468,-684 172.468,-678 172.468,-672 172.468,-672 172.468,-660 172.468,-660 172.468,-654 178.468,-648 184.468,-648 184.468,-648 342.669,-648 342.669,-648 348.669,-648 354.669,-654 354.669,-660 354.669,-660 354.669,-672 354.669,-672 354.669,-678 348.669,-684 342.669,-684"/>
<text text-anchor="middle" x="263.569" y="-663" font-family="sans" font-size="10.00">map_split_population_chromosome_split</text>
</g>
<!-- 4&#45;&gt;5 -->
<g id="edge10" class="edge"><title>4&#45;&gt;5</title>
<path fill="none" stroke="grey" stroke-width="2" d="M226.734,-791.531C234.456,-781.717 243.301,-768.88 248.569,-756 256.662,-736.21 260.389,-712.231 262.105,-694.151"/>
<polygon fill="grey" stroke="grey" stroke-width="2" points="265.608,-694.253 262.918,-684.006 258.631,-693.694 265.608,-694.253"/>
</g>
<!-- 7 -->
<g id="node8" class="node"><title>7</title>
<path fill="none" stroke="#ced856" stroke-width="2" d="M227.273,-756C227.273,-756 187.864,-756 187.864,-756 181.864,-756 175.864,-750 175.864,-744 175.864,-744 175.864,-732 175.864,-732 175.864,-726 181.864,-720 187.864,-720 187.864,-720 227.273,-720 227.273,-720 233.273,-720 239.273,-726 239.273,-732 239.273,-732 239.273,-744 239.273,-744 239.273,-750 233.273,-756 227.273,-756"/>
<text text-anchor="middle" x="207.569" y="-735" font-family="sans" font-size="10.00">index_cram</text>
</g>
<!-- 4&#45;&gt;7 -->
<g id="edge12" class="edge"><title>4&#45;&gt;7</title>
<path fill="none" stroke="grey" stroke-width="2" d="M210.58,-791.697C210.139,-783.983 209.609,-774.712 209.118,-766.112"/>
<polygon fill="grey" stroke="grey" stroke-width="2" points="212.611,-765.888 208.546,-756.104 205.622,-766.288 212.611,-765.888"/>
</g>
<!-- 5&#45;&gt;1 -->
<g id="edge3" class="edge"><title>5&#45;&gt;1</title>
<path fill="none" stroke="grey" stroke-width="2" d="M263.569,-647.697C263.569,-639.983 263.569,-630.712 263.569,-622.112"/>
<polygon fill="grey" stroke="grey" stroke-width="2" points="267.069,-622.104 263.569,-612.104 260.069,-622.104 267.069,-622.104"/>
</g>
<!-- 6 -->
<g id="node7" class="node"><title>6</title>
<path fill="none" stroke="#56d89a" stroke-width="2" d="M287.765,-396C287.765,-396 173.372,-396 173.372,-396 167.372,-396 161.372,-390 161.372,-384 161.372,-384 161.372,-372 161.372,-372 161.372,-366 167.372,-360 173.372,-360 173.372,-360 287.765,-360 287.765,-360 293.765,-360 299.765,-366 299.765,-372 299.765,-372 299.765,-384 299.765,-384 299.765,-390 293.765,-396 287.765,-396"/>
<text text-anchor="middle" x="230.569" y="-375" font-family="sans" font-size="10.00">sync_subsample_chromosome</text>
</g>
<!-- 23 -->
<g id="node24" class="node"><title>23</title>
<path fill="none" stroke="#5682d8" stroke-width="2" d="M275.946,-324C275.946,-324 185.191,-324 185.191,-324 179.191,-324 173.191,-318 173.191,-312 173.191,-312 173.191,-300 173.191,-300 173.191,-294 179.191,-288 185.191,-288 185.191,-288 275.946,-288 275.946,-288 281.946,-288 287.946,-294 287.946,-300 287.946,-300 287.946,-312 287.946,-312 287.946,-318 281.946,-324 275.946,-324"/>
<text text-anchor="middle" x="230.569" y="-303" font-family="sans" font-size="10.00">fst_sliding_chromosome</text>
</g>
<!-- 6&#45;&gt;23 -->
<g id="edge36" class="edge"><title>6&#45;&gt;23</title>
<path fill="none" stroke="grey" stroke-width="2" d="M230.569,-359.697C230.569,-351.983 230.569,-342.712 230.569,-334.112"/>
<polygon fill="grey" stroke="grey" stroke-width="2" points="234.069,-334.104 230.569,-324.104 227.069,-334.104 234.069,-334.104"/>
</g>
<!-- 7&#45;&gt;5 -->
<g id="edge8" class="edge"><title>7&#45;&gt;5</title>
<path fill="none" stroke="grey" stroke-width="2" d="M221.411,-719.697C228.057,-711.389 236.147,-701.277 243.456,-692.141"/>
<polygon fill="grey" stroke="grey" stroke-width="2" points="246.371,-694.099 249.885,-684.104 240.905,-689.727 246.371,-694.099"/>
</g>
<!-- 8 -->
<g id="node9" class="node"><title>8</title>
<path fill="none" stroke="#d89556" stroke-width="2" d="M506.317,-468C506.317,-468 336.82,-468 336.82,-468 330.82,-468 324.82,-462 324.82,-456 324.82,-456 324.82,-444 324.82,-444 324.82,-438 330.82,-432 336.82,-432 336.82,-432 506.317,-432 506.317,-432 512.317,-432 518.317,-438 518.317,-444 518.317,-444 518.317,-456 518.317,-456 518.317,-462 512.317,-468 506.317,-468"/>
<text text-anchor="middle" x="421.569" y="-447" font-family="sans" font-size="10.00">mpileup_filter_population_chromosome_gtf</text>
</g>
<!-- 19 -->
<g id="node20" class="node"><title>19</title>
<path fill="none" stroke="#70d856" stroke-width="2" d="M625.485,-396C625.485,-396 433.652,-396 433.652,-396 427.652,-396 421.652,-390 421.652,-384 421.652,-384 421.652,-372 421.652,-372 421.652,-366 427.652,-360 433.652,-360 433.652,-360 625.485,-360 625.485,-360 631.485,-360 637.485,-366 637.485,-372 637.485,-372 637.485,-384 637.485,-384 637.485,-390 631.485,-396 625.485,-396"/>
<text text-anchor="middle" x="529.569" y="-375" font-family="sans" font-size="10.00">mpileup_filter_population_chromosome_mpileup</text>
</g>
<!-- 8&#45;&gt;19 -->
<g id="edge32" class="edge"><title>8&#45;&gt;19</title>
<path fill="none" stroke="grey" stroke-width="2" d="M447.988,-431.876C461.979,-422.808 479.345,-411.552 494.454,-401.759"/>
<polygon fill="grey" stroke="grey" stroke-width="2" points="496.559,-404.566 503.047,-396.19 492.752,-398.692 496.559,-404.566"/>
</g>
<!-- 22 -->
<g id="node23" class="node"><title>22</title>
<path fill="none" stroke="#56c1d8" stroke-width="2" d="M384.339,-108C384.339,-108 304.798,-108 304.798,-108 298.798,-108 292.798,-102 292.798,-96 292.798,-96 292.798,-84 292.798,-84 292.798,-78 298.798,-72 304.798,-72 304.798,-72 384.339,-72 384.339,-72 390.339,-72 396.339,-78 396.339,-84 396.339,-84 396.339,-96 396.339,-96 396.339,-102 390.339,-108 384.339,-108"/>
<text text-anchor="middle" x="344.569" y="-87" font-family="sans" font-size="10.00">theta_plot_population</text>
</g>
<!-- 9&#45;&gt;22 -->
<g id="edge35" class="edge"><title>9&#45;&gt;22</title>
<path fill="none" stroke="grey" stroke-width="2" d="M341.051,-215.871C341.733,-191.67 342.985,-147.211 343.797,-118.393"/>
<polygon fill="grey" stroke="grey" stroke-width="2" points="347.301,-118.284 344.084,-108.189 340.304,-118.087 347.301,-118.284"/>
</g>
<!-- 10 -->
<g id="node11" class="node"><title>10</title>
<path fill="none" stroke="#d8c356" stroke-width="2" d="M576.903,-108C576.903,-108 506.234,-108 506.234,-108 500.234,-108 494.234,-102 494.234,-96 494.234,-96 494.234,-84 494.234,-84 494.234,-78 500.234,-72 506.234,-72 506.234,-72 576.903,-72 576.903,-72 582.903,-72 588.903,-78 588.903,-84 588.903,-84 588.903,-96 588.903,-96 588.903,-102 582.903,-108 576.903,-108"/>
<text text-anchor="middle" x="541.569" y="-87" font-family="sans" font-size="10.00">hp_plot_population</text>
</g>
<!-- 10&#45;&gt;16 -->
<g id="edge26" class="edge"><title>10&#45;&gt;16</title>
<path fill="none" stroke="grey" stroke-width="2" d="M513.681,-71.8761C498.553,-62.587 479.685,-51.0015 463.47,-41.0447"/>
<polygon fill="grey" stroke="grey" stroke-width="2" points="465.128,-37.9557 454.775,-35.7056 461.465,-43.9209 465.128,-37.9557"/>
</g>
<!-- 11 -->
<g id="node12" class="node"><title>11</title>
<path fill="none" stroke="#61d856" stroke-width="2" d="M434.26,-612C434.26,-612 374.877,-612 374.877,-612 368.877,-612 362.877,-606 362.877,-600 362.877,-600 362.877,-588 362.877,-588 362.877,-582 368.877,-576 374.877,-576 374.877,-576 434.26,-576 434.26,-576 440.26,-576 446.26,-582 446.26,-588 446.26,-588 446.26,-600 446.26,-600 446.26,-606 440.26,-612 434.26,-612"/>
<text text-anchor="middle" x="404.569" y="-591" font-family="sans" font-size="10.00">raw_genome_fai</text>
</g>
<!-- 11&#45;&gt;14 -->
<g id="edge21" class="edge"><title>11&#45;&gt;14</title>
<path fill="none" stroke="grey" stroke-width="2" d="M365.917,-575.876C344.318,-566.307 317.217,-554.3 294.302,-544.148"/>
<polygon fill="grey" stroke="grey" stroke-width="2" points="295.655,-540.919 285.094,-540.068 292.819,-547.319 295.655,-540.919"/>
</g>
<!-- 11&#45;&gt;15 -->
<g id="edge24" class="edge"><title>11&#45;&gt;15</title>
<path fill="none" stroke="grey" stroke-width="2" d="M408.771,-575.697C410.665,-567.898 412.945,-558.509 415.053,-549.829"/>
<polygon fill="grey" stroke="grey" stroke-width="2" points="418.456,-550.648 417.415,-540.104 411.653,-548.996 418.456,-550.648"/>
</g>
<!-- 25 -->
<g id="node26" class="node"><title>25</title>
<path fill="none" stroke="#56d8b9" stroke-width="2" d="M474.176,-180C474.176,-180 380.961,-180 380.961,-180 374.961,-180 368.961,-174 368.961,-168 368.961,-168 368.961,-156 368.961,-156 368.961,-150 374.961,-144 380.961,-144 380.961,-144 474.176,-144 474.176,-144 480.176,-144 486.176,-150 486.176,-156 486.176,-156 486.176,-168 486.176,-168 486.176,-174 480.176,-180 474.176,-180"/>
<text text-anchor="middle" x="427.569" y="-159" font-family="sans" font-size="10.00">tajimapi_plot_population</text>
</g>
<!-- 12&#45;&gt;25 -->
<g id="edge38" class="edge"><title>12&#45;&gt;25</title>
<path fill="none" stroke="grey" stroke-width="2" d="M504.616,-215.876C491.527,-206.893 475.308,-195.763 461.133,-186.034"/>
<polygon fill="grey" stroke="grey" stroke-width="2" points="462.842,-182.962 452.616,-180.19 458.881,-188.734 462.842,-182.962"/>
</g>
<!-- 13 -->
<g id="node14" class="node"><title>13</title>
<path fill="none" stroke="#d8d356" stroke-width="2" d="M646.935,-180C646.935,-180 516.202,-180 516.202,-180 510.202,-180 504.202,-174 504.202,-168 504.202,-168 504.202,-156 504.202,-156 504.202,-150 510.202,-144 516.202,-144 516.202,-144 646.935,-144 646.935,-144 652.935,-144 658.935,-150 658.935,-156 658.935,-156 658.935,-168 658.935,-168 658.935,-174 652.935,-180 646.935,-180"/>
<text text-anchor="middle" x="581.569" y="-159" font-family="sans" font-size="10.00">hp_table_population_chromosome</text>
</g>
<!-- 13&#45;&gt;10 -->
<g id="edge15" class="edge"><title>13&#45;&gt;10</title>
<path fill="none" stroke="grey" stroke-width="2" d="M571.681,-143.697C567.079,-135.644 561.508,-125.894 556.416,-116.982"/>
<polygon fill="grey" stroke="grey" stroke-width="2" points="559.343,-115.05 551.342,-108.104 553.265,-118.523 559.343,-115.05"/>
</g>
<!-- 18 -->
<g id="node19" class="node"><title>18</title>
<path fill="none" stroke="#56b1d8" stroke-width="2" d="M294.655,-468C294.655,-468 166.482,-468 166.482,-468 160.482,-468 154.482,-462 154.482,-456 154.482,-456 154.482,-444 154.482,-444 154.482,-438 160.482,-432 166.482,-432 166.482,-432 294.655,-432 294.655,-432 300.655,-432 306.655,-438 306.655,-444 306.655,-444 306.655,-456 306.655,-456 306.655,-462 300.655,-468 294.655,-468"/>
<text text-anchor="middle" x="230.569" y="-447" font-family="sans" font-size="10.00">sync_mpileup2sync_chromosome</text>
</g>
<!-- 14&#45;&gt;18 -->
<g id="edge30" class="edge"><title>14&#45;&gt;18</title>
<path fill="none" stroke="grey" stroke-width="2" d="M242.613,-503.697C240.85,-495.983 238.731,-486.712 236.766,-478.112"/>
<polygon fill="grey" stroke="grey" stroke-width="2" points="240.118,-477.073 234.478,-468.104 233.294,-478.633 240.118,-477.073"/>
</g>
<!-- 15&#45;&gt;8 -->
<g id="edge13" class="edge"><title>15&#45;&gt;8</title>
<path fill="none" stroke="grey" stroke-width="2" d="M421.569,-503.697C421.569,-495.983 421.569,-486.712 421.569,-478.112"/>
<polygon fill="grey" stroke="grey" stroke-width="2" points="425.069,-478.104 421.569,-468.104 418.069,-478.104 425.069,-478.104"/>
</g>
<!-- 15&#45;&gt;19 -->
<g id="edge31" class="edge"><title>15&#45;&gt;19</title>
<path fill="none" stroke="grey" stroke-width="2" d="M482.475,-503.943C499.994,-495.944 517.161,-484.424 527.569,-468 539.102,-449.8 538.666,-425.027 535.878,-406.239"/>
<polygon fill="grey" stroke="grey" stroke-width="2" points="539.294,-405.46 534.093,-396.23 532.403,-406.69 539.294,-405.46"/>
</g>
<!-- 17 -->
<g id="node18" class="node"><title>17</title>
<path fill="none" stroke="#9fd856" stroke-width="2" d="M382.417,-972C382.417,-972 306.72,-972 306.72,-972 300.72,-972 294.72,-966 294.72,-960 294.72,-960 294.72,-948 294.72,-948 294.72,-942 300.72,-936 306.72,-936 306.72,-936 382.417,-936 382.417,-936 388.417,-936 394.417,-942 394.417,-948 394.417,-948 394.417,-960 394.417,-960 394.417,-966 388.417,-972 382.417,-972"/>
<text text-anchor="middle" x="344.569" y="-951" font-family="sans" font-size="10.00">raw_extract_genome</text>
</g>
<!-- 17&#45;&gt;1 -->
<g id="edge2" class="edge"><title>17&#45;&gt;1</title>
<path fill="none" stroke="grey" stroke-width="2" d="M352.258,-935.907C363.362,-909.623 382.569,-857.447 382.569,-811 382.569,-811 382.569,-811 382.569,-737 382.569,-696.553 387.946,-680.275 363.569,-648 353.565,-634.756 339.276,-624.482 324.619,-616.659"/>
<polygon fill="grey" stroke="grey" stroke-width="2" points="325.991,-613.432 315.48,-612.101 322.866,-619.697 325.991,-613.432"/>
</g>
<!-- 17&#45;&gt;4 -->
<g id="edge6" class="edge"><title>17&#45;&gt;4</title>
<path fill="none" stroke="grey" stroke-width="2" d="M336.214,-935.876C326.378,-916.86 308.678,-885.957 287.569,-864 276.699,-852.694 263.084,-842.312 250.393,-833.79"/>
<polygon fill="grey" stroke="grey" stroke-width="2" points="252.09,-830.719 241.799,-828.199 248.273,-836.587 252.09,-830.719"/>
</g>
<!-- 17&#45;&gt;5 -->
<g id="edge9" class="edge"><title>17&#45;&gt;5</title>
<path fill="none" stroke="grey" stroke-width="2" d="M339.744,-935.966C326.214,-888.192 287.818,-752.623 271.291,-694.266"/>
<polygon fill="grey" stroke="grey" stroke-width="2" points="274.563,-692.974 268.47,-684.306 267.827,-694.882 274.563,-692.974"/>
</g>
<!-- 17&#45;&gt;11 -->
<g id="edge16" class="edge"><title>17&#45;&gt;11</title>
<path fill="none" stroke="grey" stroke-width="2" d="M365.976,-935.858C376.583,-926.327 388.759,-913.651 396.569,-900 416.912,-864.439 420.569,-851.969 420.569,-811 420.569,-811 420.569,-811 420.569,-737 420.569,-696.963 414.21,-650.973 409.51,-622.447"/>
<polygon fill="grey" stroke="grey" stroke-width="2" points="412.932,-621.69 407.806,-612.418 406.03,-622.862 412.932,-621.69"/>
</g>
<!-- 17&#45;&gt;14 -->
<g id="edge20" class="edge"><title>17&#45;&gt;14</title>
<path fill="none" stroke="grey" stroke-width="2" d="M294.45,-947.89C208.678,-938.693 41.0533,-918.577 21.5685,-900 -7.70552,-872.09 2.56851,-851.447 2.56851,-811 2.56851,-811 2.56851,-811 2.56851,-665 2.56851,-585.539 100.429,-549.771 172.2,-534.225"/>
<polygon fill="grey" stroke="grey" stroke-width="2" points="173.06,-537.621 182.141,-532.163 171.639,-530.767 173.06,-537.621"/>
</g>
<!-- 17&#45;&gt;15 -->
<g id="edge23" class="edge"><title>17&#45;&gt;15</title>
<path fill="none" stroke="grey" stroke-width="2" d="M377.038,-935.935C415.543,-913.086 474.569,-868.656 474.569,-811 474.569,-811 474.569,-811 474.569,-665 474.569,-624.553 470.959,-613.404 455.569,-576 451.678,-566.546 446.093,-556.927 440.571,-548.524"/>
<polygon fill="grey" stroke="grey" stroke-width="2" points="443.452,-546.537 434.912,-540.267 437.678,-550.494 443.452,-546.537"/>
</g>
<!-- 26 -->
<g id="node27" class="node"><title>26</title>
<path fill="none" stroke="#5663d8" stroke-width="2" d="M266.878,-900C266.878,-900 156.259,-900 156.259,-900 150.259,-900 144.259,-894 144.259,-888 144.259,-888 144.259,-876 144.259,-876 144.259,-870 150.259,-864 156.259,-864 156.259,-864 266.878,-864 266.878,-864 272.878,-864 278.878,-870 278.878,-876 278.878,-876 278.878,-888 278.878,-888 278.878,-894 272.878,-900 266.878,-900"/>
<text text-anchor="middle" x="211.569" y="-879" font-family="sans" font-size="10.00">map_genome_bowtie2_index</text>
</g>
<!-- 17&#45;&gt;26 -->
<g id="edge39" class="edge"><title>17&#45;&gt;26</title>
<path fill="none" stroke="grey" stroke-width="2" d="M312.033,-935.876C294.321,-926.554 272.215,-914.919 253.253,-904.939"/>
<polygon fill="grey" stroke="grey" stroke-width="2" points="254.708,-901.75 244.229,-900.19 251.448,-907.944 254.708,-901.75"/>
</g>
<!-- 18&#45;&gt;6 -->
<g id="edge11" class="edge"><title>18&#45;&gt;6</title>
<path fill="none" stroke="grey" stroke-width="2" d="M230.569,-431.697C230.569,-423.983 230.569,-414.712 230.569,-406.112"/>
<polygon fill="grey" stroke="grey" stroke-width="2" points="234.069,-406.104 230.569,-396.104 227.069,-406.104 234.069,-406.104"/>
</g>
<!-- 19&#45;&gt;0 -->
<g id="edge1" class="edge"><title>19&#45;&gt;0</title>
<path fill="none" stroke="grey" stroke-width="2" d="M529.569,-359.697C529.569,-351.983 529.569,-342.712 529.569,-334.112"/>
<polygon fill="grey" stroke="grey" stroke-width="2" points="533.069,-334.104 529.569,-324.104 526.069,-334.104 533.069,-334.104"/>
</g>
<!-- 20&#45;&gt;4 -->
<g id="edge5" class="edge"><title>20&#45;&gt;4</title>
<path fill="none" stroke="grey" stroke-width="2" d="M111.104,-863.876C128.816,-854.554 150.922,-842.919 169.884,-832.939"/>
<polygon fill="grey" stroke="grey" stroke-width="2" points="171.689,-835.944 178.908,-828.19 168.429,-829.75 171.689,-835.944"/>
</g>
<!-- 21&#45;&gt;13 -->
<g id="edge18" class="edge"><title>21&#45;&gt;13</title>
<path fill="none" stroke="grey" stroke-width="2" d="M688.831,-215.876C669.749,-206.469 645.89,-194.708 625.522,-184.667"/>
<polygon fill="grey" stroke="grey" stroke-width="2" points="626.956,-181.472 616.439,-180.19 623.861,-187.751 626.956,-181.472"/>
</g>
<!-- 24 -->
<g id="node25" class="node"><title>24</title>
<path fill="none" stroke="#5673d8" stroke-width="2" d="M779.897,-180C779.897,-180 689.24,-180 689.24,-180 683.24,-180 677.24,-174 677.24,-168 677.24,-168 677.24,-156 677.24,-156 677.24,-150 683.24,-144 689.24,-144 689.24,-144 779.897,-144 779.897,-144 785.897,-144 791.897,-150 791.897,-156 791.897,-156 791.897,-168 791.897,-168 791.897,-174 785.897,-180 779.897,-180"/>
<text text-anchor="middle" x="734.569" y="-159" font-family="sans" font-size="10.00">tajimad_plot_population</text>
</g>
<!-- 21&#45;&gt;24 -->
<g id="edge37" class="edge"><title>21&#45;&gt;24</title>
<path fill="none" stroke="grey" stroke-width="2" d="M726.288,-215.697C727.5,-207.983 728.957,-198.712 730.308,-190.112"/>
<polygon fill="grey" stroke="grey" stroke-width="2" points="733.786,-190.526 731.881,-180.104 726.871,-189.44 733.786,-190.526"/>
</g>
<!-- 22&#45;&gt;16 -->
<g id="edge27" class="edge"><title>22&#45;&gt;16</title>
<path fill="none" stroke="grey" stroke-width="2" d="M365.085,-71.6966C375.438,-62.9655 388.155,-52.2405 399.407,-42.7503"/>
<polygon fill="grey" stroke="grey" stroke-width="2" points="401.9,-45.2269 407.288,-36.1043 397.387,-39.8759 401.9,-45.2269"/>
</g>
<!-- 23&#45;&gt;3 -->
<g id="edge4" class="edge"><title>23&#45;&gt;3</title>
<path fill="none" stroke="grey" stroke-width="2" d="M231.13,-287.849C232.34,-250.832 235.207,-163.181 236.673,-118.386"/>
<polygon fill="grey" stroke="grey" stroke-width="2" points="240.176,-118.342 237.005,-108.232 233.18,-118.113 240.176,-118.342"/>
</g>
<!-- 24&#45;&gt;16 -->
<g id="edge28" class="edge"><title>24&#45;&gt;16</title>
<path fill="none" stroke="grey" stroke-width="2" d="M712.421,-143.862C686.22,-124.258 640.697,-92.26 597.569,-72 553.637,-51.3627 499.65,-36.1041 464.465,-27.389"/>
<polygon fill="grey" stroke="grey" stroke-width="2" points="465.166,-23.9577 454.623,-25.0006 463.515,-30.7602 465.166,-23.9577"/>
</g>
<!-- 25&#45;&gt;16 -->
<g id="edge25" class="edge"><title>25&#45;&gt;16</title>
<path fill="none" stroke="grey" stroke-width="2" d="M427.569,-143.871C427.569,-119.67 427.569,-75.2108 427.569,-46.3932"/>
<polygon fill="grey" stroke="grey" stroke-width="2" points="431.069,-46.1892 427.569,-36.1893 424.069,-46.1893 431.069,-46.1892"/>
</g>
<!-- 26&#45;&gt;4 -->
<g id="edge7" class="edge"><title>26&#45;&gt;4</title>
<path fill="none" stroke="grey" stroke-width="2" d="M211.569,-863.697C211.569,-855.983 211.569,-846.712 211.569,-838.112"/>
<polygon fill="grey" stroke="grey" stroke-width="2" points="215.069,-838.104 211.569,-828.104 208.069,-838.104 215.069,-838.104"/>
</g>
</g>
</svg>
