<?xml version="1.0" encoding="UTF-8" standalone="no"?>
<!DOCTYPE svg PUBLIC "-//W3C//DTD SVG 1.1//EN"
 "http://www.w3.org/Graphics/SVG/1.1/DTD/svg11.dtd">
<!-- Generated by graphviz version 2.38.0 (20140413.2041)
 -->
<!-- Title: snakemake_dag Pages: 1 -->
<svg width="798pt" height="1124pt"
 viewBox="0.00 0.00 797.50 1124.00" xmlns="http://www.w3.org/2000/svg" xmlns:xlink="http://www.w3.org/1999/xlink">
<g id="graph0" class="graph" transform="scale(1 1) rotate(0) translate(4 1120)">
<title>snakemake_dag</title>
<polygon fill="white" stroke="none" points="-4,4 -4,-1120 793.5,-1120 793.5,4 -4,4"/>
<!-- 0 -->
<g id="node1" class="node"><title>0</title>
<path fill="none" stroke="#a7d856" stroke-width="2" d="M275.5,-36C275.5,-36 245.5,-36 245.5,-36 239.5,-36 233.5,-30 233.5,-24 233.5,-24 233.5,-12 233.5,-12 233.5,-6 239.5,-0 245.5,-0 245.5,-0 275.5,-0 275.5,-0 281.5,-0 287.5,-6 287.5,-12 287.5,-12 287.5,-24 287.5,-24 287.5,-30 281.5,-36 275.5,-36"/>
<text text-anchor="middle" x="260.5" y="-15.5" font-family="sans" font-size="10.00">all</text>
</g>
<!-- 1 -->
<g id="node2" class="node"><title>1</title>
<path fill="none" stroke="#d8c356" stroke-width="2" d="M348.5,-108C348.5,-108 274.5,-108 274.5,-108 268.5,-108 262.5,-102 262.5,-96 262.5,-96 262.5,-84 262.5,-84 262.5,-78 268.5,-72 274.5,-72 274.5,-72 348.5,-72 348.5,-72 354.5,-72 360.5,-78 360.5,-84 360.5,-84 360.5,-96 360.5,-96 360.5,-102 354.5,-108 348.5,-108"/>
<text text-anchor="middle" x="311.5" y="-87.5" font-family="sans" font-size="10.00">popoolation_plot</text>
</g>
<!-- 1&#45;&gt;0 -->
<g id="edge5" class="edge"><title>1&#45;&gt;0</title>
<path fill="none" stroke="grey" stroke-width="2" d="M298.893,-71.6966C292.903,-63.4741 285.624,-53.4832 279.021,-44.4207"/>
<polygon fill="grey" stroke="grey" stroke-width="2" points="281.679,-42.1257 272.962,-36.1043 276.022,-46.2477 281.679,-42.1257"/>
</g>
<!-- 2 -->
<g id="node3" class="node"><title>2</title>
<path fill="none" stroke="#56a2d8" stroke-width="2" d="M233.5,-828C233.5,-828 111.5,-828 111.5,-828 105.5,-828 99.5,-822 99.5,-816 99.5,-816 99.5,-804 99.5,-804 99.5,-798 105.5,-792 111.5,-792 111.5,-792 233.5,-792 233.5,-792 239.5,-792 245.5,-798 245.5,-804 245.5,-804 245.5,-816 245.5,-816 245.5,-822 239.5,-828 233.5,-828"/>
<text text-anchor="middle" x="172.5" y="-807.5" font-family="sans" font-size="10.00">reports_samtools_idxstats</text>
</g>
<!-- 2&#45;&gt;0 -->
<g id="edge1" class="edge"><title>2&#45;&gt;0</title>
<path fill="none" stroke="grey" stroke-width="2" d="M172.5,-791.951C172.5,-765.292 172.5,-712.115 172.5,-667 172.5,-667 172.5,-667 172.5,-161 172.5,-114.013 207.743,-69.6272 233.623,-43.3681"/>
<polygon fill="grey" stroke="grey" stroke-width="2" points="236.298,-45.6458 240.97,-36.1366 231.388,-40.6569 236.298,-45.6458"/>
</g>
<!-- 3 -->
<g id="node4" class="node"><title>3</title>
<path fill="none" stroke="#d8b456" stroke-width="2" d="M323,-756C323,-756 216,-756 216,-756 210,-756 204,-750 204,-744 204,-744 204,-732 204,-732 204,-726 210,-720 216,-720 216,-720 323,-720 323,-720 329,-720 335,-726 335,-732 335,-732 335,-744 335,-744 335,-750 329,-756 323,-756"/>
<text text-anchor="middle" x="269.5" y="-735.5" font-family="sans" font-size="10.00">reports_samtools_stats</text>
</g>
<!-- 3&#45;&gt;0 -->
<g id="edge4" class="edge"><title>3&#45;&gt;0</title>
<path fill="none" stroke="grey" stroke-width="2" d="M256.988,-719.591C239.669,-693.734 210.5,-643.053 210.5,-595 210.5,-595 210.5,-595 210.5,-161 210.5,-118.683 230.5,-73.0923 245.202,-45.2964"/>
<polygon fill="grey" stroke="grey" stroke-width="2" points="248.425,-46.6965 250.14,-36.2413 242.28,-43.3452 248.425,-46.6965"/>
</g>
<!-- 4 -->
<g id="node5" class="node"><title>4</title>
<path fill="none" stroke="#56b9d8" stroke-width="2" d="M131,-684C131,-684 12,-684 12,-684 6,-684 0,-678 0,-672 0,-672 0,-660 0,-660 0,-654 6,-648 12,-648 12,-648 131,-648 131,-648 137,-648 143,-654 143,-660 143,-660 143,-672 143,-672 143,-678 137,-684 131,-684"/>
<text text-anchor="middle" x="71.5" y="-663.5" font-family="sans" font-size="10.00">reports_samtools_flagstat</text>
</g>
<!-- 4&#45;&gt;0 -->
<g id="edge6" class="edge"><title>4&#45;&gt;0</title>
<path fill="none" stroke="grey" stroke-width="2" d="M77.9757,-647.793C87.3262,-621.361 103.5,-568.993 103.5,-523 103.5,-523 103.5,-523 103.5,-161 103.5,-96.4947 177.299,-53.6918 223.703,-33.1539"/>
<polygon fill="grey" stroke="grey" stroke-width="2" points="225.336,-36.2619 233.153,-29.1095 222.582,-29.8265 225.336,-36.2619"/>
</g>
<!-- 5 -->
<g id="node6" class="node"><title>5</title>
<path fill="none" stroke="#bed856" stroke-width="2" d="M531.5,-108C531.5,-108 445.5,-108 445.5,-108 439.5,-108 433.5,-102 433.5,-96 433.5,-96 433.5,-84 433.5,-84 433.5,-78 439.5,-72 445.5,-72 445.5,-72 531.5,-72 531.5,-72 537.5,-72 543.5,-78 543.5,-84 543.5,-84 543.5,-96 543.5,-96 543.5,-102 537.5,-108 531.5,-108"/>
<text text-anchor="middle" x="488.5" y="-87.5" font-family="sans" font-size="10.00">hp_plot_population</text>
</g>
<!-- 5&#45;&gt;0 -->
<g id="edge3" class="edge"><title>5&#45;&gt;0</title>
<path fill="none" stroke="grey" stroke-width="2" d="M433.308,-72.055C391.145,-59.1102 334.202,-41.6279 297.412,-30.3328"/>
<polygon fill="grey" stroke="grey" stroke-width="2" points="298.186,-26.9091 287.599,-27.3199 296.132,-33.6008 298.186,-26.9091"/>
</g>
<!-- 6 -->
<g id="node7" class="node"><title>6</title>
<path fill="none" stroke="#d86e56" stroke-width="2" d="M658.5,-108C658.5,-108 628.5,-108 628.5,-108 622.5,-108 616.5,-102 616.5,-96 616.5,-96 616.5,-84 616.5,-84 616.5,-78 622.5,-72 628.5,-72 628.5,-72 658.5,-72 658.5,-72 664.5,-72 670.5,-78 670.5,-84 670.5,-84 670.5,-96 670.5,-96 670.5,-102 664.5,-108 658.5,-108"/>
<text text-anchor="middle" x="643.5" y="-87.5" font-family="sans" font-size="10.00">fst_plot</text>
</g>
<!-- 6&#45;&gt;0 -->
<g id="edge2" class="edge"><title>6&#45;&gt;0</title>
<path fill="none" stroke="grey" stroke-width="2" d="M616.43,-83.9054C598.335,-80.5092 573.996,-75.9587 552.5,-72 461.103,-55.1684 353.538,-35.7439 297.963,-25.7363"/>
<polygon fill="grey" stroke="grey" stroke-width="2" points="298.345,-22.249 287.884,-23.9219 297.105,-29.1383 298.345,-22.249"/>
</g>
<!-- 7 -->
<g id="node8" class="node"><title>7</title>
<path fill="none" stroke="#68d856" stroke-width="2" d="M422.5,-180C422.5,-180 250.5,-180 250.5,-180 244.5,-180 238.5,-174 238.5,-168 238.5,-168 238.5,-156 238.5,-156 238.5,-150 244.5,-144 250.5,-144 250.5,-144 422.5,-144 422.5,-144 428.5,-144 434.5,-150 434.5,-156 434.5,-156 434.5,-168 434.5,-168 434.5,-174 428.5,-180 422.5,-180"/>
<text text-anchor="middle" x="336.5" y="-159.5" font-family="sans" font-size="10.00">popoolation_merge_variance_sliding</text>
</g>
<!-- 7&#45;&gt;1 -->
<g id="edge7" class="edge"><title>7&#45;&gt;1</title>
<path fill="none" stroke="grey" stroke-width="2" d="M330.32,-143.697C327.505,-135.813 324.109,-126.304 320.981,-117.546"/>
<polygon fill="grey" stroke="grey" stroke-width="2" points="324.268,-116.345 317.609,-108.104 317.676,-118.699 324.268,-116.345"/>
</g>
<!-- 8 -->
<g id="node9" class="node"><title>8</title>
<path fill="none" stroke="#78d856" stroke-width="2" d="M363.5,-900C363.5,-900 313.5,-900 313.5,-900 307.5,-900 301.5,-894 301.5,-888 301.5,-888 301.5,-876 301.5,-876 301.5,-870 307.5,-864 313.5,-864 313.5,-864 363.5,-864 363.5,-864 369.5,-864 375.5,-870 375.5,-876 375.5,-876 375.5,-888 375.5,-888 375.5,-894 369.5,-900 363.5,-900"/>
<text text-anchor="middle" x="338.5" y="-879.5" font-family="sans" font-size="10.00">index_cram</text>
</g>
<!-- 8&#45;&gt;2 -->
<g id="edge9" class="edge"><title>8&#45;&gt;2</title>
<path fill="none" stroke="grey" stroke-width="2" d="M301.246,-865.291C277.937,-855.461 247.627,-842.68 222.272,-831.988"/>
<polygon fill="grey" stroke="grey" stroke-width="2" points="223.396,-828.664 212.822,-828.003 220.676,-835.114 223.396,-828.664"/>
</g>
<!-- 29 -->
<g id="node30" class="node"><title>29</title>
<path fill="none" stroke="#d85656" stroke-width="2" d="M432,-828C432,-828 391,-828 391,-828 385,-828 379,-822 379,-816 379,-816 379,-804 379,-804 379,-798 385,-792 391,-792 391,-792 432,-792 432,-792 438,-792 444,-798 444,-804 444,-804 444,-816 444,-816 444,-822 438,-828 432,-828"/>
<text text-anchor="middle" x="411.5" y="-807.5" font-family="sans" font-size="10.00">map_split</text>
</g>
<!-- 8&#45;&gt;29 -->
<g id="edge42" class="edge"><title>8&#45;&gt;29</title>
<path fill="none" stroke="grey" stroke-width="2" d="M356.545,-863.697C365.562,-855.05 376.618,-844.449 386.443,-835.027"/>
<polygon fill="grey" stroke="grey" stroke-width="2" points="388.867,-837.552 393.663,-828.104 384.022,-832.499 388.867,-837.552"/>
</g>
<!-- 9 -->
<g id="node10" class="node"><title>9</title>
<path fill="none" stroke="#56d8b1" stroke-width="2" d="M315,-972C315,-972 248,-972 248,-972 242,-972 236,-966 236,-960 236,-960 236,-948 236,-948 236,-942 242,-936 248,-936 248,-936 315,-936 315,-936 321,-936 327,-942 327,-948 327,-948 327,-960 327,-960 327,-966 321,-972 315,-972"/>
<text text-anchor="middle" x="281.5" y="-951.5" font-family="sans" font-size="10.00">map_bwa_map</text>
</g>
<!-- 9&#45;&gt;2 -->
<g id="edge8" class="edge"><title>9&#45;&gt;2</title>
<path fill="none" stroke="grey" stroke-width="2" d="M268.352,-935.871C249.284,-911.031 213.833,-864.846 191.799,-836.142"/>
<polygon fill="grey" stroke="grey" stroke-width="2" points="194.56,-833.991 185.695,-828.189 189.007,-838.253 194.56,-833.991"/>
</g>
<!-- 9&#45;&gt;3 -->
<g id="edge10" class="edge"><title>9&#45;&gt;3</title>
<path fill="none" stroke="grey" stroke-width="2" d="M280.538,-935.849C278.463,-898.832 273.548,-811.181 271.036,-766.386"/>
<polygon fill="grey" stroke="grey" stroke-width="2" points="274.521,-766.021 270.466,-756.232 267.532,-766.413 274.521,-766.021"/>
</g>
<!-- 9&#45;&gt;4 -->
<g id="edge11" class="edge"><title>9&#45;&gt;4</title>
<path fill="none" stroke="grey" stroke-width="2" d="M235.99,-936.546C190.973,-917.702 124.088,-882.248 90.5,-828 64.9645,-786.757 65.2001,-728.074 68.0806,-694.127"/>
<polygon fill="grey" stroke="grey" stroke-width="2" points="71.5782,-694.324 69.0795,-684.028 64.6122,-693.635 71.5782,-694.324"/>
</g>
<!-- 9&#45;&gt;8 -->
<g id="edge15" class="edge"><title>9&#45;&gt;8</title>
<path fill="none" stroke="grey" stroke-width="2" d="M295.59,-935.697C302.423,-927.305 310.757,-917.07 318.256,-907.861"/>
<polygon fill="grey" stroke="grey" stroke-width="2" points="320.972,-910.069 324.572,-900.104 315.544,-905.649 320.972,-910.069"/>
</g>
<!-- 9&#45;&gt;29 -->
<g id="edge43" class="edge"><title>9&#45;&gt;29</title>
<path fill="none" stroke="grey" stroke-width="2" d="M327.078,-938.751C347.205,-930.37 369.624,-917.839 384.5,-900 399.071,-882.526 405.782,-857.325 408.87,-838.197"/>
<polygon fill="grey" stroke="grey" stroke-width="2" points="412.339,-838.667 410.241,-828.282 405.404,-837.709 412.339,-838.667"/>
</g>
<!-- 10 -->
<g id="node11" class="node"><title>10</title>
<path fill="none" stroke="#56c1d8" stroke-width="2" d="M625,-180C625,-180 464,-180 464,-180 458,-180 452,-174 452,-168 452,-168 452,-156 452,-156 452,-150 458,-144 464,-144 464,-144 625,-144 625,-144 631,-144 637,-150 637,-156 637,-156 637,-168 637,-168 637,-174 631,-180 625,-180"/>
<text text-anchor="middle" x="544.5" y="-159.5" font-family="sans" font-size="10.00">hp_table_population_chromosome</text>
</g>
<!-- 10&#45;&gt;5 -->
<g id="edge12" class="edge"><title>10&#45;&gt;5</title>
<path fill="none" stroke="grey" stroke-width="2" d="M530.657,-143.697C524.011,-135.389 515.922,-125.277 508.613,-116.141"/>
<polygon fill="grey" stroke="grey" stroke-width="2" points="511.164,-113.727 502.183,-108.104 505.697,-118.099 511.164,-113.727"/>
</g>
<!-- 11 -->
<g id="node12" class="node"><title>11</title>
<path fill="none" stroke="#56d8c1" stroke-width="2" d="M729.5,-180C729.5,-180 667.5,-180 667.5,-180 661.5,-180 655.5,-174 655.5,-168 655.5,-168 655.5,-156 655.5,-156 655.5,-150 661.5,-144 667.5,-144 667.5,-144 729.5,-144 729.5,-144 735.5,-144 741.5,-150 741.5,-156 741.5,-156 741.5,-168 741.5,-168 741.5,-174 735.5,-180 729.5,-180"/>
<text text-anchor="middle" x="698.5" y="-159.5" font-family="sans" font-size="10.00">fst_split_table</text>
</g>
<!-- 11&#45;&gt;6 -->
<g id="edge13" class="edge"><title>11&#45;&gt;6</title>
<path fill="none" stroke="grey" stroke-width="2" d="M684.904,-143.697C678.377,-135.389 670.432,-125.277 663.253,-116.141"/>
<polygon fill="grey" stroke="grey" stroke-width="2" points="665.869,-113.805 656.939,-108.104 660.365,-118.13 665.869,-113.805"/>
</g>
<!-- 12 -->
<g id="node13" class="node"><title>12</title>
<path fill="none" stroke="#56d89a" stroke-width="2" d="M513,-324C513,-324 378,-324 378,-324 372,-324 366,-318 366,-312 366,-312 366,-300 366,-300 366,-294 372,-288 378,-288 378,-288 513,-288 513,-288 519,-288 525,-294 525,-300 525,-300 525,-312 525,-312 525,-318 519,-324 513,-324"/>
<text text-anchor="middle" x="445.5" y="-303.5" font-family="sans" font-size="10.00">popoolation_variance_sliding</text>
</g>
<!-- 12&#45;&gt;7 -->
<g id="edge14" class="edge"><title>12&#45;&gt;7</title>
<path fill="none" stroke="grey" stroke-width="2" d="M432.352,-287.871C413.284,-263.031 377.833,-216.846 355.799,-188.142"/>
<polygon fill="grey" stroke="grey" stroke-width="2" points="358.56,-185.991 349.695,-180.189 353.007,-190.253 358.56,-185.991"/>
</g>
<!-- 16 -->
<g id="node17" class="node"><title>16</title>
<path fill="none" stroke="#c6d856" stroke-width="2" d="M580,-252C580,-252 465,-252 465,-252 459,-252 453,-246 453,-240 453,-240 453,-228 453,-228 453,-222 459,-216 465,-216 465,-216 580,-216 580,-216 586,-216 592,-222 592,-228 592,-228 592,-240 592,-240 592,-246 586,-252 580,-252"/>
<text text-anchor="middle" x="522.5" y="-231.5" font-family="sans" font-size="10.00">popoolation_merge_snps</text>
</g>
<!-- 12&#45;&gt;16 -->
<g id="edge24" class="edge"><title>12&#45;&gt;16</title>
<path fill="none" stroke="grey" stroke-width="2" d="M464.534,-287.697C474.045,-279.05 485.707,-268.449 496.07,-259.027"/>
<polygon fill="grey" stroke="grey" stroke-width="2" points="498.64,-261.421 503.685,-252.104 493.931,-256.241 498.64,-261.421"/>
</g>
<!-- 13 -->
<g id="node14" class="node"><title>13</title>
<path fill="none" stroke="#56d0d8" stroke-width="2" d="M249,-1044C249,-1044 176,-1044 176,-1044 170,-1044 164,-1038 164,-1032 164,-1032 164,-1020 164,-1020 164,-1014 170,-1008 176,-1008 176,-1008 249,-1008 249,-1008 255,-1008 261,-1014 261,-1020 261,-1020 261,-1032 261,-1032 261,-1038 255,-1044 249,-1044"/>
<text text-anchor="middle" x="212.5" y="-1023.5" font-family="sans" font-size="10.00">qc_trimmomatic</text>
</g>
<!-- 13&#45;&gt;9 -->
<g id="edge16" class="edge"><title>13&#45;&gt;9</title>
<path fill="none" stroke="grey" stroke-width="2" d="M229.556,-1007.7C237.995,-999.135 248.325,-988.656 257.543,-979.304"/>
<polygon fill="grey" stroke="grey" stroke-width="2" points="260.113,-981.683 264.64,-972.104 255.127,-976.769 260.113,-981.683"/>
</g>
<!-- 14 -->
<g id="node15" class="node"><title>14</title>
<path fill="none" stroke="#d88556" stroke-width="2" d="M508,-1116C508,-1116 413,-1116 413,-1116 407,-1116 401,-1110 401,-1104 401,-1104 401,-1092 401,-1092 401,-1086 407,-1080 413,-1080 413,-1080 508,-1080 508,-1080 514,-1080 520,-1086 520,-1092 520,-1092 520,-1104 520,-1104 520,-1110 514,-1116 508,-1116"/>
<text text-anchor="middle" x="460.5" y="-1095.5" font-family="sans" font-size="10.00">raw_extract_genome</text>
</g>
<!-- 14&#45;&gt;9 -->
<g id="edge17" class="edge"><title>14&#45;&gt;9</title>
<path fill="none" stroke="grey" stroke-width="2" d="M400.832,-1089.37C369.498,-1082.43 332.691,-1069.2 308.5,-1044 292.556,-1027.39 285.997,-1001.67 283.315,-982.143"/>
<polygon fill="grey" stroke="grey" stroke-width="2" points="286.774,-981.58 282.188,-972.029 279.817,-982.355 286.774,-981.58"/>
</g>
<!-- 15 -->
<g id="node16" class="node"><title>15</title>
<path fill="none" stroke="#8fd856" stroke-width="2" d="M401.5,-1044C401.5,-1044 329.5,-1044 329.5,-1044 323.5,-1044 317.5,-1038 317.5,-1032 317.5,-1032 317.5,-1020 317.5,-1020 317.5,-1014 323.5,-1008 329.5,-1008 329.5,-1008 401.5,-1008 401.5,-1008 407.5,-1008 413.5,-1014 413.5,-1020 413.5,-1020 413.5,-1032 413.5,-1032 413.5,-1038 407.5,-1044 401.5,-1044"/>
<text text-anchor="middle" x="365.5" y="-1023.5" font-family="sans" font-size="10.00">map_bwa_index</text>
</g>
<!-- 14&#45;&gt;15 -->
<g id="edge23" class="edge"><title>14&#45;&gt;15</title>
<path fill="none" stroke="grey" stroke-width="2" d="M437.017,-1079.7C424.937,-1070.8 410.046,-1059.82 396.984,-1050.2"/>
<polygon fill="grey" stroke="grey" stroke-width="2" points="398.84,-1047.22 388.713,-1044.1 394.687,-1052.85 398.84,-1047.22"/>
</g>
<!-- 23 -->
<g id="node24" class="node"><title>23</title>
<path fill="none" stroke="#d89556" stroke-width="2" d="M554.5,-684C554.5,-684 480.5,-684 480.5,-684 474.5,-684 468.5,-678 468.5,-672 468.5,-672 468.5,-660 468.5,-660 468.5,-654 474.5,-648 480.5,-648 480.5,-648 554.5,-648 554.5,-648 560.5,-648 566.5,-654 566.5,-660 566.5,-660 566.5,-672 566.5,-672 566.5,-678 560.5,-684 554.5,-684"/>
<text text-anchor="middle" x="517.5" y="-663.5" font-family="sans" font-size="10.00">mpileup_convert</text>
</g>
<!-- 14&#45;&gt;23 -->
<g id="edge32" class="edge"><title>14&#45;&gt;23</title>
<path fill="none" stroke="grey" stroke-width="2" d="M472.31,-1079.96C489.006,-1054.16 517.5,-1003.08 517.5,-955 517.5,-955 517.5,-955 517.5,-809 517.5,-768.996 517.5,-722.653 517.5,-694.08"/>
<polygon fill="grey" stroke="grey" stroke-width="2" points="521,-694.049 517.5,-684.049 514,-694.049 521,-694.049"/>
</g>
<!-- 26 -->
<g id="node27" class="node"><title>26</title>
<path fill="none" stroke="#56d8d8" stroke-width="2" d="M607.5,-972C607.5,-972 557.5,-972 557.5,-972 551.5,-972 545.5,-966 545.5,-960 545.5,-960 545.5,-948 545.5,-948 545.5,-942 551.5,-936 557.5,-936 557.5,-936 607.5,-936 607.5,-936 613.5,-936 619.5,-942 619.5,-948 619.5,-948 619.5,-960 619.5,-960 619.5,-966 613.5,-972 607.5,-972"/>
<text text-anchor="middle" x="582.5" y="-951.5" font-family="sans" font-size="10.00">index_fasta</text>
</g>
<!-- 14&#45;&gt;26 -->
<g id="edge36" class="edge"><title>14&#45;&gt;26</title>
<path fill="none" stroke="grey" stroke-width="2" d="M488.613,-1079.95C502.622,-1070.53 519.158,-1057.93 531.5,-1044 548.193,-1025.16 562.001,-999.986 571.02,-981.222"/>
<polygon fill="grey" stroke="grey" stroke-width="2" points="574.238,-982.603 575.29,-972.061 567.893,-979.646 574.238,-982.603"/>
</g>
<!-- 27 -->
<g id="node28" class="node"><title>27</title>
<path fill="none" stroke="#56a9d8" stroke-width="2" d="M477.5,-756C477.5,-756 435.5,-756 435.5,-756 429.5,-756 423.5,-750 423.5,-744 423.5,-744 423.5,-732 423.5,-732 423.5,-726 429.5,-720 435.5,-720 435.5,-720 477.5,-720 477.5,-720 483.5,-720 489.5,-726 489.5,-732 489.5,-732 489.5,-744 489.5,-744 489.5,-750 483.5,-756 477.5,-756"/>
<text text-anchor="middle" x="456.5" y="-735.5" font-family="sans" font-size="10.00">map_filter</text>
</g>
<!-- 14&#45;&gt;27 -->
<g id="edge37" class="edge"><title>14&#45;&gt;27</title>
<path fill="none" stroke="grey" stroke-width="2" d="M464.345,-1079.61C469.897,-1052.94 479.5,-1000.27 479.5,-955 479.5,-955 479.5,-955 479.5,-881 479.5,-840.696 470.36,-794.776 463.603,-766.337"/>
<polygon fill="grey" stroke="grey" stroke-width="2" points="466.933,-765.222 461.154,-756.342 460.135,-766.888 466.933,-765.222"/>
</g>
<!-- 14&#45;&gt;29 -->
<g id="edge41" class="edge"><title>14&#45;&gt;29</title>
<path fill="none" stroke="grey" stroke-width="2" d="M457.582,-1079.97C449.396,-1032.19 426.17,-896.623 416.171,-838.266"/>
<polygon fill="grey" stroke="grey" stroke-width="2" points="419.604,-837.572 414.465,-828.306 412.704,-838.754 419.604,-837.572"/>
</g>
<!-- 15&#45;&gt;9 -->
<g id="edge18" class="edge"><title>15&#45;&gt;9</title>
<path fill="none" stroke="grey" stroke-width="2" d="M344.736,-1007.7C334.259,-998.965 321.389,-988.24 310,-978.75"/>
<polygon fill="grey" stroke="grey" stroke-width="2" points="311.948,-975.817 302.025,-972.104 307.467,-981.195 311.948,-975.817"/>
</g>
<!-- 16&#45;&gt;10 -->
<g id="edge19" class="edge"><title>16&#45;&gt;10</title>
<path fill="none" stroke="grey" stroke-width="2" d="M527.938,-215.697C530.389,-207.898 533.34,-198.509 536.068,-189.829"/>
<polygon fill="grey" stroke="grey" stroke-width="2" points="539.465,-190.694 539.124,-180.104 532.787,-188.595 539.465,-190.694"/>
</g>
<!-- 17 -->
<g id="node18" class="node"><title>17</title>
<path fill="none" stroke="#56d88a" stroke-width="2" d="M719.5,-252C719.5,-252 677.5,-252 677.5,-252 671.5,-252 665.5,-246 665.5,-240 665.5,-240 665.5,-228 665.5,-228 665.5,-222 671.5,-216 677.5,-216 677.5,-216 719.5,-216 719.5,-216 725.5,-216 731.5,-222 731.5,-228 731.5,-228 731.5,-240 731.5,-240 731.5,-246 725.5,-252 719.5,-252"/>
<text text-anchor="middle" x="698.5" y="-231.5" font-family="sans" font-size="10.00">fst_merge</text>
</g>
<!-- 17&#45;&gt;11 -->
<g id="edge20" class="edge"><title>17&#45;&gt;11</title>
<path fill="none" stroke="grey" stroke-width="2" d="M698.5,-215.697C698.5,-207.983 698.5,-198.712 698.5,-190.112"/>
<polygon fill="grey" stroke="grey" stroke-width="2" points="702,-190.104 698.5,-180.104 695,-190.104 702,-190.104"/>
</g>
<!-- 18 -->
<g id="node19" class="node"><title>18</title>
<path fill="none" stroke="#567bd8" stroke-width="2" d="M522.5,-468C522.5,-468 368.5,-468 368.5,-468 362.5,-468 356.5,-462 356.5,-456 356.5,-456 356.5,-444 356.5,-444 356.5,-438 362.5,-432 368.5,-432 368.5,-432 522.5,-432 522.5,-432 528.5,-432 534.5,-438 534.5,-444 534.5,-444 534.5,-456 534.5,-456 534.5,-462 528.5,-468 522.5,-468"/>
<text text-anchor="middle" x="445.5" y="-447.5" font-family="sans" font-size="10.00">mpileup_popoolation_subsample</text>
</g>
<!-- 18&#45;&gt;12 -->
<g id="edge21" class="edge"><title>18&#45;&gt;12</title>
<path fill="none" stroke="grey" stroke-width="2" d="M445.5,-431.871C445.5,-407.67 445.5,-363.211 445.5,-334.393"/>
<polygon fill="grey" stroke="grey" stroke-width="2" points="449,-334.189 445.5,-324.189 442,-334.189 449,-334.189"/>
</g>
<!-- 19 -->
<g id="node20" class="node"><title>19</title>
<path fill="none" stroke="#59d856" stroke-width="2" d="M278,-1116C278,-1116 147,-1116 147,-1116 141,-1116 135,-1110 135,-1104 135,-1104 135,-1092 135,-1092 135,-1086 141,-1080 147,-1080 147,-1080 278,-1080 278,-1080 284,-1080 290,-1086 290,-1092 290,-1092 290,-1104 290,-1104 290,-1110 284,-1116 278,-1116"/>
<text text-anchor="middle" x="212.5" y="-1095.5" font-family="sans" font-size="10.00">raw_make_links_pe_sample</text>
</g>
<!-- 19&#45;&gt;13 -->
<g id="edge22" class="edge"><title>19&#45;&gt;13</title>
<path fill="none" stroke="grey" stroke-width="2" d="M212.5,-1079.7C212.5,-1071.98 212.5,-1062.71 212.5,-1054.11"/>
<polygon fill="grey" stroke="grey" stroke-width="2" points="216,-1054.1 212.5,-1044.1 209,-1054.1 216,-1054.1"/>
</g>
<!-- 20 -->
<g id="node21" class="node"><title>20</title>
<path fill="none" stroke="#56d85b" stroke-width="2" d="M754.5,-324C754.5,-324 642.5,-324 642.5,-324 636.5,-324 630.5,-318 630.5,-312 630.5,-312 630.5,-300 630.5,-300 630.5,-294 636.5,-288 642.5,-288 642.5,-288 754.5,-288 754.5,-288 760.5,-288 766.5,-294 766.5,-300 766.5,-300 766.5,-312 766.5,-312 766.5,-318 760.5,-324 754.5,-324"/>
<text text-anchor="middle" x="698.5" y="-303.5" font-family="sans" font-size="10.00">fst_sliding_chromosome</text>
</g>
<!-- 20&#45;&gt;17 -->
<g id="edge25" class="edge"><title>20&#45;&gt;17</title>
<path fill="none" stroke="grey" stroke-width="2" d="M698.5,-287.697C698.5,-279.983 698.5,-270.712 698.5,-262.112"/>
<polygon fill="grey" stroke="grey" stroke-width="2" points="702,-262.104 698.5,-252.104 695,-262.104 702,-262.104"/>
</g>
<!-- 21 -->
<g id="node22" class="node"><title>21</title>
<path fill="none" stroke="#566bd8" stroke-width="2" d="M524.5,-540C524.5,-540 366.5,-540 366.5,-540 360.5,-540 354.5,-534 354.5,-528 354.5,-528 354.5,-516 354.5,-516 354.5,-510 360.5,-504 366.5,-504 366.5,-504 524.5,-504 524.5,-504 530.5,-504 536.5,-510 536.5,-516 536.5,-516 536.5,-528 536.5,-528 536.5,-534 530.5,-540 524.5,-540"/>
<text text-anchor="middle" x="445.5" y="-519.5" font-family="sans" font-size="10.00">mpileup_popoolation_filter_indels</text>
</g>
<!-- 21&#45;&gt;18 -->
<g id="edge26" class="edge"><title>21&#45;&gt;18</title>
<path fill="none" stroke="grey" stroke-width="2" d="M445.5,-503.697C445.5,-495.983 445.5,-486.712 445.5,-478.112"/>
<polygon fill="grey" stroke="grey" stroke-width="2" points="449,-478.104 445.5,-468.104 442,-478.104 449,-478.104"/>
</g>
<!-- 22 -->
<g id="node23" class="node"><title>22</title>
<path fill="none" stroke="#97d856" stroke-width="2" d="M770,-396C770,-396 627,-396 627,-396 621,-396 615,-390 615,-384 615,-384 615,-372 615,-372 615,-366 621,-360 627,-360 627,-360 770,-360 770,-360 776,-360 782,-366 782,-372 782,-372 782,-384 782,-384 782,-390 776,-396 770,-396"/>
<text text-anchor="middle" x="698.5" y="-375.5" font-family="sans" font-size="10.00">sync_subsample_chromosome</text>
</g>
<!-- 22&#45;&gt;20 -->
<g id="edge27" class="edge"><title>22&#45;&gt;20</title>
<path fill="none" stroke="grey" stroke-width="2" d="M698.5,-359.697C698.5,-351.983 698.5,-342.712 698.5,-334.112"/>
<polygon fill="grey" stroke="grey" stroke-width="2" points="702,-334.104 698.5,-324.104 695,-334.104 702,-334.104"/>
</g>
<!-- 23&#45;&gt;21 -->
<g id="edge28" class="edge"><title>23&#45;&gt;21</title>
<path fill="none" stroke="grey" stroke-width="2" d="M468.196,-657.339C441.251,-650.363 410.073,-637.107 393.5,-612 384.686,-598.647 387.448,-590.811 393.5,-576 397.988,-565.017 405.97,-555.081 414.354,-546.858"/>
<polygon fill="grey" stroke="grey" stroke-width="2" points="416.735,-549.424 421.748,-540.09 412.008,-544.261 416.735,-549.424"/>
</g>
<!-- 24 -->
<g id="node25" class="node"><title>24</title>
<path fill="none" stroke="#568ad8" stroke-width="2" d="M588,-612C588,-612 415,-612 415,-612 409,-612 403,-606 403,-600 403,-600 403,-588 403,-588 403,-582 409,-576 415,-576 415,-576 588,-576 588,-576 594,-576 600,-582 600,-588 600,-588 600,-600 600,-600 600,-606 594,-612 588,-612"/>
<text text-anchor="middle" x="501.5" y="-591.5" font-family="sans" font-size="10.00">mpileup_popoolation_identify_indels</text>
</g>
<!-- 23&#45;&gt;24 -->
<g id="edge34" class="edge"><title>23&#45;&gt;24</title>
<path fill="none" stroke="grey" stroke-width="2" d="M513.545,-647.697C511.782,-639.983 509.663,-630.712 507.697,-622.112"/>
<polygon fill="grey" stroke="grey" stroke-width="2" points="511.05,-621.073 505.41,-612.104 504.226,-622.633 511.05,-621.073"/>
</g>
<!-- 28 -->
<g id="node29" class="node"><title>28</title>
<path fill="none" stroke="#afd856" stroke-width="2" d="M737,-540C737,-540 660,-540 660,-540 654,-540 648,-534 648,-528 648,-528 648,-516 648,-516 648,-510 654,-504 660,-504 660,-504 737,-504 737,-504 743,-504 749,-510 749,-516 749,-516 749,-528 749,-528 749,-534 743,-540 737,-540"/>
<text text-anchor="middle" x="698.5" y="-519.5" font-family="sans" font-size="10.00">sync_filter_indels</text>
</g>
<!-- 23&#45;&gt;28 -->
<g id="edge39" class="edge"><title>23&#45;&gt;28</title>
<path fill="none" stroke="grey" stroke-width="2" d="M551.642,-647.786C569.295,-638.235 590.792,-625.563 608.5,-612 622.293,-601.436 653.384,-569.967 675.141,-547.448"/>
<polygon fill="grey" stroke="grey" stroke-width="2" points="677.708,-549.828 682.124,-540.197 672.666,-544.973 677.708,-549.828"/>
</g>
<!-- 30 -->
<g id="node31" class="node"><title>30</title>
<path fill="none" stroke="#5663d8" stroke-width="2" d="M760.5,-612C760.5,-612 668.5,-612 668.5,-612 662.5,-612 656.5,-606 656.5,-600 656.5,-600 656.5,-588 656.5,-588 656.5,-582 662.5,-576 668.5,-576 668.5,-576 760.5,-576 760.5,-576 766.5,-576 772.5,-582 772.5,-588 772.5,-588 772.5,-600 772.5,-600 772.5,-606 766.5,-612 760.5,-612"/>
<text text-anchor="middle" x="714.5" y="-591.5" font-family="sans" font-size="10.00">sync_identify_indels</text>
</g>
<!-- 23&#45;&gt;30 -->
<g id="edge44" class="edge"><title>23&#45;&gt;30</title>
<path fill="none" stroke="grey" stroke-width="2" d="M565.44,-647.966C592.965,-638.185 627.717,-625.836 656.741,-615.524"/>
<polygon fill="grey" stroke="grey" stroke-width="2" points="658.094,-618.757 666.345,-612.111 655.751,-612.161 658.094,-618.757"/>
</g>
<!-- 24&#45;&gt;21 -->
<g id="edge29" class="edge"><title>24&#45;&gt;21</title>
<path fill="none" stroke="grey" stroke-width="2" d="M487.657,-575.697C481.011,-567.389 472.922,-557.277 465.613,-548.141"/>
<polygon fill="grey" stroke="grey" stroke-width="2" points="468.164,-545.727 459.183,-540.104 462.697,-550.099 468.164,-545.727"/>
</g>
<!-- 25 -->
<g id="node26" class="node"><title>25</title>
<path fill="none" stroke="#d86656" stroke-width="2" d="M777.5,-468C777.5,-468 619.5,-468 619.5,-468 613.5,-468 607.5,-462 607.5,-456 607.5,-456 607.5,-444 607.5,-444 607.5,-438 613.5,-432 619.5,-432 619.5,-432 777.5,-432 777.5,-432 783.5,-432 789.5,-438 789.5,-444 789.5,-444 789.5,-456 789.5,-456 789.5,-462 783.5,-468 777.5,-468"/>
<text text-anchor="middle" x="698.5" y="-447.5" font-family="sans" font-size="10.00">sync_mpileup2sync_chromosome</text>
</g>
<!-- 25&#45;&gt;22 -->
<g id="edge30" class="edge"><title>25&#45;&gt;22</title>
<path fill="none" stroke="grey" stroke-width="2" d="M698.5,-431.697C698.5,-423.983 698.5,-414.712 698.5,-406.112"/>
<polygon fill="grey" stroke="grey" stroke-width="2" points="702,-406.104 698.5,-396.104 695,-406.104 702,-406.104"/>
</g>
<!-- 26&#45;&gt;23 -->
<g id="edge31" class="edge"><title>26&#45;&gt;23</title>
<path fill="none" stroke="grey" stroke-width="2" d="M579.036,-935.987C571.13,-897.433 550.934,-800.506 531.5,-720 529.459,-711.544 527.09,-702.369 524.889,-694.068"/>
<polygon fill="grey" stroke="grey" stroke-width="2" points="528.197,-692.891 522.226,-684.139 521.436,-694.704 528.197,-692.891"/>
</g>
<!-- 27&#45;&gt;23 -->
<g id="edge33" class="edge"><title>27&#45;&gt;23</title>
<path fill="none" stroke="grey" stroke-width="2" d="M471.579,-719.697C478.892,-711.305 487.81,-701.07 495.835,-691.861"/>
<polygon fill="grey" stroke="grey" stroke-width="2" points="498.664,-693.943 502.595,-684.104 493.386,-689.344 498.664,-693.943"/>
</g>
<!-- 28&#45;&gt;25 -->
<g id="edge35" class="edge"><title>28&#45;&gt;25</title>
<path fill="none" stroke="grey" stroke-width="2" d="M698.5,-503.697C698.5,-495.983 698.5,-486.712 698.5,-478.112"/>
<polygon fill="grey" stroke="grey" stroke-width="2" points="702,-478.104 698.5,-468.104 695,-478.104 702,-478.104"/>
</g>
<!-- 29&#45;&gt;27 -->
<g id="edge38" class="edge"><title>29&#45;&gt;27</title>
<path fill="none" stroke="grey" stroke-width="2" d="M422.624,-791.697C427.855,-783.559 434.2,-773.689 439.978,-764.701"/>
<polygon fill="grey" stroke="grey" stroke-width="2" points="443.041,-766.409 445.504,-756.104 437.153,-762.623 443.041,-766.409"/>
</g>
<!-- 30&#45;&gt;28 -->
<g id="edge40" class="edge"><title>30&#45;&gt;28</title>
<path fill="none" stroke="grey" stroke-width="2" d="M710.545,-575.697C708.782,-567.983 706.663,-558.712 704.697,-550.112"/>
<polygon fill="grey" stroke="grey" stroke-width="2" points="708.05,-549.073 702.41,-540.104 701.226,-550.633 708.05,-549.073"/>
</g>
</g>
</svg>
